<svg id="SvgjsSvg1127" xmlns="http://www.w3.org/2000/svg" version="1.1" xmlns:xlink="http://www.w3.org/1999/xlink" xmlns:svgjs="http://svgjs.com/svgjs" width="40" height="40" viewBox="0 0 40 40"><title>Rectangle 15</title><desc>Created with Avocode.</desc><defs id="SvgjsDefs1128"></defs><path id="SvgjsPath1129" d="M639 315H679V355Z " fill="#37bdbd" fill-opacity="1" transform="matrix(1,0,0,1,-639,-315)"></path><path id="SvgjsPath1130" d="M671.37 322.22L665.59 328L663.26 325.66C662.97 325.37 662.5 325.37 662.22 325.66C661.9300000000001 325.95000000000005 661.9300000000001 326.41 662.22 326.70000000000005L665.07 329.56000000000006C665.22 329.70000000000005 665.4000000000001 329.77000000000004 665.59 329.77000000000004C665.7800000000001 329.77000000000004 665.97 329.70000000000005 666.11 329.56000000000006V329.56000000000006L672.41 323.26000000000005C672.6999999999999 322.97 672.6999999999999 322.50000000000006 672.41 322.22C672.13 321.93 671.66 321.93 671.37 322.22Z " fill="#ffffff" fill-opacity="1" transform="matrix(1,0,0,1,-639,-315)"></path></svg>