<?xml version="1.0" encoding="UTF-8" standalone="no"?>
<svg width="20px" height="21px" viewBox="0 0 20 21" version="1.1" xmlns="http://www.w3.org/2000/svg" xmlns:xlink="http://www.w3.org/1999/xlink">
    <!-- Generator: Sketch 39.1 (31720) - http://www.bohemiancoding.com/sketch -->
    <title>add-circular-outlined-button</title>
    <desc>Created with Sketch.</desc>
    <defs></defs>
    <g id="Page-1" stroke="none" stroke-width="1" fill="none" fill-rule="evenodd">
        <g id="buttons" transform="translate(-697.000000, -225.000000)" fill="#1DAB59">
            <g id="add-task-release" transform="translate(697.000000, 225.000000)">
                <g id="add-circular-outlined-button">
                    <path d="M9.84692308,0.311111111 C4.40769231,0.311111111 0,4.76777778 0,10.2674444 C0,15.7663333 4.40769231,20.2237778 9.84692308,20.2237778 C15.2853846,20.2237778 19.6938462,15.7632222 19.6938462,10.2674444 C19.6938462,4.76777778 15.2853846,0.311111111 9.84692308,0.311111111 Z M9.84692308,18.9777778 C5.08692308,18.9777778 1.23230769,15.0764444 1.23230769,10.2674444 C1.23230769,5.45455556 5.08692308,1.55711111 9.84692308,1.55711111 C14.6030769,1.55711111 18.4615385,5.45455556 18.4615385,10.2674444 C18.4615385,15.0764444 14.6030769,18.9777778 9.84692308,18.9777778 Z M13.54,9.64444444 L10.4630769,9.64444444 L10.4630769,6.53333333 C10.4630769,6.19033333 10.1861538,5.91033333 9.84692308,5.91033333 C9.50692308,5.91033333 9.23076923,6.19033333 9.23076923,6.53333333 L9.23076923,9.64444444 L6.15384615,9.64444444 C5.81461538,9.64444444 5.53769231,9.92366667 5.53769231,10.2674444 C5.53769231,10.6104444 5.81461538,10.8904444 6.15384615,10.8904444 L9.23076923,10.8904444 L9.23076923,14.0015556 C9.23076923,14.3445556 9.50692308,14.6206667 9.84692308,14.6206667 C10.1861538,14.6206667 10.4630769,14.3445556 10.4630769,14.0015556 L10.4630769,10.8904444 L13.54,10.8904444 C13.8792308,10.8904444 14.1523077,10.6104444 14.1523077,10.2674444 C14.1523077,9.92366667 13.8792308,9.64444444 13.54,9.64444444 Z" id="Fill-1"></path>
                </g>
            </g>
        </g>
    </g>
</svg>