<svg id="SvgjsSvg1155" xmlns="http://www.w3.org/2000/svg" version="1.1" xmlns:xlink="http://www.w3.org/1999/xlink" xmlns:svgjs="http://svgjs.com/svgjs" width="21" height="21" viewBox="0 0 21 21"><title>upload1</title><desc>Created with Avocode.</desc><defs id="SvgjsDefs1156"></defs><path id="SvgjsPath1157" d="M826.99 688.81C826.99 688.3599999999999 826.63 688 826.19 688C825.75 688 825.3900000000001 688.36 825.3900000000001 688.81V693.52H807.6000000000001V688.81C807.6000000000001 688.3599999999999 807.2400000000001 688 806.8000000000002 688C806.3600000000001 688 806.0000000000002 688.36 806.0000000000002 688.81V694C806.0000000000002 694.06 806.0200000000002 694.11 806.0300000000002 694.17C806.0200000000002 694.2199999999999 806.0000000000002 694.28 806.0000000000002 694.3399999999999C806.0000000000002 694.78 806.3600000000002 695.1499999999999 806.8000000000002 695.1499999999999H826.1900000000002C826.6300000000002 695.1499999999999 826.9900000000001 694.7799999999999 826.9900000000001 694.3399999999999C826.9900000000001 694.28 826.9700000000001 694.2199999999999 826.9600000000002 694.17C826.9700000000001 694.11 826.9900000000001 694.06 826.9900000000001 694Z " fill="#ffffff" fill-opacity="1" transform="matrix(1,0,0,1,-806,-675)"></path><path id="SvgjsPath1158" d="M816.65 690.46C817.09 690.46 817.4499999999999 690.1 817.4499999999999 689.6500000000001V677.7700000000001L820.93 681.32C821.0899999999999 681.47 821.29 681.5500000000001 821.5 681.5500000000001C821.7 681.5500000000001 821.9 681.47 822.06 681.32C822.3699999999999 681 822.3699999999999 680.48 822.06 680.1700000000001L817.2099999999999 675.2400000000001C816.9 674.9200000000001 816.3899999999999 674.9200000000001 816.0799999999999 675.2400000000001L811.2299999999999 680.1700000000001C810.92 680.48 810.92 681.0000000000001 811.2299999999999 681.32C811.3899999999999 681.47 811.5899999999999 681.5500000000001 811.8 681.5500000000001C812 681.5500000000001 812.2099999999999 681.47 812.3599999999999 681.32L815.8499999999999 677.7700000000001V689.6500000000001C815.8499999999999 690.1000000000001 816.2099999999999 690.46 816.6499999999999 690.46Z " fill="#ffffff" fill-opacity="1" transform="matrix(1,0,0,1,-806,-675)"></path></svg>