<svg id="SvgjsSvg1012" xmlns="http://www.w3.org/2000/svg" version="1.1" xmlns:xlink="http://www.w3.org/1999/xlink" xmlns:svgjs="http://svgjs.com/svgjs" width="23" height="22" viewBox="0 0 23 22"><title>calendar</title><desc>Created with Avocode.</desc><defs id="SvgjsDefs1013"></defs><path id="SvgjsPath1014" d="M384.93 194.49C384.93 194.22 384.69 194 384.40000000000003 194H382.53000000000003C382.24 194 382.00000000000006 194.22 382.00000000000006 194.49V196.22C382.00000000000006 196.49 382.24000000000007 196.71 382.53000000000003 196.71H384.40000000000003C384.69000000000005 196.71 384.93 196.49 384.93 196.22Z " fill="#5a86ba" fill-opacity="1" transform="matrix(1,0,0,1,-377,-182)"></path><path id="SvgjsPath1015" d="M389.93 194.49C389.93 194.22 389.69 194 389.40000000000003 194H387.53000000000003C387.24 194 387.00000000000006 194.22 387.00000000000006 194.49V196.22C387.00000000000006 196.49 387.24000000000007 196.71 387.53000000000003 196.71H389.40000000000003C389.69000000000005 196.71 389.93 196.49 389.93 196.22Z " fill="#5a86ba" fill-opacity="1" transform="matrix(1,0,0,1,-377,-182)"></path><path id="SvgjsPath1016" d="M394.93 194.49C394.93 194.22 394.69 194 394.40000000000003 194H392.53000000000003C392.24 194 392.00000000000006 194.22 392.00000000000006 194.49V196.22C392.00000000000006 196.49 392.24000000000007 196.71 392.53000000000003 196.71H394.40000000000003C394.69000000000005 196.71 394.93 196.49 394.93 196.22Z " fill="#5a86ba" fill-opacity="1" transform="matrix(1,0,0,1,-377,-182)"></path><path id="SvgjsPath1017" d="M384.93 198.49C384.93 198.22 384.69 198 384.40000000000003 198H382.53000000000003C382.24 198 382.00000000000006 198.22 382.00000000000006 198.49V200.22C382.00000000000006 200.49 382.24000000000007 200.71 382.53000000000003 200.71H384.40000000000003C384.69000000000005 200.71 384.93 200.49 384.93 200.22Z " fill="#5a86ba" fill-opacity="1" transform="matrix(1,0,0,1,-377,-182)"></path><path id="SvgjsPath1018" d="M389.93 198.49C389.93 198.22 389.69 198 389.40000000000003 198H387.53000000000003C387.24 198 387.00000000000006 198.22 387.00000000000006 198.49V200.22C387.00000000000006 200.49 387.24000000000007 200.71 387.53000000000003 200.71H389.40000000000003C389.69000000000005 200.71 389.93 200.49 389.93 200.22Z " fill="#5a86ba" fill-opacity="1" transform="matrix(1,0,0,1,-377,-182)"></path><path id="SvgjsPath1019" d="M394.93 198.49C394.93 198.22 394.69 198 394.40000000000003 198H392.53000000000003C392.24 198 392.00000000000006 198.22 392.00000000000006 198.49V200.22C392.00000000000006 200.49 392.24000000000007 200.71 392.53000000000003 200.71H394.40000000000003C394.69000000000005 200.71 394.93 200.49 394.93 200.22Z " fill="#5a86ba" fill-opacity="1" transform="matrix(1,0,0,1,-377,-182)"></path><path id="SvgjsPath1020" d="M397.95 184.01V186.64999999999998C397.95 187.83999999999997 396.9 188.79999999999998 395.62 188.79999999999998H394.15C392.85999999999996 188.79999999999998 391.81 187.83999999999997 391.81 186.64999999999998V183.99999999999997H385.19V186.64999999999998C385.19 187.83999999999997 384.13 188.79999999999998 382.84 188.79999999999998H381.36999999999995C380.09 188.79999999999998 379.04999999999995 187.83999999999997 379.04999999999995 186.64999999999998V184.01C377.91999999999996 184.04 376.99999999999994 184.89999999999998 376.99999999999994 185.95999999999998V201.40999999999997C376.99999999999994 202.48999999999998 377.93999999999994 203.36999999999998 379.10999999999996 203.36999999999998H397.87999999999994C399.04999999999995 203.36999999999998 399.98999999999995 202.48999999999998 399.98999999999995 201.40999999999997V185.95999999999998C399.98999999999995 184.89999999999998 399.06999999999994 184.04 397.94999999999993 184.01ZM397.26 200.45C397.26 200.91 396.86 201.29 396.34999999999997 201.29H380.59999999999997C380.09999999999997 201.29 379.68999999999994 200.91 379.68999999999994 200.45V192.47C379.68999999999994 192 380.09999999999997 191.62 380.59999999999997 191.62H396.34999999999997C396.85999999999996 191.62 397.26 192 397.26 192.47Z " fill="#5a86ba" fill-opacity="1" transform="matrix(1,0,0,1,-377,-182)"></path><path id="SvgjsPath1021" d="M381.8 187.8H383.25C383.69 187.8 384.05 187.47 384.05 187.06V182.74C384.05 182.33 383.69 182 383.25 182H381.8C381.36 182 381 182.33 381 182.74V187.06C381 187.47 381.36 187.8 381.8 187.8Z " fill="#5a86ba" fill-opacity="1" transform="matrix(1,0,0,1,-377,-182)"></path><path id="SvgjsPath1022" d="M393.8 187.8H395.25C395.69 187.8 396.05 187.47 396.05 187.06V182.74C396.05 182.33 395.69 182 395.25 182H393.8C393.36 182 393 182.33 393 182.74V187.06C393 187.47 393.36 187.8 393.8 187.8Z " fill="#5a86ba" fill-opacity="1" transform="matrix(1,0,0,1,-377,-182)"></path></svg>