<svg id="SvgjsSvg1022" xmlns="http://www.w3.org/2000/svg" version="1.1" xmlns:xlink="http://www.w3.org/1999/xlink" xmlns:svgjs="http://svgjs.com/svgjs" width="8" height="12" viewBox="0 0 8 12"><title>Fill 1</title><desc>Created with Avocode.</desc><defs id="SvgjsDefs1023"></defs><path id="SvgjsPath1024" d="M316.75 199.37H311.8V197C311.8 195.87 312.67 194.95 313.75 194.95C314.83 194.95 315.7 195.86999999999998 315.7 197V197.95C315.7 198.20999999999998 315.9 198.42 316.15 198.42C316.4 198.42 316.59999999999997 198.20999999999998 316.59999999999997 197.95V197C316.59999999999997 195.35 315.32 194 313.74999999999994 194C312.17999999999995 194 310.8999999999999 195.35 310.8999999999999 197V199.37H310.74999999999994C310.3399999999999 199.37 309.99999999999994 199.72 309.99999999999994 200.16V205.21C309.99999999999994 205.65 310.3399999999999 206 310.74999999999994 206H316.74999999999994C317.15999999999997 206 317.49999999999994 205.65 317.49999999999994 205.21V200.16C317.49999999999994 199.72 317.15999999999997 199.37 316.74999999999994 199.37ZM312.85 202.05C312.85 201.53 313.25 201.11 313.75 201.11C314.25 201.11 314.65 201.53 314.65 202.05C314.65 202.4 314.46999999999997 202.71 314.2 202.87V204.26H313.3V202.87C313.03000000000003 202.71 312.85 202.4 312.85 202.05Z " fill="#5a86ba" fill-opacity="1" transform="matrix(1,0,0,1,-310,-194)"></path></svg>