<svg id="SvgjsSvg1017" xmlns="http://www.w3.org/2000/svg" version="1.1" xmlns:xlink="http://www.w3.org/1999/xlink" xmlns:svgjs="http://svgjs.com/svgjs" width="21" height="17" viewBox="0 0 21 17"><title>comments</title><desc>Created with Avocode.</desc><defs id="SvgjsDefs1018"></defs><path id="SvgjsPath1019" d="M1191.37 919.51C1192.6399999999999 918.96 1193.6399999999999 918.21 1194.37 917.26C1195.1 916.31 1195.4699999999998 915.28 1195.4699999999998 914.17C1195.4699999999998 913.05 1195.1 912.02 1194.37 911.0699999999999C1193.6399999999999 910.1199999999999 1192.6399999999999 909.3699999999999 1191.37 908.8299999999999C1190.1 908.27 1188.7299999999998 907.9999999999999 1187.2399999999998 907.9999999999999C1185.7499999999998 907.9999999999999 1184.37 908.2699999999999 1183.0999999999997 908.8299999999999C1181.8299999999997 909.3699999999999 1180.8299999999997 910.1199999999999 1180.0999999999997 911.0699999999999C1179.3699999999997 912.02 1178.9999999999998 913.05 1178.9999999999998 914.17C1178.9999999999998 915.12 1179.2799999999997 916.02 1179.8299999999997 916.86C1180.3799999999997 917.71 1181.1399999999996 918.42 1182.1099999999997 919C1182.0299999999997 919.19 1181.9499999999996 919.37 1181.8699999999997 919.53C1181.7899999999997 919.6899999999999 1181.6899999999996 919.8399999999999 1181.5799999999997 919.99C1181.4699999999998 920.14 1181.3799999999997 920.25 1181.3199999999997 920.34C1181.2499999999998 920.4200000000001 1181.1499999999996 920.5400000000001 1181.0099999999998 920.69C1180.8699999999997 920.85 1180.7799999999997 920.95 1180.7399999999998 921C1180.7399999999998 920.99 1180.7299999999998 921.01 1180.6999999999998 921.05C1180.6699999999998 921.0899999999999 1180.6499999999999 921.1099999999999 1180.6399999999999 921.1099999999999C1180.6399999999999 921.1099999999999 1180.62 921.1299999999999 1180.6 921.1699999999998C1180.57 921.2099999999998 1180.56 921.2399999999999 1180.56 921.2399999999999L1180.53 921.2999999999998C1180.52 921.3199999999998 1180.51 921.3399999999998 1180.5 921.3699999999999C1180.5 921.3899999999999 1180.5 921.4199999999998 1180.5 921.4499999999999C1180.5 921.4699999999999 1180.5 921.4999999999999 1180.51 921.53C1180.52 921.63 1180.57 921.7099999999999 1180.64 921.78C1180.72 921.8399999999999 1180.8000000000002 921.87 1180.88 921.87H1180.92C1181.3100000000002 921.82 1181.64 921.75 1181.92 921.68C1183.13 921.3599999999999 1184.21 920.8499999999999 1185.18 920.14C1185.88 920.27 1186.5700000000002 920.33 1187.24 920.33C1188.73 920.33 1190.1 920.0600000000001 1191.3700000000001 919.51ZM1184.83 918.5L1184.31 918.88C1184.09 919.03 1183.85 919.1899999999999 1183.59 919.35L1184 918.33L1182.86 917.6600000000001C1182.11 917.21 1181.53 916.6800000000001 1181.12 916.07C1180.6999999999998 915.46 1180.5 914.82 1180.5 914.1700000000001C1180.5 913.35 1180.8 912.58 1181.42 911.8700000000001C1182.03 911.1500000000001 1182.8500000000001 910.5900000000001 1183.89 910.1700000000001C1184.93 909.7500000000001 1186.0400000000002 909.5400000000001 1187.24 909.5400000000001C1188.43 909.5400000000001 1189.54 909.7500000000001 1190.58 910.1700000000001C1191.62 910.59 1192.4399999999998 911.1500000000001 1193.06 911.8700000000001C1193.6699999999998 912.5800000000002 1193.97 913.3500000000001 1193.97 914.1700000000001C1193.97 914.9900000000001 1193.67 915.7500000000001 1193.06 916.47C1192.44 917.1800000000001 1191.62 917.75 1190.58 918.1700000000001C1189.54 918.58 1188.4299999999998 918.7900000000001 1187.24 918.7900000000001C1186.65 918.7900000000001 1186.05 918.7300000000001 1185.45 918.6200000000001Z " fill="#ffffff" fill-opacity="1" transform="matrix(1,0,0,1,-1179,-908)"></path><path id="SvgjsPath1020" d="M1198.93 919.62C1199.48 918.78 1199.76 917.88 1199.76 916.91C1199.76 915.93 1199.47 915 1198.8799999999999 914.14C1198.3 913.28 1197.4999999999998 912.5699999999999 1196.4899999999998 912C1196.6699999999998 912.6 1196.7599999999998 913.21 1196.7599999999998 913.83C1196.7599999999998 914.9100000000001 1196.4999999999998 915.9300000000001 1195.9799999999998 916.89C1195.4599999999998 917.85 1194.7099999999998 918.6999999999999 1193.7299999999998 919.4399999999999C1192.8299999999997 920.1199999999999 1191.7999999999997 920.64 1190.6399999999999 920.9999999999999C1189.4899999999998 921.3599999999999 1188.29 921.5399999999998 1187.03 921.5399999999998C1186.8 921.5399999999998 1186.45 921.5199999999999 1186 921.4899999999999C1187.57 922.5499999999998 1189.41 923.0799999999999 1191.52 923.0799999999999C1192.19 923.0799999999999 1192.8799999999999 923.02 1193.58 922.8899999999999C1194.55 923.5899999999999 1195.6299999999999 924.1099999999999 1196.83 924.4299999999998C1197.11 924.4999999999999 1197.4499999999998 924.5699999999998 1197.84 924.6199999999999C1197.9299999999998 924.6299999999999 1198.02 924.5999999999999 1198.1 924.5399999999998C1198.1699999999998 924.4699999999998 1198.23 924.3899999999999 1198.25 924.2699999999999C1198.25 924.2299999999999 1198.25 924.1999999999998 1198.26 924.1899999999998C1198.27 924.1899999999998 1198.27 924.1599999999999 1198.26 924.1199999999998C1198.24 924.0699999999998 1198.23 924.0399999999997 1198.23 924.0399999999997L1198.2 923.9799999999998C1198.19 923.9699999999998 1198.18 923.9499999999998 1198.16 923.9199999999998C1198.14 923.8899999999999 1198.13 923.8699999999999 1198.1100000000001 923.8599999999999C1198.1000000000001 923.8499999999999 1198.0900000000001 923.8299999999999 1198.0600000000002 923.8C1198.0400000000002 923.77 1198.0200000000002 923.75 1198.0200000000002 923.74C1197.9800000000002 923.7 1197.89 923.6 1197.7500000000002 923.44C1197.6100000000001 923.2900000000001 1197.5000000000002 923.1700000000001 1197.4400000000003 923.09C1197.3800000000003 923 1197.2900000000002 922.89 1197.1800000000003 922.74C1197.0700000000004 922.59 1196.9700000000003 922.44 1196.8900000000003 922.27C1196.8000000000004 922.11 1196.7200000000003 921.9399999999999 1196.6500000000003 921.74C1197.6100000000004 921.17 1198.3700000000003 920.46 1198.9300000000003 919.62Z " fill="#ffffff" fill-opacity="1" transform="matrix(1,0,0,1,-1179,-908)"></path></svg>