<svg id="SvgjsSvg1016" xmlns="http://www.w3.org/2000/svg" version="1.1" xmlns:xlink="http://www.w3.org/1999/xlink" xmlns:svgjs="http://svgjs.com/svgjs" width="16" height="16" viewBox="0 0 16 16"><title>Group 3</title><desc>Created with Avocode.</desc><defs id="SvgjsDefs1017"></defs><path id="SvgjsPath1018" d="M915 599C910.59 599 907 602.59 907 607C907 611.41 910.59 615 915 615C919.41 615 923 611.41 923 607C923 602.59 919.41 599 915 599ZM915 613.95C911.17 613.95 908.05 610.83 908.05 607C908.05 603.17 911.17 600.05 915 600.05C918.83 600.05 921.95 603.17 921.95 607C921.95 610.83 918.83 613.95 915 613.95Z " fill="#37bdbd" fill-opacity="1" transform="matrix(1,0,0,1,-907,-599)"></path></svg>