<svg id="SvgjsSvg1019" xmlns="http://www.w3.org/2000/svg" version="1.1" xmlns:xlink="http://www.w3.org/1999/xlink" xmlns:svgjs="http://svgjs.com/svgjs" width="16" height="16" viewBox="0 0 16 16"><title>Group 3</title><desc>Created with Avocode.</desc><defs id="SvgjsDefs1020"></defs><path id="SvgjsPath1021" d="M915 599C910.59 599 907 602.59 907 607C907 611.41 910.59 615 915 615C919.41 615 923 611.41 923 607C923 602.59 919.41 599 915 599ZM915 613.95C911.17 613.95 908.05 610.83 908.05 607C908.05 603.17 911.17 600.05 915 600.05C918.83 600.05 921.95 603.17 921.95 607C921.95 610.83 918.83 613.95 915 613.95Z " fill="#37bdbd" fill-opacity="1" transform="matrix(1,0,0,1,-907,-599)"></path><path id="SvgjsPath1022" d="M917.69 604.15L913.5600000000001 608.28L911.9000000000001 606.61C911.69 606.41 911.3600000000001 606.41 911.1500000000001 606.61C910.95 606.82 910.95 607.15 911.1500000000001 607.35L913.19 609.39C913.2900000000001 609.49 913.4300000000001 609.55 913.5600000000001 609.55C913.7 609.55 913.83 609.49 913.9300000000001 609.39C913.9300000000001 609.39 913.9300000000001 609.39 913.94 609.39L918.4300000000001 604.9C918.6400000000001 604.6899999999999 918.6400000000001 604.36 918.4300000000001 604.15C918.23 603.9499999999999 917.8900000000001 603.9499999999999 917.69 604.15Z " fill="#37bdbd" fill-opacity="1" transform="matrix(1,0,0,1,-907,-599)"></path></svg>