<svg id="SvgjsSvg1000" xmlns="http://www.w3.org/2000/svg" version="1.1" xmlns:xlink="http://www.w3.org/1999/xlink" xmlns:svgjs="http://svgjs.com/svgjs" width="20" height="25" viewBox="0 0 20 25"><title>Fill 1</title><desc>Created with Avocode.</desc><defs id="SvgjsDefs1001"></defs><path id="SvgjsPath1007" d="M355.06 23.37C354.91 22.05 355.04 20.77 355.38 19.59C356.5 15.67 360.02 12.780000000000001 364.2 12.73V10.17C364.2 10.03 364.37 9.95 364.49 10.04L369.64 13.91C369.71999999999997 13.98 369.71999999999997 14.11 369.64 14.17L364.49 18.05C364.37 18.14 364.2 18.060000000000002 364.2 17.92V15.360000000000001C361.46 15.410000000000002 359.11 17.14 358.09999999999997 19.590000000000003C357.71999999999997 20.520000000000003 357.53 21.540000000000003 357.58 22.620000000000005C357.65999999999997 24.090000000000003 358.2 25.450000000000003 359.05 26.550000000000004C359.51 27.140000000000004 359.40000000000003 27.990000000000006 358.81 28.430000000000003C358.25 28.860000000000003 357.46 28.740000000000002 357.03000000000003 28.180000000000003C355.97 26.830000000000002 355.27000000000004 25.180000000000003 355.06 23.370000000000005ZM369.93 18.45C370.79 19.54 371.34000000000003 20.91 371.40000000000003 22.38C371.46000000000004 23.46 371.26000000000005 24.48 370.88000000000005 25.41C369.87000000000006 27.86 367.53000000000003 29.6 364.78000000000003 29.64V27.080000000000002C364.78000000000003 26.94 364.61 26.860000000000003 364.50000000000006 26.950000000000003L359.34000000000003 30.830000000000002C359.26000000000005 30.89 359.26000000000005 31.020000000000003 359.34000000000003 31.080000000000002L364.49 34.96C364.61 35.050000000000004 364.78000000000003 34.97 364.78000000000003 34.83V32.269999999999996C368.96000000000004 32.22 372.48 29.329999999999995 373.6 25.409999999999997C373.94 24.219999999999995 374.06 22.949999999999996 373.91 21.619999999999997C373.71000000000004 19.819999999999997 373.01000000000005 18.169999999999998 371.95000000000005 16.819999999999997C371.51000000000005 16.259999999999998 370.73 16.139999999999997 370.1700000000001 16.569999999999997C369.5900000000001 17.009999999999998 369.4800000000001 17.859999999999996 369.93000000000006 18.449999999999996Z " fill="#c9d3de" fill-opacity="1" transform="matrix(1,0,0,1,-354,-10)"></path></svg>