<svg id="SvgjsSvg1008" xmlns="http://www.w3.org/2000/svg" version="1.1" xmlns:xlink="http://www.w3.org/1999/xlink" xmlns:svgjs="http://svgjs.com/svgjs" width="20" height="25" viewBox="0 0 20 25"><title>Fill 1</title><desc>Created with Avocode.</desc><defs id="SvgjsDefs1009"></defs><path id="SvgjsPath1010" d="M938.06 718.37C937.91 717.05 938.04 715.77 938.38 714.59C939.5 710.6700000000001 943.02 707.7800000000001 947.2 707.73V705.1700000000001C947.2 705.0300000000001 947.37 704.95 947.49 705.0400000000001L952.64 708.9100000000001C952.72 708.9800000000001 952.72 709.1100000000001 952.64 709.1700000000001L947.49 713.0500000000001C947.37 713.1400000000001 947.2 713.0600000000001 947.2 712.9200000000001V710.3600000000001C944.46 710.4100000000001 942.11 712.1400000000001 941.1 714.5900000000001C940.72 715.5200000000001 940.53 716.5400000000002 940.58 717.6200000000001C940.6600000000001 719.0900000000001 941.2 720.4500000000002 942.0500000000001 721.5500000000001C942.5100000000001 722.1400000000001 942.4000000000001 722.9900000000001 941.8100000000001 723.4300000000001C941.2500000000001 723.86 940.46 723.74 940.0300000000001 723.1800000000001C938.9700000000001 721.83 938.2700000000001 720.1800000000001 938.0600000000001 718.3700000000001ZM952.93 713.45C953.79 714.5400000000001 954.3399999999999 715.9100000000001 954.4 717.38C954.4599999999999 718.46 954.26 719.48 953.88 720.41C952.87 722.86 950.53 724.6 947.78 724.64V722.08C947.78 721.94 947.61 721.86 947.5 721.95L942.34 725.83C942.26 725.89 942.26 726.0200000000001 942.34 726.08L947.49 729.96C947.61 730.0500000000001 947.78 729.97 947.78 729.83V727.2700000000001C951.9599999999999 727.2200000000001 955.48 724.33 956.6 720.4100000000001C956.94 719.22 957.0600000000001 717.95 956.91 716.6200000000001C956.7099999999999 714.8200000000002 956.01 713.1700000000001 954.9499999999999 711.8200000000002C954.5099999999999 711.2600000000002 953.7299999999999 711.1400000000002 953.17 711.5700000000002C952.5899999999999 712.0100000000002 952.4799999999999 712.8600000000001 952.93 713.4500000000002Z " fill="#2ecc71" fill-opacity="1" transform="matrix(1,0,0,1,-937,-705)"></path></svg>