<svg id="SvgjsSvg1023" xmlns="http://www.w3.org/2000/svg" version="1.1" xmlns:xlink="http://www.w3.org/1999/xlink" xmlns:svgjs="http://svgjs.com/svgjs" width="16" height="16" viewBox="0 0 16 16"><title>Fill 1</title><desc>Created with Avocode.</desc><defs id="SvgjsDefs1024"></defs><path id="SvgjsPath1025" d="M915 534C910.59 534 907 537.59 907 542C907 546.41 910.59 550 915 550C919.41 550 923 546.41 923 542C923 537.59 919.41 534 915 534ZM915 548.95C911.17 548.95 908.05 545.83 908.05 542C908.05 538.17 911.17 535.05 915 535.05C918.83 535.05 921.95 538.17 921.95 542C921.95 545.83 918.83 548.95 915 548.95Z " fill="#4c637b" fill-opacity="1" transform="matrix(1,0,0,1,-907,-534)"></path><path id="SvgjsPath1026" d="M917.48 538.16C917.48 538.16 911.4200000000001 544.24 911.13 544.56C910.84 544.8699999999999 911.1899999999999 545.05 911.13 545.2399999999999C911.24 545.3399999999999 911.38 545.3999999999999 911.52 545.3999999999999C911.66 545.3999999999999 911.8 545.3399999999999 911.91 545.2399999999999L918.26 538.9199999999998C918.47 538.7099999999998 918.47 538.3699999999999 918.26 538.1599999999999C918.04 537.9499999999998 917.7 537.9499999999998 917.48 538.1599999999999Z " fill="#4c637b" fill-opacity="1" transform="matrix(1,0,0,1,-907,-534)"></path><path id="SvgjsPath1027" d="M917.48 538.16C917.48 538.16 911.4200000000001 544.24 911.13 544.56C910.84 544.8699999999999 911.1899999999999 545.05 911.13 545.2399999999999C911.24 545.3399999999999 911.38 545.3999999999999 911.52 545.3999999999999C911.66 545.3999999999999 911.8 545.3399999999999 911.91 545.2399999999999L918.26 538.9199999999998C918.47 538.7099999999998 918.47 538.3699999999999 918.26 538.1599999999999C918.04 537.9499999999998 917.7 537.9499999999998 917.48 538.1599999999999Z " fill="#4c637b" fill-opacity="1" transform="matrix(1,0,0,1,-907,-534)"></path></svg>