<svg id="SvgjsSvg1017" xmlns="http://www.w3.org/2000/svg" version="1.1" xmlns:xlink="http://www.w3.org/1999/xlink" xmlns:svgjs="http://svgjs.com/svgjs" width="48" height="41" viewBox="0 0 48 41"><title>Fill 1</title><desc>Created with Avocode.</desc><defs id="SvgjsDefs1018"></defs><path id="SvgjsPath1019" d="M531.78 463.96C531.36 456.75 525.42 451 518.27 451C513.92 451 509.71999999999997 453.13 507.10999999999996 456.61C507.04999999999995 456.57 506.98999999999995 456.56 506.92999999999995 456.52000000000004C506.7699999999999 456.45000000000005 506.60999999999996 456.38000000000005 506.44999999999993 456.31000000000006C506.3499999999999 456.27000000000004 506.25999999999993 456.24000000000007 506.16999999999996 456.21000000000004C505.99999999999994 456.15000000000003 505.84 456.1 505.67999999999995 456.06000000000006C505.5799999999999 456.0300000000001 505.48999999999995 456.00000000000006 505.4 455.9800000000001C505.21999999999997 455.94000000000005 505.03999999999996 455.9100000000001 504.84999999999997 455.8900000000001C504.77 455.8700000000001 504.68999999999994 455.8600000000001 504.60999999999996 455.8500000000001C504.34 455.8200000000001 504.06999999999994 455.80000000000007 503.79999999999995 455.80000000000007C499.8299999999999 455.80000000000007 496.59999999999997 459.0300000000001 496.59999999999997 463.00000000000006C496.59999999999997 463.1000000000001 496.60999999999996 463.20000000000005 496.60999999999996 463.31000000000006C493.28999999999996 465.12000000000006 490.99999999999994 468.9200000000001 490.99999999999994 472.7200000000001C490.99999999999994 478.3900000000001 495.60999999999996 483.00000000000006 501.2799999999999 483.00000000000006H505.3999999999999C505.8399999999999 483.00000000000006 506.19999999999993 482.64000000000004 506.19999999999993 482.20000000000005C506.19999999999993 481.76000000000005 505.8399999999999 481.40000000000003 505.3999999999999 481.40000000000003H501.2799999999999C496.4899999999999 481.40000000000003 492.5999999999999 477.51000000000005 492.5999999999999 472.72C492.5999999999999 469.40000000000003 494.7699999999999 465.95000000000005 497.7499999999999 464.52000000000004L498.1999999999999 464.31000000000006V463.80000000000007C498.1999999999999 463.70000000000005 498.20999999999987 463.6000000000001 498.20999999999987 463.50000000000006L498.21999999999986 463.36000000000007L498.20999999999987 463.2100000000001C498.20999999999987 463.1400000000001 498.1999999999999 463.0700000000001 498.1999999999999 463.0000000000001C498.1999999999999 459.91000000000014 500.70999999999987 457.4000000000001 503.7999999999999 457.4000000000001C504.0499999999999 457.4000000000001 504.2899999999999 457.4200000000001 504.5399999999999 457.4500000000001C504.5999999999999 457.4600000000001 504.6599999999999 457.4700000000001 504.7199999999999 457.4800000000001C504.9299999999999 457.5200000000001 505.1499999999999 457.56000000000006 505.3499999999999 457.63000000000005C505.3799999999999 457.63000000000005 505.4099999999999 457.64000000000004 505.4299999999999 457.65000000000003C505.6599999999999 457.72 505.8899999999999 457.81000000000006 506.1099999999999 457.90000000000003C506.1599999999999 457.93 506.2199999999999 457.95000000000005 506.2699999999999 457.98C506.4599999999999 458.08000000000004 506.6499999999999 458.18 506.8399999999999 458.3C508.37999999999994 459.3 509.3999999999999 461.03000000000003 509.3999999999999 463C509.3999999999999 463.44 509.75999999999993 463.8 510.19999999999993 463.8C510.63999999999993 463.8 510.99999999999994 463.44 510.99999999999994 463C510.99999999999994 460.8 509.99999999999994 458.82 508.43999999999994 457.5C510.72999999999996 454.5 514.51 452.6 518.27 452.6C524.46 452.6 529.61 457.51000000000005 530.15 463.71000000000004C529.3299999999999 463.65000000000003 528.1 463.62000000000006 526.88 463.81000000000006C526.4399999999999 463.88000000000005 526.14 464.2900000000001 526.21 464.7200000000001C526.27 465.12000000000006 526.61 465.4000000000001 527 465.4000000000001C527.04 465.4000000000001 527.08 465.4000000000001 527.12 465.3900000000001C528.9 465.1200000000001 530.75 465.3800000000001 530.87 465.3900000000001C534.59 466.1000000000001 537.4 469.5300000000001 537.4 473.3800000000001C537.4 477.8000000000001 533.8 481.4000000000001 529.38 481.4000000000001H526.2C525.76 481.4000000000001 525.4000000000001 481.7600000000001 525.4000000000001 482.2000000000001C525.4000000000001 482.6400000000001 525.7600000000001 483.0000000000001 526.2 483.0000000000001H529.38C534.68 483.0000000000001 539 478.6800000000001 539 473.3800000000001C539 468.9900000000001 535.94 465.0500000000001 531.78 463.9600000000001Z " fill="#9eadbc" fill-opacity="1" transform="matrix(1,0,0,1,-491,-451)"></path><path id="SvgjsPath1020" d="M516.77 472.23C516.6899999999999 472.16 516.6 472.1 516.5 472.06C516.31 471.98 516.09 471.98 515.89 472.06C515.79 472.1 515.71 472.16 515.63 472.23L509.23 478.63C508.92 478.94 508.92 479.45 509.23 479.76C509.39000000000004 479.92 509.59000000000003 480 509.8 480C510 480 510.21000000000004 479.92 510.36 479.76L515.4 474.73V491.20000000000005C515.4 491.64000000000004 515.76 492.00000000000006 516.1999999999999 492.00000000000006C516.64 492.00000000000006 516.9999999999999 491.64000000000004 516.9999999999999 491.20000000000005V474.73L522.0299999999999 479.76C522.1899999999998 479.92 522.3899999999999 480 522.5999999999999 480C522.8 480 523.0099999999999 479.92 523.1599999999999 479.76C523.4799999999999 479.45 523.4799999999999 478.94 523.1599999999999 478.63Z " fill="#9eadbc" fill-opacity="1" transform="matrix(1,0,0,1,-491,-451)"></path></svg>