<svg id="SvgjsSvg1021" xmlns="http://www.w3.org/2000/svg" version="1.1" xmlns:xlink="http://www.w3.org/1999/xlink" xmlns:svgjs="http://svgjs.com/svgjs" width="43" height="42" viewBox="0 0 43 42"><title>content</title><desc>Created with Avocode.</desc><defs id="SvgjsDefs1022"></defs><path id="SvgjsPath1023" d="M494.33 655.25V624.8H534.17V655.25ZM534.17 616.32V623.47H494.3299999999999V616.32ZM493.67 615C493.3 615 493 615.3 493 615.66V655.91C493 656.27 493.3 656.5699999999999 493.67 656.5699999999999H534.83C535.2 656.5699999999999 535.5 656.27 535.5 655.91V615.66C535.5 615.3 535.2 615 534.83 615Z " fill="#9eadbc" fill-opacity="1" transform="matrix(1,0,0,1,-493,-615)"></path><path id="SvgjsPath1024" d="M514.31 618.41C514.4599999999999 618.35 514.63 618.3199999999999 514.79 618.3199999999999C515.5999999999999 618.3199999999999 516.26 618.9799999999999 516.26 619.78C516.26 620.5799999999999 515.6 621.24 514.79 621.24C514.63 621.24 514.4599999999999 621.21 514.31 621.15C513.7199999999999 620.9499999999999 513.3299999999999 620.4 513.3299999999999 619.78C513.3299999999999 619.16 513.7199999999999 618.61 514.31 618.41ZM514.79 622.56C516.3399999999999 622.56 517.5899999999999 621.31 517.5899999999999 619.78C517.5899999999999 618.25 516.3399999999999 617 514.79 617C514.48 617 514.16 617.05 513.86 617.16C512.75 617.55 512 618.6 512 619.78C512 620.9599999999999 512.75 622.01 513.86 622.4C514.16 622.51 514.48 622.56 514.79 622.56Z " fill="#9eadbc" fill-opacity="1" transform="matrix(1,0,0,1,-493,-615)"></path><path id="SvgjsPath1025" d="M507.79 618.32C508.6 618.32 509.26000000000005 618.98 509.26000000000005 619.7800000000001C509.26000000000005 620.58 508.6 621.2400000000001 507.79 621.2400000000001C506.99 621.2400000000001 506.33000000000004 620.5800000000002 506.33000000000004 619.7800000000001C506.33000000000004 618.9800000000001 506.99000000000007 618.32 507.79 618.32ZM510.59 619.78C510.59 618.25 509.34 617 507.78999999999996 617C506.24999999999994 617 504.99999999999994 618.25 504.99999999999994 619.78C504.99999999999994 621.31 506.24999999999994 622.56 507.78999999999996 622.56C509.34 622.56 510.59 621.31 510.59 619.78Z " fill="#9eadbc" fill-opacity="1" transform="matrix(1,0,0,1,-493,-615)"></path><path id="SvgjsPath1026" d="M499.79 618.32C500.6 618.32 501.26000000000005 618.98 501.26000000000005 619.7800000000001C501.26000000000005 620.58 500.6 621.2400000000001 499.79 621.2400000000001C498.99 621.2400000000001 498.33000000000004 620.5800000000002 498.33000000000004 619.7800000000001C498.33000000000004 618.9800000000001 498.99000000000007 618.32 499.79 618.32ZM502.59 619.78C502.59 618.25 501.34 617 499.78999999999996 617C498.24999999999994 617 496.99999999999994 618.25 496.99999999999994 619.78C496.99999999999994 621.31 498.24999999999994 622.56 499.78999999999996 622.56C501.34 622.56 502.59 621.31 502.59 619.78Z " fill="#9eadbc" fill-opacity="1" transform="matrix(1,0,0,1,-493,-615)"></path><path id="SvgjsPath1027" d="M524.53 637.07L519.81 632.38L522.9699999999999 629.24L527.6899999999999 633.9300000000001ZM510.3 643.87L509.28000000000003 642.86L510.91 641.24L519.08 633.11L520.11 634.12ZM517.58 640.51L512.25 645.81L511.03 644.5999999999999L520.8399999999999 634.8499999999999L522.05 636.06ZM510.28 648.49L508.34 646.5600000000001L508.86999999999995 643.9000000000001L512.9499999999999 647.96ZM507.85 648.98L508.09000000000003 647.77L509.06000000000006 648.73ZM521.08 640.51L514 647.55L512.98 646.53L522.78 636.78L523.8 637.8ZM522.61 628.15L519.14 631.6H502.52C502.22999999999996 631.6 502 631.83 502 632.12C502 632.4 502.23 632.63 502.52 632.63H518.11L510.34000000000003 640.36H502.52000000000004C502.23 640.36 502.00000000000006 640.59 502.00000000000006 640.87C502.00000000000006 641.16 502.2300000000001 641.39 502.52000000000004 641.39H509.3L508.19 642.49C508.19 642.5 508.19 642.5 508.18 642.5C508.17 642.51 508.16 642.52 508.16 642.53C508.15000000000003 642.54 508.15000000000003 642.54 508.15000000000003 642.55C508.14000000000004 642.55 508.13000000000005 642.56 508.12000000000006 642.5699999999999C508.12000000000006 642.5799999999999 508.12000000000006 642.5899999999999 508.11000000000007 642.5899999999999C508.11000000000007 642.5999999999999 508.1000000000001 642.6099999999999 508.1000000000001 642.6199999999999C508.0900000000001 642.6199999999999 508.0900000000001 642.6299999999999 508.0900000000001 642.6399999999999C508.0800000000001 642.6499999999999 508.0800000000001 642.6499999999999 508.0800000000001 642.6599999999999C508.0700000000001 642.6699999999998 508.0700000000001 642.6799999999998 508.0700000000001 642.6899999999998C508.0600000000001 642.6999999999998 508.0600000000001 642.6999999999998 508.0600000000001 642.7099999999998C508.0600000000001 642.7199999999998 508.0500000000001 642.7399999999998 508.0500000000001 642.7499999999998C508.0500000000001 642.7499999999998 508.0500000000001 642.7499999999998 508.0500000000001 642.7599999999998L506.77000000000015 649.1199999999998H502.52000000000015C502.23000000000013 649.1199999999998 502.00000000000017 649.3499999999998 502.00000000000017 649.6299999999998C502.00000000000017 649.9099999999997 502.2300000000002 650.1399999999998 502.52000000000015 650.1399999999998H507.19000000000017C507.19000000000017 650.1399999999998 507.19000000000017 650.1399999999998 507.20000000000016 650.1399999999998H507.60000000000014C507.7400000000001 650.1399999999998 507.8600000000001 650.0899999999998 507.95000000000016 649.9999999999998L510.21000000000015 649.5499999999997L514.1000000000001 648.7799999999997H514.1100000000001C514.1200000000001 648.7699999999998 514.1400000000001 648.7699999999998 514.1500000000001 648.7699999999998C514.1600000000001 648.7599999999998 514.1600000000001 648.7599999999998 514.1700000000001 648.7599999999998C514.1800000000001 648.7599999999998 514.19 648.7499999999998 514.2 648.7499999999998C514.21 648.7499999999998 514.21 648.7399999999998 514.22 648.7399999999998C514.23 648.7399999999998 514.24 648.7299999999998 514.24 648.7299999999998C514.25 648.7199999999998 514.26 648.7199999999998 514.27 648.7099999999998C514.27 648.7099999999998 514.28 648.7099999999998 514.29 648.6999999999998C514.3 648.6999999999998 514.31 648.6899999999998 514.31 648.6799999999998C514.3199999999999 648.6799999999998 514.3199999999999 648.6799999999998 514.3299999999999 648.6699999999998C514.3399999999999 648.6599999999999 514.3499999999999 648.6499999999999 514.3599999999999 648.6399999999999C514.3599999999999 648.6399999999999 514.3599999999999 648.6399999999999 514.3699999999999 648.6399999999999L528.7899999999998 634.2899999999998C528.9899999999999 634.0899999999998 528.9899999999999 633.7699999999999 528.7899999999998 633.5699999999998L523.3399999999998 628.1499999999999C523.1399999999998 627.9499999999998 522.8099999999998 627.9499999999998 522.6099999999998 628.1499999999999Z " fill="#9eadbc" fill-opacity="1" transform="matrix(1,0,0,1,-493,-615)"></path><path id="SvgjsPath1028" d="M523.39 631.15L522.15 632.38C521.9499999999999 632.58 521.9499999999999 632.91 522.15 633.11C522.25 633.21 522.38 633.26 522.52 633.26C522.65 633.26 522.78 633.21 522.88 633.11L524.12 631.88C524.32 631.68 524.32 631.35 524.12 631.15C523.92 630.9499999999999 523.59 630.9499999999999 523.39 631.15 " fill="#9eadbc" fill-opacity="1" transform="matrix(1,0,0,1,-493,-615)"></path></svg>