<svg id="SvgjsSvg1141" xmlns="http://www.w3.org/2000/svg" version="1.1" xmlns:xlink="http://www.w3.org/1999/xlink" xmlns:svgjs="http://svgjs.com/svgjs" width="18" height="23" viewBox="0 0 18 23"><title>csv</title><desc>Created with Avocode.</desc><defs id="SvgjsDefs1142"></defs><path id="SvgjsPath1143" d="M601 690.53H604.38V689H601Z " fill="#5a86ba" fill-opacity="1" transform="matrix(1,0,0,1,-589,-674)"></path><path id="SvgjsPath1144" d="M592 687.53H595.38V686H592Z " fill="#5a86ba" fill-opacity="1" transform="matrix(1,0,0,1,-589,-674)"></path><path id="SvgjsPath1145" d="M601 687.53H604.38V686H601Z " fill="#5a86ba" fill-opacity="1" transform="matrix(1,0,0,1,-589,-674)"></path><path id="SvgjsPath1146" d="M601 682.53H604.38V681H601Z " fill="#5a86ba" fill-opacity="1" transform="matrix(1,0,0,1,-589,-674)"></path><path id="SvgjsPath1147" d="M601 685.53H604.38V684H601Z " fill="#5a86ba" fill-opacity="1" transform="matrix(1,0,0,1,-589,-674)"></path><path id="SvgjsPath1148" d="M592 690.53H595.38V689H592Z " fill="#5a86ba" fill-opacity="1" transform="matrix(1,0,0,1,-589,-674)"></path><path id="SvgjsPath1149" d="M592.99 684.79L593.61 683.5999999999999L594.24 684.79H595.24L594.15 682.93L595.17 681H594.17L593.61 682.17L593.03 681H592.06L593.0699999999999 682.85L591.9999999999999 684.7900000000001Z " fill="#5a86ba" fill-opacity="1" transform="matrix(1,0,0,1,-589,-674)"></path><path id="SvgjsPath1150" d="M596 685.53H599.38V684H596Z " fill="#5a86ba" fill-opacity="1" transform="matrix(1,0,0,1,-589,-674)"></path><path id="SvgjsPath1151" d="M596 682.53H599.38V681H596Z " fill="#5a86ba" fill-opacity="1" transform="matrix(1,0,0,1,-589,-674)"></path><path id="SvgjsPath1152" d="M606.76 677.8L603.17 674.16C603.0699999999999 674.06 602.9399999999999 674 602.8 674H589.53C589.24 674 589 674.24 589 674.54V696.42C589 696.7199999999999 589.24 696.9599999999999 589.53 696.9599999999999H606.38C606.67 696.9599999999999 606.91 696.7199999999999 606.91 696.42V678.1899999999999C606.91 678.04 606.86 677.91 606.76 677.8ZM603.33 675.85L605.1 677.65H603.33ZM590.06 695.88V675.03H602.26L602.3 678.0799999999999C602.3 678.41 602.54 678.68 602.8299999999999 678.68H605.8799999999999L605.8499999999999 695.88Z " fill="#5a86ba" fill-opacity="1" transform="matrix(1,0,0,1,-589,-674)"></path><path id="SvgjsPath1153" d="M596 687.53H599.38V686H596Z " fill="#5a86ba" fill-opacity="1" transform="matrix(1,0,0,1,-589,-674)"></path><path id="SvgjsPath1154" d="M596 690.53H599.38V689H596Z " fill="#5a86ba" fill-opacity="1" transform="matrix(1,0,0,1,-589,-674)"></path></svg>