<?xml version="1.0" encoding="utf-8"?>
<!-- Generator: Adobe Illustrator 18.0.0, SVG Export Plug-In . SVG Version: 6.00 Build 0)  -->
<!DOCTYPE svg PUBLIC "-//W3C//DTD SVG 1.1//EN" "http://www.w3.org/Graphics/SVG/1.1/DTD/svg11.dtd">
<svg version="1.1" id="Слой_1" xmlns="http://www.w3.org/2000/svg" xmlns:xlink="http://www.w3.org/1999/xlink" x="0px" y="0px"
	 viewBox="0 0 21 21" enable-background="new 0 0 21 21" xml:space="preserve">
<g>
	<g>
		<path id="SvgjsPath1007" fill="#2ECC71" d="M16.8,11.2V3.8c0-1-0.8-1.8-1.9-1.8H2.4c-1,0-1.9,0.8-1.9,1.8v7.3c0,1,0.8,1.8,1.9,1.8
			h0.5v2.2c0,0.4,0.3,0.7,0.7,0.7c0.2,0,0.4-0.1,0.6-0.3L6.6,13h8.4C16,13,16.8,12.2,16.8,11.2z M6.3,12c-0.2,0-0.3,0.1-0.4,0.2
			l-2,2.3v-2c0-0.3-0.2-0.5-0.5-0.5h-1c-0.5,0-0.8-0.4-0.8-0.8V3.8C1.5,3.4,1.9,3,2.4,3h12.6c0.5,0,0.8,0.4,0.8,0.8v7.3
			c0,0.5-0.4,0.8-0.8,0.8H6.3z"/>
		<path id="SvgjsPath1008" fill="#2ECC71" d="M16.8,18.7c0.1,0.2,0.4,0.3,0.6,0.3c0.1,0,0.2,0,0.3-0.1c0.3-0.1,0.5-0.4,0.5-0.7V16
			h0.5c1,0,1.9-0.8,1.9-1.8V6.9c0-1-0.8-1.8-1.9-1.8c-0.3,0-0.5,0.2-0.5,0.5c0,0.3,0.2,0.5,0.5,0.5c0.5,0,0.9,0.4,0.9,0.8v7.3
			c0,0.5-0.4,0.8-0.9,0.8h-1c-0.3,0-0.5,0.2-0.5,0.5v2L15,15.2C15,15.1,14.8,15,14.7,15H7.1c-0.3,0-0.5,0.2-0.5,0.5
			c0,0.3,0.2,0.5,0.5,0.5h7.4L16.8,18.7z"/>
	</g>
	<rect y="0" fill="none" width="21" height="21"/>
</g>
</svg>
