<svg id="SvgjsSvg1000" xmlns="http://www.w3.org/2000/svg" version="1.1" xmlns:xlink="http://www.w3.org/1999/xlink" xmlns:svgjs="http://svgjs.com/svgjs" width="22" height="21" viewBox="0 0 22 21"><title>Fill 1</title><desc>Created with Avocode.</desc><defs id="SvgjsDefs1001"></defs><path id="SvgjsPath1007" d="M299.37 27.09C299.02 27.09 298.74 27.37 298.74 27.71V33.32C298.74 34.85 297.47 36.09 295.91 36.09H282.08000000000004C280.53000000000003 36.09 279.26000000000005 34.84 279.26000000000005 33.32V27.62C279.26000000000005 27.27 278.9800000000001 27 278.63000000000005 27C278.28000000000003 27 278.00000000000006 27.27 278.00000000000006 27.62V33.32C278.00000000000006 35.53 279.83000000000004 37.32 282.08000000000004 37.32H295.91C298.17 37.32 300 35.53 300 33.32V27.71C300 27.37 299.72 27.09 299.37 27.09Z " fill="#2ecc71" fill-opacity="1" transform="matrix(1,0,0,1,-278,-17)"></path><path id="SvgjsPath1008" d="M285.07 21.98L288 19.11V31.63C288 31.97 288.28 32.25 288.63 32.25C288.98 32.25 289.26 31.97 289.26 31.63V19.11L292.2 21.98C292.32 22.1 292.47999999999996 22.16 292.64 22.16C292.8 22.16 292.96 22.1 293.08 21.98C293.33 21.740000000000002 293.33 21.35 293.08 21.11L289.08 17.18C288.96 17.07 288.8 17 288.63 17C288.46999999999997 17 288.31 17.06 288.19 17.18L284.19 21.11C283.94 21.349999999999998 283.94 21.74 284.19 21.98C284.43 22.22 284.83 22.22 285.07 21.98Z " fill="#2ecc71" fill-opacity="1" transform="matrix(1,0,0,1,-278,-17)"></path></svg>