<svg id="SvgjsSvg1008" xmlns="http://www.w3.org/2000/svg" version="1.1" xmlns:xlink="http://www.w3.org/1999/xlink" xmlns:svgjs="http://svgjs.com/svgjs" width="12" height="12" viewBox="0 0 12 12"><title>Fill 1</title><desc>Created with Avocode.</desc><defs id="SvgjsDefs1009"></defs><path id="SvgjsPath1010" d="M939.05636 286.65129L935.59154 283.18647000000004L939.09879 279.67922000000004C939.48063 279.29738000000003 939.4877 278.66806 939.10586 278.28622000000007C938.71695 277.89731000000006 938.08763 277.90438000000006 937.70579 278.28622000000007L934.19854 281.79347000000007L930.73372 278.3286500000001C930.3518799999999 277.9468100000001 929.7225599999999 277.9538800000001 929.3407199999999 278.3357200000001C928.9518099999999 278.7246300000001 928.9447399999999 279.3539500000001 929.3265799999999 279.7357900000001L932.7914 283.2006100000001L929.29122 286.7007900000001C928.9023099999999 287.0897000000001 928.9023099999999 287.7119500000001 929.29122 288.1008600000001C929.67306 288.48270000000014 930.29531 288.48270000000014 930.68422 288.0937900000001L934.1844 284.5936100000001L937.64922 288.0584300000001C938.03106 288.4402700000001 938.66038 288.4332000000001 939.04929 288.0442900000001C939.43113 287.6624500000001 939.4382 287.0331300000001 939.05636 286.65129000000013Z " fill="#5a86ba" fill-opacity="1" transform="matrix(1,0,0,1,-928,-277)"></path></svg>