<svg id="SvgjsSvg1014" xmlns="http://www.w3.org/2000/svg" version="1.1" xmlns:xlink="http://www.w3.org/1999/xlink" xmlns:svgjs="http://svgjs.com/svgjs" width="17" height="17" viewBox="0 0 17 17"><title>Fill 1</title><desc>Created with Avocode.</desc><defs id="SvgjsDefs1015"></defs><path id="SvgjsPath1016" d="M1164.22 680.16C1163.33 678.0799999999999 1161.82 676.5699999999999 1159.72 675.67C1158.68 675.2299999999999 1157.59 675 1156.44 675C1155.3 675 1154.21 675.23 1153.16 675.67C1151.0900000000001 676.5699999999999 1149.5600000000002 678.0799999999999 1148.66 680.16C1148.22 681.1999999999999 1148 682.29 1148 683.4399999999999C1148 684.5799999999999 1148.22 685.68 1148.66 686.7199999999999C1149.5600000000002 688.8 1151.0900000000001 690.3199999999999 1153.16 691.2099999999999C1154.21 691.66 1155.3000000000002 691.8899999999999 1156.44 691.8899999999999C1157.5900000000001 691.8899999999999 1158.68 691.6599999999999 1159.72 691.2099999999999C1161.82 690.3199999999999 1163.33 688.8 1164.22 686.7199999999999C1164.67 685.68 1164.9 684.5799999999999 1164.9 683.4399999999999C1164.9 682.29 1164.67 681.1999999999999 1164.22 680.16ZM1153.64 676.57C1152.91 677.49 1152.3700000000001 678.6700000000001 1152.0300000000002 680.09H1149.8200000000002C1150.63 678.51 1152.0000000000002 677.25 1153.64 676.57ZM1149.03 683.44C1149.03 682.6300000000001 1149.16 681.86 1149.3999999999999 681.11H1151.82C1151.71 681.89 1151.6499999999999 682.67 1151.6499999999999 683.44C1151.6499999999999 684.19 1151.7099999999998 684.96 1151.82 685.75H1149.3899999999999C1149.1499999999999 685 1149.03 684.22 1149.03 683.44ZM1149.82 686.76H1152.03C1152.37 688.21 1152.91 689.4 1153.6399999999999 690.3199999999999C1151.9699999999998 689.6299999999999 1150.61 688.3599999999999 1149.82 686.76ZM1155.93 690.78C1155.3300000000002 690.6 1154.76 690.16 1154.25 689.4399999999999C1153.75 688.7199999999999 1153.36 687.8199999999999 1153.09 686.76H1155.9299999999998ZM1155.93 685.75H1152.8600000000001C1152.7400000000002 684.92 1152.67 684.16 1152.67 683.44C1152.67 682.6600000000001 1152.74 681.8800000000001 1152.88 681.11H1155.93ZM1155.93 680.09H1153.0900000000001C1153.38 679.0400000000001 1153.7700000000002 678.15 1154.2700000000002 677.44C1154.7800000000002 676.72 1155.3300000000002 676.2800000000001 1155.9300000000003 676.11ZM1163.08 680.09H1160.87C1160.53 678.6700000000001 1159.9899999999998 677.49 1159.26 676.57C1160.9 677.25 1162.26 678.5100000000001 1163.08 680.09ZM1156.97 676.11C1157.57 676.28 1158.1100000000001 676.72 1158.6200000000001 677.44C1159.13 678.1500000000001 1159.5200000000002 679.0400000000001 1159.8100000000002 680.09H1156.9700000000003ZM1156.97 681.11H1160.02C1160.16 681.88 1160.22 682.66 1160.22 683.44C1160.22 684.1600000000001 1160.16 684.9200000000001 1160.04 685.75H1156.97ZM1156.97 690.78V686.76H1159.81C1159.53 687.8199999999999 1159.1399999999999 688.72 1158.6299999999999 689.4399999999999C1158.1299999999999 690.17 1157.58 690.6099999999999 1156.9699999999998 690.78ZM1159.26 690.32C1159.99 689.4000000000001 1160.53 688.21 1160.87 686.7600000000001H1163.08C1162.29 688.3600000000001 1160.9299999999998 689.6300000000001 1159.26 690.32ZM1163.51 685.75H1161.07C1161.1899999999998 684.96 1161.25 684.19 1161.25 683.44C1161.25 682.6700000000001 1161.19 681.8900000000001 1161.07 681.11H1163.49C1163.74 681.86 1163.8700000000001 682.63 1163.8700000000001 683.44C1163.8700000000001 684.22 1163.7500000000002 685 1163.5100000000002 685.75Z " fill="#5a86ba" fill-opacity="1" transform="matrix(1,0,0,1,-1148,-675)"></path></svg>