<svg id="SvgjsSvg1000" xmlns="http://www.w3.org/2000/svg" version="1.1" xmlns:xlink="http://www.w3.org/1999/xlink" xmlns:svgjs="http://svgjs.com/svgjs" width="18" height="17" viewBox="0 0 18 17"><title>Fill 8</title><desc>Created with Avocode.</desc><defs id="SvgjsDefs1001"></defs><path id="SvgjsPath1007" d="M430.39 374.01V376.25C430.39 377.27 429.58 378.09 428.57 378.09H427.42C426.41 378.09 425.59000000000003 377.27 425.59000000000003 376.25V374H420.41V376.25C420.41 377.27 419.58000000000004 378.09 418.57000000000005 378.09H417.4200000000001C416.4200000000001 378.09 415.6000000000001 377.27 415.6000000000001 376.25V374.01C414.7200000000001 374.03 414.00000000000006 374.77 414.00000000000006 375.67V388.83000000000004C414.00000000000006 389.75000000000006 414.74000000000007 390.51000000000005 415.65000000000003 390.51000000000005H430.34000000000003C431.25000000000006 390.51000000000005 431.99 389.75000000000006 431.99 388.83000000000004V375.67C431.99 374.77000000000004 431.27 374.03000000000003 430.39 374.01ZM429.86 388.01C429.86 388.40999999999997 429.54 388.73 429.14 388.73H416.82C416.42 388.73 416.09999999999997 388.41 416.09999999999997 388.01V381.21C416.09999999999997 380.82 416.41999999999996 380.48999999999995 416.82 380.48999999999995H429.14C429.53999999999996 380.48999999999995 429.86 380.81999999999994 429.86 381.21Z " fill="#9eadbc" fill-opacity="1" transform="matrix(1,0,0,1,-414,-374)"></path></svg>