<svg id="SvgjsSvg1011" xmlns="http://www.w3.org/2000/svg" version="1.1" xmlns:xlink="http://www.w3.org/1999/xlink" xmlns:svgjs="http://svgjs.com/svgjs" width="17" height="17" viewBox="0 0 17 17"><title>Fill 1</title><desc>Created with Avocode.</desc><defs id="SvgjsDefs1012"></defs><path id="SvgjsPath1013" d="M1122.17 682.35C1122.17 681.26 1123.0700000000002 680.35 1124.16 680.35C1125.25 680.35 1126.16 681.26 1126.16 682.35C1126.16 683.4300000000001 1125.25 684.34 1124.16 684.34C1123.0700000000002 684.34 1122.17 683.4300000000001 1122.17 682.35ZM1128.24 688.69H1120.08V687.97C1120.08 686.7 1122.8 685.97 1124.1599999999999 685.97C1125.5199999999998 685.97 1128.2399999999998 686.61 1128.2399999999998 687.97ZM1130.51 676H1117.82C1116.81 676 1116 676.81 1116 677.82V690.5100000000001C1116 691.5000000000001 1116.81 692.32 1117.82 692.32H1130.51C1131.5 692.32 1132.32 691.5 1132.32 690.5100000000001V677.82C1132.32 676.8100000000001 1131.5 676 1130.51 676ZM1117.82 677.82H1130.51V690.5100000000001H1117.82Z " fill="#5a86ba" fill-opacity="1" transform="matrix(1,0,0,1,-1116,-676)"></path></svg>