<svg id="SvgjsSvg1000" xmlns="http://www.w3.org/2000/svg" version="1.1" xmlns:xlink="http://www.w3.org/1999/xlink" xmlns:svgjs="http://svgjs.com/svgjs" width="27" height="25" viewBox="0 0 27 25"><title>google_calendar</title><desc>Created with Avocode.</desc><defs id="SvgjsDefs1001"></defs><path id="SvgjsPath1007" d="M1045.78 183.68C1045.78 183.39000000000001 1045.54 183.15 1045.25 183.15C1044.96 183.15 1044.72 183.39000000000001 1044.72 183.68C1044.72 183.97 1044.96 184.20000000000002 1045.25 184.20000000000002C1045.54 184.20000000000002 1045.78 183.97000000000003 1045.78 183.68ZM1035.11 183.68C1035.11 183.39000000000001 1034.87 183.15 1034.58 183.15C1034.29 183.15 1034.05 183.39000000000001 1034.05 183.68C1034.05 183.97 1034.29 184.20000000000002 1034.58 184.20000000000002C1034.87 184.20000000000002 1035.11 183.97000000000003 1035.11 183.68ZM1049.59 182C1050.1999999999998 182 1050.6899999999998 182.49 1050.6899999999998 183.1V186.76H1028.9999999999998V183.1C1028.9999999999998 182.48999999999998 1029.4899999999998 182 1030.0999999999997 182Z " fill="#e6e6e6" fill-opacity="1" transform="matrix(1,0,0,1,-1026,-182)"></path><path id="SvgjsPath1008" d="M1051.98 186.58L1050.31 195.26000000000002L1050.99 204.29000000000002C1051.04 204.96 1050.52 205.52 1049.85 205.52H1029.1499999999999C1028.4799999999998 205.52 1027.9599999999998 204.96 1028.0099999999998 204.29000000000002L1028.6899999999998 195.26000000000002L1027.0199999999998 186.58C1026.8699999999997 185.76000000000002 1027.4899999999998 185 1028.3199999999997 185H1050.6699999999996C1051.5099999999995 185 1052.1299999999997 185.76 1051.9799999999996 186.58 " fill="#3c5cb6" fill-opacity="1" transform="matrix(1,0,0,1,-1026,-182)"></path><path id="SvgjsPath1009" d="M1049.85 206.26H1029.1399999999999C1028.4799999999998 206.26 1027.9499999999998 205.7 1027.9999999999998 205.03L1028.6799999999998 196H1050.31L1050.99 205.03C1051.04 205.7 1050.51 206.26 1049.85 206.26 " fill="#538ff0" fill-opacity="1" transform="matrix(1,0,0,1,-1026,-182)"></path><path id="SvgjsPath1010" d="M1039.32 193.07C1039.32 191.38 1037.8999999999999 190 1036.1599999999999 190C1034.4199999999998 190 1032.9999999999998 191.38 1032.9999999999998 193.07H1034.0499999999997C1034.0499999999997 191.95999999999998 1034.9999999999998 191.04999999999998 1036.1599999999996 191.04999999999998C1037.3199999999997 191.04999999999998 1038.2699999999995 191.95999999999998 1038.2699999999995 193.07C1038.2699999999995 194.19 1037.3199999999995 195.1 1036.1599999999996 195.1H1035.1799999999996V196.15H1036.1599999999996C1037.3199999999997 196.15 1038.2699999999995 197.06 1038.2699999999995 198.17000000000002C1038.2699999999995 199.28000000000003 1037.3199999999995 200.19000000000003 1036.1599999999996 200.19000000000003C1034.9999999999995 200.19000000000003 1034.0499999999997 199.28000000000003 1034.0499999999997 198.17000000000002H1032.9999999999998C1032.9999999999998 199.87 1034.4199999999998 201.25000000000003 1036.1599999999999 201.25000000000003C1037.8999999999999 201.25000000000003 1039.32 199.87000000000003 1039.32 198.17000000000002C1039.32 197.11 1038.77 196.18 1037.9299999999998 195.62C1038.7699999999998 195.07 1039.32 194.13 1039.32 193.07 " fill="#fffffe" fill-opacity="1" transform="matrix(1,0,0,1,-1026,-182)"></path><path id="SvgjsPath1011" d="M1041 192.2L1041.54 193.1L1043.62 191.85999999999999V201.11999999999998H1044.6799999999998V189.99999999999997L1040.9999999999998 192.19999999999996 " fill="#fffffe" fill-opacity="1" transform="matrix(1,0,0,1,-1026,-182)"></path></svg>