<?xml version="1.0" encoding="UTF-8" standalone="no"?>
<svg width="25px" height="12px" viewBox="0 0 25 12" version="1.1" xmlns="http://www.w3.org/2000/svg" xmlns:xlink="http://www.w3.org/1999/xlink">
    <!-- Generator: Sketch 39.1 (31720) - http://www.bohemiancoding.com/sketch -->
    <title>line-chart icon active</title>
    <desc>Created with Sketch.</desc>
    <defs>
        <polygon id="path-1" points="0.00292397661 12 24.9513158 12 24.9513158 0.0178271605 0.00292397661 0.0178271605"></polygon>
    </defs>
    <g id="Page-1" stroke="none" stroke-width="1" fill="none" fill-rule="evenodd">
        <g id="dashboard-5-menu" transform="translate(-549.000000, -496.000000)">
            <g id="total-pay" transform="translate(154.000000, 475.000000)">
                <g id="line-chart-icon-active" transform="translate(395.000000, 21.000000)">
                    <g id="Group-3">
                        <mask id="mask-2" fill="white">
                            <use xlink:href="#path-1"></use>
                        </mask>
                        <g id="Clip-2"></g>
                        <path d="M22.3019981,4.27733333 C21.4450292,4.27733333 20.7477583,3.57081481 20.7477583,2.70237037 C20.7477583,1.83397531 21.4449805,1.12740741 22.3019981,1.12740741 C23.1589669,1.12740741 23.8562378,1.83392593 23.8562378,2.70237037 C23.8562378,3.57081481 23.1589669,4.27733333 22.3019981,4.27733333 Z M15.7760234,10.890321 C14.9190546,10.890321 14.2217836,10.1838025 14.2217836,9.31535802 C14.2217836,8.4468642 14.9190058,7.74039506 15.7760234,7.74039506 C16.6329922,7.74039506 17.3302632,8.4468642 17.3302632,9.31535802 C17.3302144,10.1838025 16.6329922,10.890321 15.7760234,10.890321 Z M7.6210039,2.70237037 C7.6210039,1.83397531 8.31817739,1.12740741 9.17524366,1.12740741 C10.0322612,1.12740741 10.7294834,1.83392593 10.7294834,2.70237037 C10.7294834,3.57081481 10.0322612,4.27733333 9.17524366,4.27733333 C8.31827485,4.27733333 7.6210039,3.57081481 7.6210039,2.70237037 Z M2.64926901,10.890321 C1.79225146,10.890321 1.09502924,10.1838025 1.09502924,9.31540741 C1.09502924,8.44696296 1.79225146,7.74044444 2.64926901,7.74044444 C3.50623782,7.74044444 4.20350877,8.44696296 4.20350877,9.31540741 C4.20350877,10.1838025 3.50628655,10.890321 2.64926901,10.890321 Z M22.3019981,0.0178271605 C20.8411793,0.0178271605 19.652729,1.22212346 19.652729,2.70241975 C19.652729,3.24232099 19.8113548,3.74508642 20.0830897,4.16646914 L17.220809,7.0668642 C16.804922,6.79155556 16.3087719,6.63081481 15.7759747,6.63081481 C15.2238791,6.63081481 14.71077,6.80306173 14.2859162,7.09703704 L11.3942008,4.16632099 C11.6658869,3.74493827 11.8244639,3.24222222 11.8244639,2.70241975 C11.8244639,1.22212346 10.6360136,0.0178271605 9.17519493,0.0178271605 C7.71432749,0.0178271605 6.52592593,1.22212346 6.52592593,2.70241975 C6.52592593,3.24222222 6.68445419,3.74479012 6.95609162,4.16617284 L4.09376218,7.06666667 C3.67797271,6.79140741 3.18196881,6.63076543 2.64926901,6.63076543 C1.18845029,6.63076543 0,7.83506173 0,9.31540741 C0,10.7957037 1.18845029,12 2.64926901,12 C4.11008772,12 5.29853801,10.7957037 5.29853801,9.31540741 C5.29853801,8.77550617 5.13991228,8.27274074 4.86817739,7.85130864 L7.73045809,4.9508642 C8.14634503,5.22622222 8.64249513,5.38696296 9.1752924,5.38696296 C9.70804094,5.38696296 10.204191,5.22622222 10.6200292,4.9508642 L13.527729,7.8977284 C13.2739766,8.3094321 13.1268031,8.79520988 13.1268031,9.31525926 C13.1268031,10.7956049 14.3152534,11.9998519 15.7760721,11.9998519 C17.2369396,11.9998519 18.4253411,10.7956049 18.4253411,9.31525926 C18.4253411,8.77550617 18.2668129,8.27283951 17.9951754,7.85150617 L20.8575536,4.95096296 C21.2733918,5.22622222 21.7694444,5.38691358 22.3020468,5.38691358 C23.7628655,5.38691358 24.9513158,4.18261728 24.9513158,2.70232099 C24.9513158,1.22197531 23.7628168,0.0178271605 22.3019981,0.0178271605 L22.3019981,0.0178271605 Z" id="Fill-1" fill="#1D3550" mask="url(#mask-2)"></path>
                    </g>
                </g>
            </g>
        </g>
    </g>
</svg>