<svg id="SvgjsSvg1000" xmlns="http://www.w3.org/2000/svg" version="1.1" xmlns:xlink="http://www.w3.org/1999/xlink" xmlns:svgjs="http://svgjs.com/svgjs" width="29" height="29" viewBox="0 0 29 29"><title>Fill 1</title><desc>Created with Avocode.</desc><defs id="SvgjsDefs1001"></defs><path id="SvgjsPath1007" d="M1001.28 23C993.4 23 987 29.4 987 37.28C987 45.15 993.4 51.55 1001.28 51.55C1009.15 51.55 1015.55 45.15 1015.55 37.28C1015.55 29.400000000000002 1009.15 23 1001.28 23ZM1014.29 34.15H1007.6899999999999C1006.9899999999999 32.72 1005.8299999999999 31.57 1004.4 30.869999999999997V24.259999999999998C1009.27 25.43 1013.12 29.279999999999998 1014.29 34.15ZM1014.66 37.28C1014.66 38.04 1014.5899999999999 38.78 1014.4699999999999 39.51H1008.05C1008.29 38.8 1008.41 38.059999999999995 1008.41 37.28C1008.41 36.5 1008.29 35.75 1008.05 35.050000000000004H1014.4699999999999C1014.5899999999999 35.77 1014.66 36.52 1014.66 37.28ZM1001.28 43.52C997.8299999999999 43.52 995.03 40.720000000000006 995.03 37.28C995.03 33.83 997.8299999999999 31.03 1001.28 31.03C1004.72 31.03 1007.52 33.83 1007.52 37.28C1007.52 40.72 1004.72 43.52 1001.28 43.52ZM994.5 39.51H988.08C987.96 38.78 987.89 38.04 987.89 37.28C987.89 36.52 987.96 35.77 988.08 35.050000000000004H994.5C994.27 35.75000000000001 994.14 36.50000000000001 994.14 37.28C994.14 38.06 994.27 38.800000000000004 994.5 39.51ZM1003.51 24.08V30.5C1002.81 30.27 1002.06 30.14 1001.28 30.14C1000.5 30.14 999.75 30.27 999.05 30.5V24.08C999.77 23.959999999999997 1000.52 23.889999999999997 1001.28 23.889999999999997C1002.04 23.889999999999997 1002.78 23.959999999999997 1003.51 24.08ZM998.15 24.26V30.87C996.73 31.57 995.5699999999999 32.72 994.87 34.15H988.26C989.43 29.279999999999998 993.28 25.43 998.15 24.259999999999998ZM988.26 40.4H994.87C995.57 41.83 996.73 42.989999999999995 998.15 43.69V50.29C993.28 49.12 989.43 45.269999999999996 988.26 40.4ZM999.05 50.47V44.05C999.75 44.29 1000.5 44.41 1001.28 44.41C1002.06 44.41 1002.81 44.29 1003.51 44.05V50.47C1002.78 50.589999999999996 1002.04 50.66 1001.28 50.66C1000.52 50.66 999.77 50.589999999999996 999.05 50.47ZM1004.4 50.29V43.69C1005.8299999999999 42.989999999999995 1006.99 41.83 1007.6899999999999 40.4H1014.29C1013.12 45.269999999999996 1009.27 49.12 1004.4 50.29Z " fill="#1e3550" fill-opacity="1" transform="matrix(1,0,0,1,-987,-23)"></path></svg>