<?xml version="1.0" encoding="UTF-8" standalone="no"?>
<svg width="28px" height="29px" viewBox="0 0 28 29" version="1.1" xmlns="http://www.w3.org/2000/svg" xmlns:xlink="http://www.w3.org/1999/xlink">
    <!-- Generator: Sketch 39.1 (31720) - http://www.bohemiancoding.com/sketch -->
    <title>file</title>
    <desc>Created with Sketch.</desc>
    <defs>
        <polygon id="path-1" points="27.7577391 28.96375 0.0365217391 28.96375 0.0365217391 0 13.8971304 0 27.7577391 0 27.7577391 28.96375"></polygon>
    </defs>
    <g id="Page-1" stroke="none" stroke-width="1" fill="none" fill-rule="evenodd">
        <g id="buttons" transform="translate(-905.000000, -98.000000)">
            <g id="pending-requests" transform="translate(905.000000, 86.000000)">
                <g id="file" transform="translate(0.000000, 12.000000)">
                    <path d="M18.0186087,11.1154583 C18.0186087,10.8490208 17.7994783,10.6345417 17.5310435,10.6345417 L5.35713043,10.6345417 C5.08808696,10.6345417 4.86956522,10.8490208 4.86956522,11.1154583 C4.86956522,11.3825 5.08808696,11.5993958 5.35713043,11.5993958 L17.5310435,11.5993958 C17.7994783,11.5993958 18.0186087,11.3825 18.0186087,11.1154583 Z" id="Fill-1" fill="#1D3550"></path>
                    <path d="M5.35713043,7.7339375 L10.2266957,7.7339375 C10.4951304,7.7339375 10.7142609,7.5164375 10.7142609,7.25 C10.7142609,6.9835625 10.4951304,6.7660625 10.2266957,6.7660625 L5.35713043,6.7660625 C5.08808696,6.7660625 4.86956522,6.9835625 4.86956522,7.25 C4.86956522,7.5164375 5.08808696,7.7339375 5.35713043,7.7339375 Z" id="Fill-2" fill="#1D3550"></path>
                    <path d="M14.6086957,14.5 L5.35713043,14.5 C5.08808696,14.5 4.86956522,14.7168958 4.86956522,14.9839375 C4.86956522,15.250375 5.08808696,15.467875 5.35713043,15.467875 L14.6086957,15.467875 C14.8771304,15.467875 15.0962609,15.250375 15.0962609,14.9839375 C15.0962609,14.7168958 14.8771304,14.5 14.6086957,14.5 Z" id="Fill-3" fill="#1D3550"></path>
                    <path d="M15.0962609,18.8493958 C15.0962609,18.5829583 14.8771304,18.3654583 14.6086957,18.3654583 L5.35713043,18.3654583 C5.08808696,18.3654583 4.86956522,18.5829583 4.86956522,18.8493958 C4.86956522,19.1164375 5.08808696,19.3333333 5.35713043,19.3333333 L14.6086957,19.3333333 C14.8771304,19.3333333 15.0962609,19.1164375 15.0962609,18.8493958 Z" id="Fill-4" fill="#1D3550"></path>
                    <g id="Group-9">
                        <mask id="mask-2" fill="white">
                            <use xlink:href="#path-1"></use>
                        </mask>
                        <g id="Clip-6"></g>
                        <path d="M5.35713043,22.2339375 C5.08808696,22.2339375 4.86956522,22.4508333 4.86956522,22.717875 C4.86956522,22.9843125 5.08808696,23.1987917 5.35713043,23.1987917 L13.1490435,23.1987917 C13.4174783,23.1987917 13.6335652,22.9843125 13.6335652,22.717875 C13.6335652,22.4508333 13.4174783,22.2339375 13.1490435,22.2339375 L5.35713043,22.2339375 Z" id="Fill-5" fill="#1D3550" mask="url(#mask-2)"></path>
                        <path d="M0.975130435,0.967875 L15.0962609,0.967875 L15.0962609,7.7339375 L21.9130435,7.7339375 L21.9130435,14.9839375 L22.8881739,14.9839375 L22.8881739,7.04941667 L15.7834783,0 L0,0 L0,29 L15.5838261,29 L15.5838261,28.032125 L0.975130435,28.032125 L0.975130435,0.967875 Z M16.0683478,1.649375 L21.2233913,6.7660625 L16.0683478,6.7660625 L16.0683478,1.649375 Z" id="Fill-7" fill="#1D3550" mask="url(#mask-2)"></path>
                        <path d="M27.2701739,28.032125 L26.2950435,28.032125 L26.2950435,26.8926667 C26.2950435,25.1840833 25.3966087,23.6307708 23.946087,22.717875 C25.3966087,21.8019583 26.2950435,20.24925 26.2950435,18.5406667 L26.2950435,17.4006042 L27.2701739,17.4006042 C27.5386087,17.4006042 27.7577391,17.1831042 27.7577391,16.9166667 C27.7577391,16.6502292 27.5386087,16.4327292 27.2701739,16.4327292 L17.5310435,16.4327292 C17.262,16.4327292 17.0434783,16.6502292 17.0434783,16.9166667 C17.0434783,17.1831042 17.262,17.4006042 17.5310435,17.4006042 L18.5031304,17.4006042 L18.5031304,18.5406667 C18.5031304,20.24925 19.4021739,21.8019583 20.8551304,22.717875 C19.4021739,23.6307708 18.5031304,25.1840833 18.5031304,26.8926667 L18.5031304,28.032125 L17.5310435,28.032125 C17.262,28.032125 17.0434783,28.249625 17.0434783,28.5160625 C17.0434783,28.7831042 17.262,29 17.5310435,29 L27.2701739,29 C27.5386087,29 27.7577391,28.7831042 27.7577391,28.5160625 C27.7577391,28.249625 27.5386087,28.032125 27.2701739,28.032125 Z M19.4782609,18.5406667 L19.4782609,17.4006042 L25.3229565,17.4006042 L25.3229565,18.5406667 C25.3229565,20.1453333 24.3313913,21.5850625 22.7901739,22.2339375 L22.0104348,22.2339375 C20.4673913,21.5850625 19.4782609,20.1453333 19.4782609,18.5406667 Z M19.4782609,26.8926667 C19.4782609,25.2873958 20.4673913,23.8482708 22.008,23.1987917 L22.7901739,23.1987917 C24.3313913,23.8482708 25.3205217,25.2873958 25.3205217,26.8926667 L25.3205217,28.032125 L19.4782609,28.032125 L19.4782609,26.8926667 Z" id="Fill-8" fill="#1D3550" mask="url(#mask-2)"></path>
                    </g>
                </g>
            </g>
        </g>
    </g>
</svg>