<?xml version="1.0" encoding="UTF-8" standalone="no"?>
<svg width="29px" height="29px" viewBox="0 0 29 29" version="1.1" xmlns="http://www.w3.org/2000/svg" xmlns:xlink="http://www.w3.org/1999/xlink">
    <!-- Generator: Sketch 39.1 (31720) - http://www.bohemiancoding.com/sketch -->
    <title>help hover</title>
    <desc>Created with Sketch.</desc>
    <defs>
        <polygon id="path-1" points="9.48717297e-05 20.9868351 18.9228085 20.9868351 18.9228085 0.49853249 9.48717297e-05 0.49853249 9.48717297e-05 20.9868351"></polygon>
    </defs>
    <g id="Page-1" stroke="none" stroke-width="1" fill="none" fill-rule="evenodd">
        <g id="buttons" transform="translate(-842.000000, -162.000000)">
            <g id="help-hover" transform="translate(842.000000, 162.000000)">
                <g id="Group-3" transform="translate(0.000000, 8.038564)">
                    <mask id="mask-2" fill="white">
                        <use xlink:href="#path-1"></use>
                    </mask>
                    <g id="Clip-2"></g>
                    <path d="M1.59068085,2.4097141 C1.23157447,3.71072473 0.233234043,8.88508644 4.92197872,14.8268218 C9.05046809,19.6648005 13.833617,19.9987101 16.4843404,19.7124136 C17.3352128,18.3897606 17.6048511,16.7616423 17.6696383,15.5150465 C16.4053617,14.5003324 14.4160851,13.7564561 12.8346596,13.7106981 C12.2867447,14.1756981 11.3895957,15.1526928 11.0699787,15.6139827 L10.8034255,15.996742 L10.3628723,15.8458644 C9.35280851,15.4983511 8.20885106,14.5349601 6.86621277,12.8994215 C5.52419149,11.2632646 4.80165957,9.95236037 4.65665957,8.8918883 L4.5937234,8.4293617 L5.02008511,8.24138298 C5.53344681,8.01630319 6.66321277,7.32313165 7.22470213,6.87359043 C7.48508511,5.31287234 7.1426383,3.21851729 6.39665957,1.77961436 C5.33044681,1.67202128 3.21591489,1.75549867 1.59068085,2.4097141 Z M15.0941915,21.0239362 C12.091766,21.0239362 7.77138298,20.0692021 3.96929787,15.6115093 C-0.240021277,10.2788497 -0.528170213,4.81819149 0.499170213,1.75735372 L0.58493617,1.50321144 L0.828659574,1.39190824 C2.83151064,0.478603723 5.57787234,0.376575798 6.88719149,0.597327128 L7.17102128,0.64494016 L7.31725532,0.892898936 C8.35138298,2.65334441 8.80489362,5.36048537 8.39519149,7.33055186 L8.35385106,7.52780585 L8.20453191,7.66260638 C7.73065957,8.09174202 6.70825532,8.75090426 5.97585106,9.14541223 C6.21587234,9.91649601 6.83412766,10.9120412 7.81951064,12.1141157 C8.80551064,13.3149535 9.66131915,14.1150997 10.3696596,14.4997141 C10.8972128,13.8553923 11.7406809,12.9773338 12.2515745,12.5951928 L12.413234,12.4746144 L12.614383,12.472141 C12.6365957,12.472141 12.6594255,12.4715226 12.6816383,12.4715226 C14.6795532,12.4715226 17.2019362,13.4342952 18.7080851,14.7754987 L18.9228085,14.9671875 L18.9147872,15.2553391 C18.8715957,16.7702992 18.5630851,18.9370013 17.3382979,20.6523072 L17.1821915,20.8712035 L16.9168723,20.9058311 C16.3917872,20.9744681 15.776617,21.0239362 15.0941915,21.0239362 L15.0941915,21.0239362 Z" id="Fill-1" fill="#4C637B" mask="url(#mask-2)"></path>
                </g>
                <path d="M19.3047447,28.620379 L18.8765319,27.4609707 C24.0286596,25.550266 27.4901489,20.5669747 27.4901489,15.0593218 C27.4901489,7.77081782 21.5729149,1.84144947 14.3000851,1.84144947 C10.121617,1.84144947 6.14614894,3.85851064 3.66695745,7.2365625 L2.67293617,6.50443484 C5.38412766,2.80978723 9.73104255,0.60474734 14.3000851,0.60474734 C22.2541064,0.60474734 28.7241915,7.0887766 28.7241915,15.0593218 C28.7241915,21.0820612 24.938766,26.5315891 19.3047447,28.620379" id="Fill-4" fill="#4C637B"></path>
            </g>
        </g>
    </g>
</svg>