<svg xmlns="http://www.w3.org/2000/svg" width="18" height="23" viewBox="0 0 18 23"><path fill="#5a86ba" d="M12 16.53h3.38V15H12zM3 13.53h3.38V12H3zM12 13.53h3.38V12H12zM12 8.53h3.38V7H12zM12 11.53h3.38V10H12zM3 16.53h3.38V15H3zM3.99 10.79l.62-1.19.63 1.19h1L5.15 8.93 6.17 7h-1l-.56 1.17L4.03 7h-.97l1.01 1.85L3 10.79zM7 11.53h3.38V10H7zM7 8.53h3.38V7H7z"/><path fill="#5a86ba" d="M17.76 3.8L14.17.16A.52.52 0 0 0 13.8 0H.53A.54.54 0 0 0 0 .54v21.88c0 .3.24.54.53.54h16.85c.29 0 .53-.24.53-.54V4.19a.56.56 0 0 0-.15-.39zm-3.43-1.95l1.77 1.8h-1.77zM1.06 21.88V1.03h12.2l.04 3.05c0 .33.24.6.53.6h3.05l-.03 17.2z"/><path fill="#5a86ba" d="M7 13.53h3.38V12H7zM7 16.53h3.38V15H7z"/></svg>