<svg xmlns="http://www.w3.org/2000/svg" width="43" height="42" viewBox="0 0 43 42"><path fill="#9eadbc" d="M1.33 40.25V9.8h39.84v30.45zM41.17 1.32v7.15H1.33V1.32zM.67 0C.3 0 0 .3 0 .66v40.25c0 .36.3.66.67.66h41.16c.37 0 .67-.3.67-.66V.66c0-.36-.3-.66-.67-.66z"/><path fill="#9eadbc" d="M21.31 3.41c.15-.06.32-.09.48-.09.81 0 1.47.66 1.47 1.46 0 .8-.66 1.46-1.47 1.46-.16 0-.33-.03-.48-.09-.59-.2-.98-.75-.98-1.37 0-.62.39-1.17.98-1.37zm.48 4.15a2.8 2.8 0 0 0 2.8-2.78 2.8 2.8 0 0 0-5.59 0 2.78 2.78 0 0 0 2.79 2.78zM14.79 3.32c.81 0 1.47.66 1.47 1.46a1.47 1.47 0 0 1-2.93 0c0-.8.66-1.46 1.46-1.46zm2.8 1.46a2.8 2.8 0 0 0-5.59 0 2.79 2.79 0 0 0 5.59 0zM6.79 3.32c.81 0 1.47.66 1.47 1.46a1.47 1.47 0 0 1-2.93 0c0-.8.66-1.46 1.46-1.46zm2.8 1.46a2.8 2.8 0 0 0-5.59 0 2.79 2.79 0 0 0 5.59 0zM31.53 22.07l-4.72-4.69 3.16-3.14 4.72 4.69zm-14.23 6.8l-1.02-1.01 1.63-1.62 8.17-8.13 1.03 1.01zm7.28-3.36l-5.33 5.3-1.22-1.21 9.81-9.75 1.21 1.21zm-7.3 7.98l-1.94-1.93.53-2.66 4.08 4.06zm-2.43.49l.24-1.21.97.96zm13.23-8.47L21 32.55l-1.02-1.02 9.8-9.75 1.02 1.02zm1.53-12.36l-3.47 3.45H9.52a.51.51 0 1 0 0 1.03h15.59l-7.77 7.73H9.52a.51.51 0 1 0 0 1.03h6.78l-1.11 1.1-.01.01-.02.03-.01.02-.03.02-.01.02-.01.03-.01.02-.01.02-.01.03-.01.02-.01.04v.01l-1.28 6.36H9.52a.51.51 0 0 0-.52.51c0 .28.23.51.52.51h5.08c.14 0 .26-.05.35-.14l2.26-.45 3.89-.77h.01l.04-.01.02-.01.03-.01.02-.01.02-.01.03-.02.02-.01.02-.02.02-.01.03-.03h.01l14.42-14.35a.5.5 0 0 0 0-.72l-5.45-5.42a.52.52 0 0 0-.73 0z"/><path fill="#9eadbc" d="M30.39 16.15l-1.24 1.23a.51.51 0 1 0 .37.88.5.5 0 0 0 .36-.15l1.24-1.23c.2-.2.2-.53 0-.73a.52.52 0 0 0-.73 0"/></svg>