<svg xmlns="http://www.w3.org/2000/svg" width="48" height="41" viewBox="0 0 48 41"><path fill="#9eadbc" d="M40.78 12.96C40.36 5.75 34.42 0 27.27 0a14.1 14.1 0 0 0-11.16 5.61l-.18-.09-.48-.21-.28-.1a5.4 5.4 0 0 0-.49-.15l-.28-.08a4.85 4.85 0 0 0-.55-.09l-.24-.04A7.2 7.2 0 0 0 5.6 12l.01.31A11.06 11.06 0 0 0 0 21.72C0 27.39 4.61 32 10.28 32h4.12a.8.8 0 0 0 .8-.8.8.8 0 0 0-.8-.8h-4.12a8.68 8.68 0 0 1-8.68-8.68 9.52 9.52 0 0 1 5.15-8.2l.45-.21v-.51l.01-.3.01-.14-.01-.15L7.2 12a5.6 5.6 0 0 1 6.34-5.55l.18.03c.21.04.43.08.63.15l.08.02c.23.07.46.16.68.25l.16.08A5.6 5.6 0 0 1 18.4 12c0 .44.36.8.8.8a.8.8 0 0 0 .8-.8c0-2.2-1-4.18-2.56-5.5 2.29-3 6.07-4.9 9.83-4.9 6.19 0 11.34 4.91 11.88 11.11-.82-.06-2.05-.09-3.27.1A.8.8 0 0 0 36 14.4l.12-.01c1.78-.27 3.63-.01 3.75 0a8.2 8.2 0 0 1 6.53 7.99c0 4.42-3.6 8.02-8.02 8.02H35.2a.8.8 0 0 0-.8.8c0 .44.36.8.8.8h3.18c5.3 0 9.62-4.32 9.62-9.62a9.84 9.84 0 0 0-7.22-9.42z"/><path fill="#9eadbc" d="M25.77 21.23a.95.95 0 0 0-.27-.17.8.8 0 0 0-.87.17l-6.4 6.4A.8.8 0 0 0 18.8 29c.2 0 .41-.08.56-.24l5.04-5.03V40.2c0 .44.36.8.8.8a.8.8 0 0 0 .8-.8V23.73l5.03 5.03a.8.8 0 0 0 .57.24c.2 0 .41-.08.56-.24a.79.79 0 0 0 0-1.13z"/></svg>