<svg id="SvgjsSvg1014" xmlns="http://www.w3.org/2000/svg" version="1.1" xmlns:xlink="http://www.w3.org/1999/xlink" xmlns:svgjs="http://svgjs.com/svgjs" width="11" height="11" viewBox="0 0 11 11"><title>ion-ios-arrow-thin-right - Ionicons</title><desc>Created with Avocode.</desc><defs id="SvgjsDefs1015"></defs><path id="SvgjsPath1016" d="M339.47 781.95C339.28000000000003 781.7700000000001 339.28000000000003 781.58 339.47 781.3900000000001L342.61 777.9200000000001L333.38 777.9900000000001C333.12 777.9900000000001 333 777.8700000000001 333 777.6200000000001C333 777.3700000000001 333.12 777.2400000000001 333.38 777.2400000000001L342.61 777.1700000000001L339.47 773.7C339.28000000000003 773.5200000000001 339.28000000000003 773.33 339.47 773.1400000000001C339.66 772.95 339.85 772.95 340.03000000000003 773.1400000000001C342.50000000000006 775.8600000000001 343.75000000000006 777.2300000000001 343.78000000000003 777.2700000000001C343.85 777.33 343.88000000000005 777.4200000000001 343.88000000000005 777.5500000000001C343.88000000000005 777.6700000000001 343.8500000000001 777.7700000000001 343.78000000000003 777.83L340.03000000000003 781.95C339.97 782.0200000000001 339.88000000000005 782.0500000000001 339.75000000000006 782.0500000000001C339.63000000000005 782.0500000000001 339.53000000000003 782.0200000000001 339.4700000000001 781.95Z " fill="#5a86ba" fill-opacity="1" transform="matrix(1,0,0,1,-333,-772)"></path></svg>