<?xml version="1.0" encoding="utf-8"?>
<!-- Generator: Adobe Illustrator 18.0.0, SVG Export Plug-In . SVG Version: 6.00 Build 0)  -->
<!DOCTYPE svg PUBLIC "-//W3C//DTD SVG 1.1//EN" "http://www.w3.org/Graphics/SVG/1.1/DTD/svg11.dtd">
<svg version="1.1" id="SvgjsSvg1014" xmlns:svgjs="http://svgjs.com/svgjs"
	 xmlns="http://www.w3.org/2000/svg" xmlns:xlink="http://www.w3.org/1999/xlink" x="0px" y="0px" viewBox="5.4 6.4 10 8.4"
	 enable-background="new 5.4 6.4 10 8.4" xml:space="preserve">
<title>ion-ios-arrow-thin-right - Ionicons</title>
<desc>Created with Avocode.</desc>
<path id="SvgjsPath1016" fill="#5A86BA" d="M9.4,6.5c0.2,0.2,0.2,0.4,0,0.6l-2.8,3.1l8.4-0.1c0.3,0,0.4,0.1,0.4,0.4
	s-0.1,0.4-0.4,0.4l-8.4,0.1l2.8,3.2c0.2,0.2,0.2,0.4,0,0.6s-0.4,0.2-0.6,0c-2.2-2.6-3.4-3.9-3.4-3.9c-0.1-0.1-0.1-0.2-0.1-0.3
	c0-0.1,0-0.2,0.1-0.3L9,6.5c0-0.1,0.1-0.1,0.2-0.1C9.3,6.4,9.4,6.4,9.4,6.5z"/>
</svg>
