<svg id="SvgjsSvg1000" xmlns="http://www.w3.org/2000/svg" version="1.1" xmlns:xlink="http://www.w3.org/1999/xlink" xmlns:svgjs="http://svgjs.com/svgjs" width="11" height="11" viewBox="0 0 11 11"><title>ion-ios-arrow-thin-right - Ionicons</title><desc>Created with Avocode.</desc><defs id="SvgjsDefs1001"></defs><path id="SvgjsPath1007" d="M380.47 780.95C380.28000000000003 780.7700000000001 380.28000000000003 780.58 380.47 780.3900000000001L383.61 776.9200000000001L374.38 776.9900000000001C374.12 776.9900000000001 374 776.8700000000001 374 776.6200000000001C374 776.3700000000001 374.12 776.2400000000001 374.38 776.2400000000001L383.61 776.1700000000001L380.47 772.7C380.28000000000003 772.5200000000001 380.28000000000003 772.33 380.47 772.1400000000001C380.66 771.95 380.85 771.95 381.03000000000003 772.1400000000001C383.50000000000006 774.8600000000001 384.75000000000006 776.2300000000001 384.78000000000003 776.2700000000001C384.85 776.33 384.88000000000005 776.4200000000001 384.88000000000005 776.5500000000001C384.88000000000005 776.6700000000001 384.8500000000001 776.7700000000001 384.78000000000003 776.83L381.03000000000003 780.95C380.97 781.0200000000001 380.88000000000005 781.0500000000001 380.75000000000006 781.0500000000001C380.63000000000005 781.0500000000001 380.53000000000003 781.0200000000001 380.4700000000001 780.95Z " fill="#ffffff" fill-opacity="1" transform="matrix(1,0,0,1,-374,-771)"></path></svg>