<svg id="SvgjsSvg1000" xmlns="http://www.w3.org/2000/svg" version="1.1" xmlns:xlink="http://www.w3.org/1999/xlink" xmlns:svgjs="http://svgjs.com/svgjs" width="13" height="13" viewBox="0 0 13 13"><title>Fill 4</title><desc>Created with Avocode.</desc><defs id="SvgjsDefs1001"></defs><path id="SvgjsPath1007" d="M1280.32 189.32C1279.8899999999999 188.89 1279.2 188.89 1278.77 189.32L1274.82 193.17L1270.8799999999999 189.32C1270.4499999999998 188.89 1269.7499999999998 188.89 1269.32 189.32C1268.8899999999999 189.73999999999998 1268.8899999999999 190.42 1269.32 190.84L1273.27 194.69L1269.32 198.55C1268.8899999999999 198.97 1268.8899999999999 199.65 1269.32 200.07000000000002C1269.54 200.28000000000003 1269.82 200.39000000000001 1270.1 200.39000000000001C1270.3799999999999 200.39000000000001 1270.6699999999998 200.28 1270.8799999999999 200.07000000000002L1274.82 196.22000000000003L1278.77 200.07000000000002C1278.98 200.28000000000003 1279.26 200.39000000000001 1279.55 200.39000000000001C1279.83 200.39000000000001 1280.11 200.28 1280.32 200.07000000000002C1280.76 199.65000000000003 1280.76 198.97000000000003 1280.32 198.55L1276.3799999999999 194.69L1280.32 190.84C1280.76 190.42000000000002 1280.76 189.74 1280.32 189.32Z " fill="#4c637b" fill-opacity="1" transform="matrix(1,0,0,1,-1268,-188)"></path></svg>