<?xml version="1.0" encoding="UTF-8" standalone="no"?>
<svg width="15px" height="16px" viewBox="0 0 15 16" version="1.1" xmlns="http://www.w3.org/2000/svg" xmlns:xlink="http://www.w3.org/1999/xlink">
    <!-- Generator: Sketch 39.1 (31720) - http://www.bohemiancoding.com/sketch -->
    <title>flash-2</title>
    <desc>Created with Sketch.</desc>
    <defs>
        <polygon id="path-1" points="0.0430048907 0.41707606 0.0430048907 19.3514841 9.63550541 19.3514841 9.63550541 0.41707606 0.0430048907 0.41707606"></polygon>
    </defs>
    <g id="Page-1" stroke="none" stroke-width="1" fill="none" fill-rule="evenodd">
        <g id="buttons" transform="translate(-416.000000, -227.000000)">
            <g id="livestream-btn-active" transform="translate(391.000000, 213.000000)">
                <g id="flash-2" transform="translate(32.817547, 22.169138) rotate(24.000000) translate(-32.817547, -22.169138) translate(27.817547, 12.169138)">
                    <mask id="mask-2" fill="white">
                        <use xlink:href="#path-1"></use>
                    </mask>
                    <g id="Clip-2"></g>
                    <path d="M1.10307545,19.3514841 C1.05290307,19.3514841 1.00201395,19.3407329 0.957575567,19.3127797 C0.840028866,19.2425384 0.7869895,19.0970385 0.83429488,18.9680238 L3.82743528,10.7340207 L0.207140224,9.7011866 C0.114679709,9.67538367 0.0422881426,9.6029921 0.0114679709,9.51053159 C-0.0164852081,9.41807107 0.00573398543,9.31485933 0.0673743288,9.24175102 L7.41117617,0.517492185 C7.4979027,0.414280447 7.64626957,0.388477513 7.76381627,0.450117856 C7.88422997,0.514625192 7.94300332,0.652240843 7.90358217,0.78340576 L5.7870248,8.1272076 L9.42667205,9.16362547 C9.52199956,9.19157865 9.59510787,9.26397021 9.62306105,9.35643073 C9.65101423,9.45175824 9.63166203,9.55281973 9.56715469,9.62807829 L1.32168364,19.2511393 C1.26577728,19.3185137 1.18406799,19.3514841 1.10307545,19.3514841 Z" id="Fill-1" fill="#FFFFFF" mask="url(#mask-2)"></path>
                </g>
            </g>
        </g>
    </g>
</svg>