<svg id="SvgjsSvg1000" xmlns="http://www.w3.org/2000/svg" version="1.1" xmlns:xlink="http://www.w3.org/1999/xlink" xmlns:svgjs="http://svgjs.com/svgjs" width="14" height="14" viewBox="0 0 14 14"><title>Fill 1</title><desc>Created with Avocode.</desc><defs id="SvgjsDefs1001"></defs><path id="SvgjsPath1007" d="M644.38 44H631.48C631.21 44 631 44.22 631 44.47C631 44.73 631.22 44.949999999999996 631.48 44.949999999999996H644.39C644.66 44.949999999999996 644.88 44.73 644.88 44.47C644.88 44.22 644.65 44 644.38 44Z " fill="#2ecc71" fill-opacity="1" transform="matrix(1,0,0,1,-631,-31)"></path><path id="SvgjsPath1008" d="M631.01 40.21L631 42.46C631 42.58 631.05 42.71 631.14 42.800000000000004C631.24 42.89000000000001 631.35 42.940000000000005 631.48 42.940000000000005L633.77 42.93000000000001C633.9 42.93000000000001 634.02 42.88000000000001 634.11 42.790000000000006L642.01 35.06C642.2 34.870000000000005 642.2 34.57 642.01 34.38L639.75 32.14C639.56 31.95 639.25 31.95 639.05 32.14L637.4699999999999 33.7L631.1499999999999 39.870000000000005C631.0699999999998 39.96000000000001 631.0099999999999 40.080000000000005 631.0099999999999 40.21000000000001ZM639.41 33.15L641 34.71L640.1 35.59L638.51 34.03ZM631.99 40.41L637.8100000000001 34.709999999999994L639.4100000000001 36.269999999999996L633.58 41.959999999999994L631.98 41.96999999999999Z " fill="#2ecc71" fill-opacity="1" transform="matrix(1,0,0,1,-631,-31)"></path></svg>