<svg id="SvgjsSvg1016" xmlns="http://www.w3.org/2000/svg" version="1.1" xmlns:xlink="http://www.w3.org/1999/xlink" xmlns:svgjs="http://svgjs.com/svgjs" width="14" height="14" viewBox="0 0 14 14"><title>edit</title><desc>Created with Avocode.</desc><defs id="SvgjsDefs1017"></defs><path id="SvgjsPath1018" d="M519.38 44L506.48 44C506.21000000000004 44 506 44.22 506 44.47C506 44.73 506.22 44.949999999999996 506.48 44.949999999999996L519.39 44.949999999999996C519.66 44.949999999999996 519.88 44.73 519.88 44.47C519.88 44.22 519.65 44 519.38 44Z " fill="#2ecc71" fill-opacity="1" transform="matrix(1,0,0,1,-506,-31)"></path><path id="SvgjsPath1019" d="M506.01 40.21L506 42.46C506 42.58 506.05 42.71 506.14 42.800000000000004C506.24 42.89000000000001 506.34999999999997 42.940000000000005 506.47999999999996 42.940000000000005L508.77 42.93000000000001C508.9 42.93000000000001 509.02 42.88000000000001 509.10999999999996 42.790000000000006L517.01 35.06C517.2 34.870000000000005 517.2 34.57 517.01 34.38L514.75 32.14C514.56 31.95 514.25 31.95 514.05 32.14L512.4699999999999 33.7L506.1499999999999 39.870000000000005C506.06999999999994 39.96000000000001 506.00999999999993 40.080000000000005 506.00999999999993 40.21000000000001ZM514.41 33.15L516 34.71L515.1 35.59L513.51 34.03ZM506.99 40.41L512.8100000000001 34.709999999999994L514.4100000000001 36.269999999999996L508.5800000000001 41.959999999999994L506.9800000000001 41.96999999999999Z " fill="#2ecc71" fill-opacity="1" transform="matrix(1,0,0,1,-506,-31)"></path></svg>