<svg id="SvgjsSvg1025" xmlns="http://www.w3.org/2000/svg" version="1.1" xmlns:xlink="http://www.w3.org/1999/xlink" xmlns:svgjs="http://svgjs.com/svgjs" width="12" height="12" viewBox="0 0 12 12"><title>Group 3</title><desc>Created with Avocode.</desc><defs id="SvgjsDefs1026"></defs><path id="SvgjsPath1027" d="M333.98 205.83C337.27000000000004 205.83 339.95000000000005 203.17000000000002 339.95000000000005 199.91000000000003C339.95000000000005 196.66000000000003 337.27000000000004 194.00000000000003 333.98 194.00000000000003C330.68 194.00000000000003 328 196.66000000000003 328 199.91000000000003C328 203.17000000000002 330.68 205.83 333.98 205.83ZM333.98 194.83C336.8 194.83 339.12 197.10000000000002 339.12 199.91000000000003C339.12 202.72000000000003 336.82 205.00000000000003 333.98 205.00000000000003C331.14000000000004 205.00000000000003 328.84000000000003 202.71000000000004 328.84000000000003 199.91000000000003C328.84000000000003 197.11 331.15000000000003 194.83 333.98 194.83Z " fill="#e15656" fill-opacity="1" transform="matrix(1,0,0,1,-328,-194)"></path><path id="SvgjsPath1028" d="M331.42 199.84H336.93C337.16 199.84 337.35 199.65 337.35 199.42000000000002C337.35 199.18 337.16 199.00000000000003 336.93 199.00000000000003H331.42C331.19 199.00000000000003 331 199.18000000000004 331 199.42000000000002C331 199.65 331.2 199.84 331.42 199.84Z " fill="#e15656" fill-opacity="1" transform="matrix(1,0,0,1,-328,-194)"></path></svg>