<?xml version="1.0" encoding="utf-8"?>
<!-- Generator: Adobe Illustrator 18.0.0, SVG Export Plug-In . SVG Version: 6.00 Build 0)  -->
<!DOCTYPE svg PUBLIC "-//W3C//DTD SVG 1.1//EN" "http://www.w3.org/Graphics/SVG/1.1/DTD/svg11.dtd">
<svg version="1.1" id="SvgjsSvg1025" xmlns:svgjs="http://svgjs.com/svgjs"
	 xmlns="http://www.w3.org/2000/svg" xmlns:xlink="http://www.w3.org/1999/xlink" x="0px" y="0px" viewBox="0 0 12 12"
	 enable-background="new 0 0 12 12" xml:space="preserve">
<title>Group 3</title>
<desc>Created with Avocode.</desc>
<g>
	<path id="SvgjsPath1027" fill="#E03535" d="M6,11.9c3.3,0,6-2.7,6-5.9c0-3.3-2.7-5.9-6-5.9C2.7,0.1,0,2.7,0,6
		C0,9.3,2.7,11.9,6,11.9z M6,0.9c2.8,0,5.1,2.3,5.1,5.1S8.8,11.1,6,11.1S0.9,8.8,0.9,6S3.2,0.9,6,0.9z"/>
	<path id="SvgjsPath1028" fill="#E03535" d="M3.2,6.4h5.5C9,6.4,9.2,6.2,9.2,6c0-0.2-0.2-0.4-0.4-0.4H3.2C3,5.6,2.8,5.8,2.8,6
		C2.8,6.2,3,6.4,3.2,6.4z"/>
	<rect fill="none" width="12" height="12"/>
</g>
</svg>
