<svg id="SvgjsSvg1014" xmlns="http://www.w3.org/2000/svg" version="1.1" xmlns:xlink="http://www.w3.org/1999/xlink" xmlns:svgjs="http://svgjs.com/svgjs" width="10" height="10" viewBox="0 0 10 10"><title>navigation</title><desc>Created with Avocode.</desc><defs id="SvgjsDefs1015"></defs><path id="SvgjsPath1016" d="M559.88 394.05C559.83 394 559.75 393.98 559.68 394.02000000000004L551.0999999999999 397.95000000000005C551.0299999999999 397.99000000000007 550.9899999999999 398.06000000000006 550.9999999999999 398.13000000000005C551.0099999999999 398.21000000000004 551.0699999999999 398.27000000000004 551.1399999999999 398.28000000000003L554.9899999999999 398.93L555.43 402.57C555.4399999999999 402.64 555.5 402.7 555.5799999999999 402.71C555.5899999999999 402.71999999999997 555.5999999999999 402.71999999999997 555.6099999999999 402.71999999999997C555.6699999999998 402.71999999999997 555.7299999999999 402.67999999999995 555.7599999999999 402.61999999999995L559.9099999999999 394.24999999999994C559.9399999999998 394.17999999999995 559.9299999999998 394.10999999999996 559.8799999999999 394.04999999999995Z " fill="#ffffff" fill-opacity="1" transform="matrix(1,0,0,1,-550,-393)"></path></svg>