<svg id="SvgjsSvg1008" xmlns="http://www.w3.org/2000/svg" version="1.1" xmlns:xlink="http://www.w3.org/1999/xlink" xmlns:svgjs="http://svgjs.com/svgjs" width="14" height="13" viewBox="0 0 14 13"><title>navigation</title><desc>Created with Avocode.</desc><defs id="SvgjsDefs1009"></defs><path id="SvgjsPath1010" d="M384.93 679.07C384.87 679 384.76 678.98 384.67 679.0200000000001L373.13 684.32C373.04 684.36 372.99 684.46 373 684.5600000000001C373.02 684.6600000000001 373.09 684.74 373.19 684.7600000000001L378.37 685.6200000000001L378.96 690.5100000000001C378.96999999999997 690.6100000000001 379.04999999999995 690.7000000000002 379.15 690.7100000000002C379.15999999999997 690.7200000000001 379.17999999999995 690.7200000000001 379.19 690.7200000000001C379.28 690.7200000000001 379.36 690.6700000000002 379.4 690.5900000000001L384.97999999999996 679.3400000000001C385.02 679.2500000000001 384.99999999999994 679.1400000000001 384.92999999999995 679.0700000000002Z " fill="#5a86ba" fill-opacity="1" transform="matrix(1,0,0,1,-372,-678)"></path></svg>