<svg id="SvgjsSvg1000" xmlns="http://www.w3.org/2000/svg" version="1.1" xmlns:xlink="http://www.w3.org/1999/xlink" xmlns:svgjs="http://svgjs.com/svgjs" width="11" height="14" viewBox="0 0 11 14"><title>notebook</title><desc>Created with Avocode.</desc><defs id="SvgjsDefs1001"></defs><path id="SvgjsPath1007" d="M1245.5 804.13H1243.67V803.46C1243.67 803.21 1243.46 803 1243.19 803C1242.93 803 1242.71 803.21 1242.71 803.46V804.13H1240.97V803.46C1240.97 803.21 1240.76 803 1240.49 803C1240.22 803 1240.01 803.21 1240.01 803.46V804.13H1238.27V803.46C1238.27 803.21 1238.05 803 1237.79 803C1237.52 803 1237.31 803.21 1237.31 803.46V804.13H1235.48C1235.22 804.13 1235 804.34 1235 804.59V816.5300000000001C1235 816.7800000000001 1235.22 816.9800000000001 1235.48 816.9800000000001H1245.5C1245.76 816.9800000000001 1245.98 816.7800000000001 1245.98 816.5300000000001V804.59C1245.98 804.34 1245.76 804.13 1245.5 804.13ZM1245.02 816.07H1235.96V805.0500000000001H1237.31V805.59C1237.31 805.84 1237.52 806.0500000000001 1237.79 806.0500000000001C1238.05 806.0500000000001 1238.27 805.84 1238.27 805.59V805.0500000000001H1240.01V805.59C1240.01 805.84 1240.22 806.0500000000001 1240.49 806.0500000000001C1240.76 806.0500000000001 1240.97 805.84 1240.97 805.59V805.0500000000001H1242.71V805.59C1242.71 805.84 1242.93 806.0500000000001 1243.19 806.0500000000001C1243.46 806.0500000000001 1243.67 805.84 1243.67 805.59V805.0500000000001H1245.02Z " fill="#2ecc71" fill-opacity="1" transform="matrix(1,0,0,1,-1235,-803)"></path><path id="SvgjsPath1008" d="M1243.19 808H1237.48C1237.22 808 1237 808.21 1237 808.46C1237 808.71 1237.22 808.9200000000001 1237.48 808.9200000000001H1243.19C1243.46 808.9200000000001 1243.68 808.71 1243.68 808.46C1243.68 808.21 1243.46 808 1243.19 808Z " fill="#2ecc71" fill-opacity="1" transform="matrix(1,0,0,1,-1235,-803)"></path><path id="SvgjsPath1009" d="M1243.19 811H1237.48C1237.22 811 1237 811.21 1237 811.46C1237 811.71 1237.22 811.9200000000001 1237.48 811.9200000000001H1243.19C1243.46 811.9200000000001 1243.68 811.71 1243.68 811.46C1243.68 811.21 1243.46 811 1243.19 811Z " fill="#2ecc71" fill-opacity="1" transform="matrix(1,0,0,1,-1235,-803)"></path><path id="SvgjsPath1010" d="M1243.19 813H1237.48C1237.22 813 1237 813.21 1237 813.46C1237 813.71 1237.22 813.9200000000001 1237.48 813.9200000000001H1243.19C1243.46 813.9200000000001 1243.68 813.71 1243.68 813.46C1243.68 813.21 1243.46 813 1243.19 813Z " fill="#2ecc71" fill-opacity="1" transform="matrix(1,0,0,1,-1235,-803)"></path></svg>