<?xml version="1.0" encoding="utf-8"?>
<!-- Generator: Adobe Illustrator 18.0.0, SVG Export Plug-In . SVG Version: 6.00 Build 0)  -->
<!DOCTYPE svg PUBLIC "-//W3C//DTD SVG 1.1//EN" "http://www.w3.org/Graphics/SVG/1.1/DTD/svg11.dtd">
<svg version="1.1" id="SvgjsSvg1000" xmlns:svgjs="http://svgjs.com/svgjs"
	 xmlns="http://www.w3.org/2000/svg" xmlns:xlink="http://www.w3.org/1999/xlink" x="0px" y="0px" viewBox="0 0 46 14"
	 enable-background="new 0 0 46 14" xml:space="preserve">
<title>Rectangle 6</title>
<desc>Created with Avocode.</desc>
<g>
	<path id="SvgjsPath1007" fill="#37BDBD" d="M0,6c0-3.3,2.7-6,6-6h34c3.3,0,6,2.7,6,6v2c0,3.3-2.7,6-6,6H0l0,0V6z"/>
	<g>
		<path fill="#FFFFFF" d="M14.6,6.3c0,1.9-1.3,2.7-2.5,2.7c-1.4,0-2.4-1-2.4-2.6c0-1.7,1.1-2.7,2.5-2.7C13.6,3.7,14.6,4.7,14.6,6.3z
			 M10.6,6.3c0,1.1,0.6,1.9,1.5,1.9c0.9,0,1.5-0.8,1.5-2c0-0.9-0.4-1.9-1.5-1.9C11.1,4.4,10.6,5.4,10.6,6.3z"/>
		<path fill="#FFFFFF" d="M15.8,5.2c0-0.5,0-0.9,0-1.4h0.8l0.1,0.8h0c0.2-0.5,0.8-0.9,1.7-0.9c0.7,0,1.8,0.4,1.8,2.1v3h-0.9V5.9
			c0-0.8-0.3-1.5-1.2-1.5c-0.6,0-1.1,0.4-1.2,0.9c0,0.1-0.1,0.3-0.1,0.4v3h-0.9V5.2z"/>
		<path fill="#FFFFFF" d="M21.6,1.4h0.9v7.4h-0.9V1.4z"/>
		<path fill="#FFFFFF" d="M25,2.4c0,0.3-0.2,0.6-0.6,0.6c-0.3,0-0.6-0.2-0.6-0.6c0-0.3,0.2-0.6,0.6-0.6C24.8,1.8,25,2.1,25,2.4z
			 M24,8.8v-5h0.9v5H24z"/>
		<path fill="#FFFFFF" d="M26.4,5.2c0-0.5,0-0.9,0-1.4h0.8l0.1,0.8h0c0.2-0.5,0.8-0.9,1.7-0.9c0.7,0,1.8,0.4,1.8,2.1v3h-0.9V5.9
			c0-0.8-0.3-1.5-1.2-1.5c-0.6,0-1.1,0.4-1.2,0.9c0,0.1-0.1,0.3-0.1,0.4v3h-0.9V5.2z"/>
		<path fill="#FFFFFF" d="M32.7,6.5c0,1.2,0.8,1.7,1.7,1.7c0.7,0,1.1-0.1,1.4-0.3L36,8.6c-0.3,0.1-0.9,0.3-1.7,0.3
			c-1.5,0-2.5-1-2.5-2.5c0-1.5,0.9-2.7,2.4-2.7c1.6,0,2.1,1.4,2.1,2.4c0,0.2,0,0.3,0,0.4H32.7z M35.4,5.8c0-0.6-0.2-1.5-1.3-1.5
			c-0.9,0-1.3,0.9-1.4,1.5H35.4z"/>
	</g>
</g>
</svg>
