<svg id="SvgjsSvg1000" xmlns="http://www.w3.org/2000/svg" version="1.1" xmlns:xlink="http://www.w3.org/1999/xlink" xmlns:svgjs="http://svgjs.com/svgjs" width="27" height="35" viewBox="0 0 27 35"><title>pdf</title><desc>Created with Avocode.</desc><defs id="SvgjsDefs1001"></defs><path id="SvgjsPath1007" d="M1068.81 770H1050.8999999999999C1050.3999999999999 770 1049.9999999999998 770.4 1049.9999999999998 771.17V803.48C1049.9999999999998 803.69 1050.3999999999999 804.09 1050.8999999999999 804.09H1075.6299999999999C1076.1299999999999 804.09 1076.54 803.69 1076.54 803.48V777.9C1076.54 777.47 1076.48 777.34 1076.3799999999999 777.24L1069.1999999999998 770.16C1069.1 770.06 1068.9599999999998 770 1068.8099999999997 770Z " fill="#e9e9e0" fill-opacity="1" transform="matrix(1,0,0,1,-1050,-770)"></path><path id="SvgjsPath1008" d="M1069 770V777.21H1076.31Z " fill="#d9d7ca" fill-opacity="1" transform="matrix(1,0,0,1,-1050,-770)"></path><path id="SvgjsPath1009" d="M1058.29 790.08C1058.08 790.08 1057.87 790.01 1057.7 789.88C1057.05 789.4 1056.97 788.88 1057.01 788.52C1057.12 787.52 1058.36 786.49 1060.7 785.43C1061.63 783.42 1062.51 780.9499999999999 1063.04 778.89C1062.42 777.56 1061.82 775.85 1062.26 774.84C1062.42 774.49 1062.6 774.22 1062.96 774.1C1063.1000000000001 774.0600000000001 1063.46 774 1063.5900000000001 774C1063.9 774 1064.17 774.4 1064.3700000000001 774.64C1064.5500000000002 774.87 1064.96 775.35 1064.14 778.78C1064.97 780.47 1066.15 782.1999999999999 1067.2800000000002 783.38C1068.0900000000001 783.24 1068.7800000000002 783.16 1069.3500000000001 783.16C1070.3200000000002 783.16 1070.9 783.39 1071.14 783.8399999999999C1071.3400000000001 784.2199999999999 1071.26 784.66 1070.9 785.16C1070.5500000000002 785.63 1070.0800000000002 785.88 1069.5300000000002 785.88C1068.7800000000002 785.88 1067.9100000000003 785.42 1066.9300000000003 784.49C1065.1800000000003 784.85 1063.1400000000003 785.5 1061.4800000000002 786.21C1060.9700000000003 787.2900000000001 1060.4700000000003 788.1600000000001 1060.0100000000002 788.8000000000001C1059.38 789.6700000000001 1058.8300000000002 790.08 1058.2900000000002 790.08ZM1059.94 786.96C1058.6200000000001 787.69 1058.0800000000002 788.2900000000001 1058.04 788.63C1058.03 788.6899999999999 1058.02 788.83 1058.31 789.05C1058.3999999999999 789.02 1058.9299999999998 788.78 1059.94 786.9599999999999ZM1068.35 784.25C1068.86 784.64 1068.98 784.83 1069.31 784.83C1069.45 784.83 1069.86 784.82 1070.05 784.5600000000001C1070.1399999999999 784.4300000000001 1070.18 784.35 1070.2 784.3100000000001C1070.1200000000001 784.2700000000001 1070.02 784.19 1069.47 784.19C1069.16 784.19 1068.77 784.2 1068.3500000000001 784.25ZM1063.74 780.25C1063.3 781.75 1062.72 783.38 1062.09 784.85C1063.3799999999999 784.36 1064.78 783.9300000000001 1066.1 783.62C1065.27 782.67 1064.4299999999998 781.48 1063.74 780.25ZM1063.37 775.1C1063.31 775.12 1062.55 776.1700000000001 1063.4299999999998 777.0600000000001C1064.0099999999998 775.7700000000001 1063.3899999999999 775.09 1063.37 775.1Z " fill="#cc4b4c" fill-opacity="1" transform="matrix(1,0,0,1,-1050,-770)"></path><path id="SvgjsPath1010" d="M1075.63 804.35H1050.9C1050.4 804.35 1050 803.95 1050 803.46V794H1076.54V803.46C1076.54 803.95 1076.1299999999999 804.35 1075.6299999999999 804.35Z " fill="#cc4b4c" fill-opacity="1" transform="matrix(1,0,0,1,-1050,-770)"></path><path id="SvgjsPath1011" d="M1057.01 802.13H1056V796H1057.79C1058.05 796 1058.31 796.04 1058.57 796.12C1058.83 796.21 1059.06 796.33 1059.27 796.5C1059.47 796.67 1059.6399999999999 796.87 1059.77 797.1C1059.8899999999999 797.34 1059.96 797.6 1059.96 797.9C1059.96 798.2099999999999 1059.9 798.49 1059.8 798.74C1059.69 798.99 1059.54 799.21 1059.35 799.38C1059.1599999999999 799.55 1058.9299999999998 799.68 1058.6599999999999 799.78C1058.3899999999999 799.87 1058.09 799.92 1057.7599999999998 799.92H1057.0099999999998ZM1057.01 796.76V799.1899999999999H1057.94C1058.06 799.1899999999999 1058.19 799.17 1058.31 799.1199999999999C1058.4299999999998 799.0799999999999 1058.54 799.0099999999999 1058.6399999999999 798.9199999999998C1058.7399999999998 798.8299999999998 1058.82 798.6899999999998 1058.8899999999999 798.5299999999999C1058.9499999999998 798.3599999999999 1058.9799999999998 798.1499999999999 1058.9799999999998 797.8999999999999C1058.9799999999998 797.7999999999998 1058.9599999999998 797.6799999999998 1058.9399999999998 797.5499999999998C1058.9099999999999 797.4199999999998 1058.85 797.2999999999998 1058.7599999999998 797.1799999999998C1058.6799999999998 797.0599999999998 1058.5499999999997 796.9599999999998 1058.3999999999999 796.8799999999999C1058.2399999999998 796.7999999999998 1058.03 796.7599999999999 1057.7699999999998 796.7599999999999Z " fill="#ffffff" fill-opacity="1" transform="matrix(1,0,0,1,-1050,-770)"></path><path id="SvgjsPath1012" d="M1066.02 798.9C1066.02 799.4 1065.97 799.8299999999999 1065.86 800.1899999999999C1065.75 800.55 1065.61 800.8499999999999 1065.4399999999998 801.0899999999999C1065.2699999999998 801.3299999999999 1065.08 801.5199999999999 1064.87 801.66C1064.6599999999999 801.8 1064.4499999999998 801.9 1064.26 801.9699999999999C1064.06 802.04 1063.8799999999999 802.0799999999999 1063.72 802.0999999999999C1063.56 802.1199999999999 1063.44 802.1299999999999 1063.3500000000001 802.1299999999999H1061.0000000000002V795.9999999999999H1062.8700000000001C1063.4 795.9999999999999 1063.8600000000001 796.0799999999999 1064.2500000000002 796.2399999999999C1064.6500000000003 796.4099999999999 1064.9800000000002 796.6299999999999 1065.2400000000002 796.8999999999999C1065.5000000000002 797.1699999999998 1065.7000000000003 797.4799999999999 1065.8300000000002 797.8199999999998C1065.9600000000003 798.1699999999998 1066.0200000000002 798.5299999999999 1066.0200000000002 798.8999999999999ZM1063.02 801.4C1063.7 801.4 1064.2 801.18 1064.5 800.75C1064.81 800.32 1064.96 799.69 1064.96 798.87C1064.96 798.62 1064.93 798.36 1064.8700000000001 798.11C1064.8000000000002 797.86 1064.68 797.64 1064.5100000000002 797.44C1064.3300000000002 797.23 1064.0900000000001 797.07 1063.7800000000002 796.94C1063.4800000000002 796.82 1063.0900000000001 796.7600000000001 1062.6000000000001 796.7600000000001H1062.0100000000002V801.4000000000001Z " fill="#ffffff" fill-opacity="1" transform="matrix(1,0,0,1,-1050,-770)"></path><path id="SvgjsPath1013" d="M1068.03 796.76V798.6899999999999H1070.6299999999999V799.3699999999999H1068.03V802.1299999999999H1067V795.9999999999999H1070.89V796.7599999999999Z " fill="#ffffff" fill-opacity="1" transform="matrix(1,0,0,1,-1050,-770)"></path></svg>