<svg id="SvgjsSvg1119" xmlns="http://www.w3.org/2000/svg" version="1.1" xmlns:xlink="http://www.w3.org/1999/xlink" xmlns:svgjs="http://svgjs.com/svgjs" width="40" height="40" viewBox="0 0 40 40"><title>Rectangle 15</title><desc>Created with Avocode.</desc><defs id="SvgjsDefs1120"></defs><path id="SvgjsPath1121" d="M664 292H704V332Z " fill="#2ecc71" fill-opacity="1" transform="matrix(1,0,0,1,-664,-292)"></path><path id="SvgjsPath1122" d="M701.38 309H688.48C688.21 309 688 309.22 688 309.47C688 309.73 688.22 309.95000000000005 688.48 309.95000000000005H701.39C701.66 309.95000000000005 701.88 309.73 701.88 309.47C701.88 309.22 701.65 309 701.38 309Z " fill="#ffffff" fill-opacity="1" transform="matrix(1,0,0,1,-664,-292)"></path><path id="SvgjsPath1123" d="M688.01 305.21L688 307.46C688 307.58 688.05 307.71 688.14 307.79999999999995C688.24 307.88999999999993 688.35 307.93999999999994 688.48 307.93999999999994L690.77 307.92999999999995C690.9 307.92999999999995 691.02 307.87999999999994 691.11 307.78999999999996L699.01 300.05999999999995C699.2 299.86999999999995 699.2 299.56999999999994 699.01 299.37999999999994L696.75 297.13999999999993C696.56 296.94999999999993 696.25 296.94999999999993 696.05 297.13999999999993L694.4699999999999 298.69999999999993L688.1499999999999 304.86999999999995C688.0699999999998 304.9599999999999 688.0099999999999 305.0799999999999 688.0099999999999 305.2099999999999ZM696.41 298.15L698 299.71L697.1 300.59L695.51 299.03ZM688.99 305.41L694.8100000000001 299.71000000000004L696.4100000000001 301.27000000000004L690.58 306.96000000000004L688.98 306.97Z " fill="#ffffff" fill-opacity="1" transform="matrix(1,0,0,1,-664,-292)"></path></svg>