<?xml version="1.0" encoding="utf-8"?>
<!-- Generator: Adobe Illustrator 18.0.0, SVG Export Plug-In . SVG Version: 6.00 Build 0)  -->
<!DOCTYPE svg PUBLIC "-//W3C//DTD SVG 1.1//EN" "http://www.w3.org/Graphics/SVG/1.1/DTD/svg11.dtd">
<svg version="1.1" id="Слой_1" xmlns="http://www.w3.org/2000/svg" xmlns:xlink="http://www.w3.org/1999/xlink" x="0px" y="0px"
	 viewBox="0 0 21 21" enable-background="new 0 0 21 21" xml:space="preserve">
<g>
	<g>
		<path id="SvgjsPath1020_1_" fill="#23BC64" d="M10.5,1.5C8.9,1.5,7.4,2,6,2.8C4,3.9,2.5,5.9,1.8,8.2S1.5,12.9,2.7,15
			c1.2,2.1,3.1,3.6,5.4,4.2s4.7,0.3,6.8-0.9c2.1-1.2,3.6-3.1,4.2-5.4s0.3-4.7-0.9-6.8c-1.2-2.1-3.1-3.6-5.4-4.2
			C12,1.6,11.3,1.5,10.5,1.5z M7.9,20.2c-2.6-0.7-4.7-2.3-6.1-4.7c-1.3-2.3-1.7-5-1-7.6c0.7-2.6,2.3-4.7,4.7-6.1
			c2.3-1.3,5-1.7,7.6-1c2.6,0.7,4.7,2.3,6.1,4.7c1.3,2.3,1.7,5,1,7.6c-0.7,2.6-2.3,4.7-4.7,6.1c-1.5,0.9-3.3,1.3-5,1.3
			C9.7,20.5,8.8,20.4,7.9,20.2z"/>
		<path id="SvgjsPath1023_1_" fill="#23BC64" d="M8.3,6.7C8.3,6.7,8.3,6.7,8.3,6.7C8.2,6.8,8.2,6.8,8.3,6.7l0,7.5c0,0,0,0,0,0
			c0,0,0,0,0,0l6.4-3.7c0,0,0,0,0,0c0,0,0,0,0,0L8.3,6.7C8.3,6.7,8.3,6.7,8.3,6.7z"/>
	</g>
	<rect fill="none" width="21" height="21"/>
</g>
</svg>
