<svg id="SvgjsSvg1010" xmlns="http://www.w3.org/2000/svg" version="1.1" xmlns:xlink="http://www.w3.org/1999/xlink" xmlns:svgjs="http://svgjs.com/svgjs" width="16" height="17" viewBox="0 0 16 17"><title>Fill 1</title><desc>Created with Avocode.</desc><defs id="SvgjsDefs1011"></defs><path id="SvgjsPath1012" d="M9 14.23H10.24V13H9Z " fill="#8baace" fill-opacity="1" transform="matrix(1,0,0,1,-2,-2)"></path><path id="SvgjsPath1013" d="M9.98 2C5.57 2 2 5.62 2 10.08C2 14.54 5.57 18.16 9.98 18.16C14.39 18.16 17.97 14.54 17.97 10.08C17.97 5.62 14.389999999999999 2 9.979999999999999 2ZM9.98 16.7C6.370000000000001 16.7 3.45 13.729999999999999 3.45 10.079999999999998C3.45 6.419999999999998 6.37 3.459999999999998 9.98 3.459999999999998C13.59 3.469999999999998 16.52 6.429999999999998 16.52 10.079999999999998C16.52 13.729999999999999 13.6 16.7 9.98 16.7Z " fill="#8baace" fill-opacity="1" transform="matrix(1,0,0,1,-2,-2)"></path><path id="SvgjsPath1014" d="M12.89 7.89C12.57 6.569999999999999 11.23 5.75 9.9 6.069999999999999C8.780000000000001 6.329999999999999 7.99 7.329999999999999 8 8.469999999999999H9.24C9.3 7.789999999999999 9.9 7.289999999999999 10.58 7.349999999999999C11.27 7.409999999999998 11.77 7.999999999999999 11.72 8.68C11.59 9.299999999999999 11.040000000000001 9.73 10.41 9.709999999999999C10.11 9.709999999999999 9.86 9.95 9.86 10.25V11.55H11.1V10.850000000000001C12.41 10.510000000000002 13.2 9.200000000000001 12.89 7.8900000000000015Z " fill="#8baace" fill-opacity="1" transform="matrix(1,0,0,1,-2,-2)"></path></svg>