<svg id="SvgjsSvg1013" xmlns="http://www.w3.org/2000/svg" version="1.1" xmlns:xlink="http://www.w3.org/1999/xlink" xmlns:svgjs="http://svgjs.com/svgjs" width="15" height="16" viewBox="0 0 15 16"><title>Fill 1</title><desc>Created with Avocode.</desc><defs id="SvgjsDefs1014"></defs><path id="SvgjsPath1015" d="M90.77 103.13L87.07 99.28999999999999C88.02 98.16 88.55 96.74 88.55 95.25999999999999C88.55 91.80999999999999 85.73 88.99999999999999 82.27 88.99999999999999C78.81 88.99999999999999 76 91.80999999999999 76 95.25999999999999C76 98.71999999999998 78.81 101.52999999999999 82.27 101.52999999999999C83.57 101.52999999999999 84.81 101.13999999999999 85.86999999999999 100.38999999999999L89.58999999999999 104.25999999999999C89.74999999999999 104.42999999999999 89.96 104.50999999999999 90.17999999999999 104.50999999999999C90.38999999999999 104.50999999999999 90.6 104.42999999999999 90.74999999999999 104.28999999999999C91.06999999999998 103.97 91.07999999999998 103.46 90.76999999999998 103.13ZM82.27 90.63C84.83 90.63 86.91 92.71 86.91 95.25999999999999C86.91 97.82 84.83 99.88999999999999 82.27 99.88999999999999C79.72 99.88999999999999 77.64 97.82 77.64 95.25999999999999C77.64 92.71 79.72 90.63 82.27 90.63Z " fill="#9eadbc" fill-opacity="1" transform="matrix(1,0,0,1,-76,-89)"></path></svg>