<svg id="SvgjsSvg1009" xmlns="http://www.w3.org/2000/svg" version="1.1" xmlns:xlink="http://www.w3.org/1999/xlink" xmlns:svgjs="http://svgjs.com/svgjs" width="21" height="20" viewBox="0 0 21 20"><title>Fill 1</title><desc>Created with Avocode.</desc><defs id="SvgjsDefs1010"></defs><path id="SvgjsPath1011" d="M338.97 24.88L337.57000000000005 24.64C337.4200000000001 24.17 337.24000000000007 23.72 337.01000000000005 23.28L337.83000000000004 22.130000000000003C338.18000000000006 21.640000000000004 338.13000000000005 20.970000000000002 337.70000000000005 20.540000000000003L336.46000000000004 19.300000000000004C336.22 19.070000000000004 335.91 18.940000000000005 335.58000000000004 18.940000000000005C335.32000000000005 18.940000000000005 335.08000000000004 19.020000000000003 334.87000000000006 19.170000000000005L333.71000000000004 19.990000000000006C333.26000000000005 19.750000000000007 332.78000000000003 19.560000000000006 332.29 19.410000000000007L332.06 18.03000000000001C331.96 17.430000000000007 331.45 17.000000000000007 330.84 17.000000000000007H329.08C328.47999999999996 17.000000000000007 327.96 17.430000000000007 327.85999999999996 18.03000000000001L327.61999999999995 19.45000000000001C327.1499999999999 19.59000000000001 326.69999999999993 19.78000000000001 326.25999999999993 20.02000000000001L325.10999999999996 19.190000000000012C324.9 19.040000000000013 324.65 18.96000000000001 324.38999999999993 18.96000000000001C324.05999999999995 18.96000000000001 323.74999999999994 19.09000000000001 323.5199999999999 19.330000000000013L322.2699999999999 20.57000000000001C321.8499999999999 20.990000000000013 321.7899999999999 21.66000000000001 322.13999999999993 22.150000000000013L322.9699999999999 23.330000000000013C322.7399999999999 23.760000000000012 322.5599999999999 24.220000000000013 322.4199999999999 24.690000000000012L321.0299999999999 24.920000000000012C320.4299999999999 25.020000000000014 319.99999999999994 25.530000000000012 319.99999999999994 26.14000000000001V27.89000000000001C319.99999999999994 28.50000000000001 320.42999999999995 29.010000000000012 321.0299999999999 29.11000000000001L322.44999999999993 29.35000000000001C322.5999999999999 29.820000000000007 322.7899999999999 30.27000000000001 323.0199999999999 30.70000000000001L322.19999999999993 31.85000000000001C321.8499999999999 32.34000000000001 321.8999999999999 33.010000000000005 322.3399999999999 33.43000000000001L323.5799999999999 34.67000000000001C323.80999999999995 34.91000000000001 324.11999999999995 35.040000000000006 324.44999999999993 35.040000000000006C324.7099999999999 35.040000000000006 324.9599999999999 34.96000000000001 325.16999999999996 34.81000000000001L326.34 33.98000000000001C326.76 34.20000000000001 327.21 34.38000000000001 327.65999999999997 34.52000000000001L327.9 35.92000000000001C328 36.51000000000001 328.51 36.95000000000001 329.12 36.95000000000001H330.88C331.48 36.95000000000001 332 36.51000000000001 332.1 35.92000000000001L332.34000000000003 34.52000000000001C332.81000000000006 34.37000000000001 333.26000000000005 34.18000000000001 333.70000000000005 33.95000000000001L334.86000000000007 34.78000000000001C335.06000000000006 34.93000000000001 335.31000000000006 35.010000000000005 335.57000000000005 35.010000000000005C335.90000000000003 35.010000000000005 336.21000000000004 34.88 336.45000000000005 34.650000000000006L337.69000000000005 33.400000000000006C338.12000000000006 32.980000000000004 338.18000000000006 32.31 337.83000000000004 31.820000000000007L337.00000000000006 30.660000000000007C337.2300000000001 30.220000000000006 337.4200000000001 29.770000000000007 337.56000000000006 29.300000000000008L338.9700000000001 29.070000000000007C339.56000000000006 28.970000000000006 340.00000000000006 28.450000000000006 340.00000000000006 27.85000000000001V26.10000000000001C340.01000000000005 25.49000000000001 339.57000000000005 24.980000000000008 338.9700000000001 24.88000000000001ZM338.79 27.96L337.03000000000003 28.25C336.81 28.29 336.63000000000005 28.45 336.58000000000004 28.66C336.42 29.28 336.18000000000006 29.86 335.85 30.41C335.74 30.6 335.75 30.84 335.88 31.02L336.90999999999997 32.47C336.93999999999994 32.51 336.93999999999994 32.57 336.9 32.61L335.65 33.85C335.62 33.88 335.59 33.89 335.57 33.89C335.55 33.89 335.53 33.88 335.51 33.87L334.06 32.839999999999996C333.88 32.709999999999994 333.64 32.699999999999996 333.45 32.809999999999995C332.9 33.13999999999999 332.31 33.379999999999995 331.7 33.53999999999999C331.47999999999996 33.58999999999999 331.32 33.76999999999999 331.28 33.989999999999995L330.98999999999995 35.739999999999995C330.97999999999996 35.78999999999999 330.92999999999995 35.83 330.87999999999994 35.83H329.11999999999995C329.06999999999994 35.83 329.0199999999999 35.79 329.00999999999993 35.739999999999995L328.7199999999999 33.989999999999995C328.6799999999999 33.769999999999996 328.5199999999999 33.589999999999996 328.2999999999999 33.53999999999999C327.7099999999999 33.379999999999995 327.1299999999999 33.14999999999999 326.5899999999999 32.83999999999999C326.49999999999994 32.78999999999999 326.3999999999999 32.75999999999999 326.30999999999995 32.75999999999999C326.19999999999993 32.75999999999999 326.0799999999999 32.79999999999999 325.97999999999996 32.86999999999999L324.52 33.89999999999999C324.5 33.919999999999995 324.47999999999996 33.92999999999999 324.46 33.92999999999999C324.44 33.92999999999999 324.40999999999997 33.919999999999995 324.38 33.88999999999999L323.13 32.64999999999999C323.1 32.60999999999999 323.09 32.54999999999999 323.12 32.50999999999999L324.15 31.06999999999999C324.28 30.88999999999999 324.28999999999996 30.649999999999988 324.16999999999996 30.44999999999999C323.84999999999997 29.90999999999999 323.59999999999997 29.329999999999988 323.43999999999994 28.70999999999999C323.37999999999994 28.49999999999999 323.19999999999993 28.33999999999999 322.98999999999995 28.29999999999999L321.21999999999997 27.99999999999999C321.16999999999996 27.989999999999988 321.13 27.94999999999999 321.13 27.88999999999999V26.13999999999999C321.13 26.07999999999999 321.17 26.03999999999999 321.21999999999997 26.02999999999999L322.96 25.73999999999999C323.18 25.699999999999992 323.35999999999996 25.539999999999992 323.41999999999996 25.31999999999999C323.56999999999994 24.70999999999999 323.80999999999995 24.11999999999999 324.12999999999994 23.56999999999999C324.23999999999995 23.37999999999999 324.22999999999996 23.13999999999999 324.09999999999997 22.95999999999999L323.05999999999995 21.49999999999999C323.03 21.45999999999999 323.03999999999996 21.399999999999988 323.06999999999994 21.35999999999999L324.31999999999994 20.11999999999999C324.3499999999999 20.08999999999999 324.37999999999994 20.08999999999999 324.3999999999999 20.08999999999999C324.4199999999999 20.08999999999999 324.43999999999994 20.09999999999999 324.4599999999999 20.10999999999999L325.8999999999999 21.12999999999999C326.0899999999999 21.259999999999987 326.3299999999999 21.26999999999999 326.5199999999999 21.15999999999999C327.05999999999995 20.82999999999999 327.6499999999999 20.57999999999999 328.2699999999999 20.42999999999999C328.4799999999999 20.36999999999999 328.63999999999993 20.18999999999999 328.67999999999995 19.97999999999999L328.97999999999996 18.20999999999999C328.98999999999995 18.15999999999999 329.03999999999996 18.11999999999999 329.09 18.11999999999999H330.84999999999997C330.9 18.11999999999999 330.95 18.15999999999999 330.96 18.20999999999999L331.25 19.94999999999999C331.29 20.169999999999987 331.45 20.349999999999987 331.67 20.399999999999988C332.3 20.559999999999988 332.90000000000003 20.809999999999988 333.46000000000004 21.139999999999986C333.65000000000003 21.249999999999986 333.89000000000004 21.239999999999988 334.07000000000005 21.109999999999985L335.52000000000004 20.079999999999984C335.54 20.069999999999983 335.56000000000006 20.059999999999985 335.58000000000004 20.059999999999985C335.59000000000003 20.059999999999985 335.63000000000005 20.059999999999985 335.66 20.089999999999986L336.90000000000003 21.329999999999984C336.94000000000005 21.369999999999983 336.94000000000005 21.429999999999986 336.91 21.479999999999983L335.88000000000005 22.919999999999984C335.75000000000006 23.099999999999984 335.75000000000006 23.339999999999986 335.86000000000007 23.529999999999983C336.18000000000006 24.079999999999984 336.43000000000006 24.669999999999984 336.5800000000001 25.279999999999983C336.6400000000001 25.499999999999982 336.8200000000001 25.659999999999982 337.0400000000001 25.689999999999984L338.7900000000001 25.989999999999984C338.8400000000001 25.999999999999986 338.88000000000005 26.039999999999985 338.88000000000005 26.099999999999984V27.849999999999984C338.88000000000005 27.899999999999984 338.84000000000003 27.949999999999985 338.7900000000001 27.959999999999983Z " fill="#2ecc71" fill-opacity="1" transform="matrix(1,0,0,1,-320,-17)"></path><path id="SvgjsPath1012" d="M330.32 23C327.93 23 326 24.93 326 27.3C326 29.68 327.93 31.61 330.32 31.61C332.7 31.61 334.63 29.68 334.63 27.3C334.63 24.93 332.7 23 330.32 23ZM330.32 30.48C328.56 30.48 327.13 29.060000000000002 327.13 27.3C327.13 25.55 328.56 24.12 330.32 24.12C332.07 24.12 333.5 25.55 333.5 27.3C333.5 29.060000000000002 332.07 30.48 330.32 30.48Z " fill="#2ecc71" fill-opacity="1" transform="matrix(1,0,0,1,-320,-17)"></path></svg>