<svg id="SvgjsSvg1008" xmlns="http://www.w3.org/2000/svg" version="1.1" xmlns:xlink="http://www.w3.org/1999/xlink" xmlns:svgjs="http://svgjs.com/svgjs" width="10" height="9" viewBox="0 0 10 9"><title>Shape</title><desc>Created with Avocode.</desc><defs id="SvgjsDefs1009"></defs><path id="SvgjsPath1010" d="M555.25 377C553.5 377 551.95 377.9 551.15 379.27L550 378.18V381.25H553.25L551.85 379.93C552.5 378.75 553.75 377.94 555.25 377.94C557.3 377.94 559 379.55 559 381.49C559 383.42 557.3 385.03000000000003 555.25 385.03000000000003C553.6 385.03000000000003 552.25 384.04 551.7 382.67H550.6500000000001C551.2 384.56 553.0500000000001 385.97 555.2500000000001 385.97C557.9000000000001 385.97 560.0000000000001 383.94000000000005 560.0000000000001 381.49C560.0000000000001 379.03000000000003 557.8500000000001 377 555.2500000000001 377ZM554.5 379.36H555.25V381.34000000000003L557.25 382.48L556.85 383.09000000000003L554.5 381.77000000000004Z " fill="#ffffff" fill-opacity="1" transform="matrix(1,0,0,1,-550,-377)"></path></svg>