<?xml version="1.0" encoding="utf-8"?>
<!-- Generator: Adobe Illustrator 18.0.0, SVG Export Plug-In . SVG Version: 6.00 Build 0)  -->
<!DOCTYPE svg PUBLIC "-//W3C//DTD SVG 1.1//EN" "http://www.w3.org/Graphics/SVG/1.1/DTD/svg11.dtd">
<svg version="1.1" id="Слой_1" xmlns="http://www.w3.org/2000/svg" xmlns:xlink="http://www.w3.org/1999/xlink" x="0px" y="0px"
	 viewBox="0 0 92 13" enable-background="new 0 0 92 13" xml:space="preserve">
<g>
	<path fill="#5A86BA" d="M0.3,8.7C0.9,9,1.7,9.3,2.5,9.3c1.3,0,2-0.7,2-1.6c0-0.9-0.5-1.4-1.8-1.9C1.2,5.2,0.2,4.3,0.2,3
		c0-1.5,1.2-2.6,3.1-2.6c1,0,1.7,0.2,2.1,0.5l-0.3,1c-0.3-0.2-1-0.5-1.8-0.5C2,1.4,1.5,2.2,1.5,2.8c0,0.9,0.6,1.3,1.9,1.9
		C5,5.3,5.8,6.1,5.8,7.5c0,1.5-1.1,2.8-3.4,2.8C1.5,10.3,0.5,10,0,9.7L0.3,8.7z"/>
	<path fill="#5A86BA" d="M7.5,0h1.3v4.3h0C9,4,9.3,3.7,9.7,3.4c0.4-0.2,0.8-0.4,1.3-0.4c0.9,0,2.4,0.6,2.4,3v4.1h-1.3v-4
		c0-1.1-0.4-2.1-1.6-2.1c-0.8,0-1.5,0.6-1.7,1.3C8.8,5.6,8.8,5.7,8.8,6v4.2H7.5V0z"/>
	<path fill="#5A86BA" d="M21.7,6.6c0,2.6-1.8,3.7-3.5,3.7c-1.9,0-3.3-1.4-3.3-3.6c0-2.3,1.5-3.7,3.4-3.7C20.4,3.1,21.7,4.5,21.7,6.6
		z M16.2,6.7c0,1.5,0.9,2.7,2.1,2.7c1.2,0,2.1-1.1,2.1-2.7c0-1.2-0.6-2.7-2.1-2.7C16.9,4,16.2,5.4,16.2,6.7z"/>
	<path fill="#5A86BA" d="M23.7,3.2l0.9,3.5C24.8,7.5,25,8.3,25.1,9h0c0.2-0.7,0.4-1.4,0.6-2.2l1.1-3.5H28l1.1,3.5
		c0.3,0.8,0.5,1.6,0.6,2.3h0c0.1-0.7,0.3-1.4,0.5-2.2l1-3.5h1.2l-2.2,6.9h-1.1L28,6.9c-0.2-0.8-0.4-1.5-0.6-2.3h0
		c-0.2,0.8-0.4,1.5-0.6,2.3l-1.1,3.3h-1.1l-2.1-6.9H23.7z"/>
	<path fill="#5A86BA" d="M36.8,5.5c0-0.9,0-1.6-0.1-2.3h1.1l0.1,1.2h0c0.5-0.8,1.3-1.3,2.5-1.3c1.7,0,2.9,1.4,2.9,3.5
		c0,2.5-1.5,3.7-3.2,3.7c-0.9,0-1.7-0.4-2.1-1.1h0V13h-1.2V5.5z M38,7.3c0,0.2,0,0.4,0.1,0.5c0.2,0.9,1,1.5,1.9,1.5
		c1.3,0,2.1-1.1,2.1-2.7c0-1.4-0.7-2.6-2.1-2.6c-0.9,0-1.7,0.6-1.9,1.6C38.1,5.8,38,6,38,6.2V7.3z"/>
	<path fill="#5A86BA" d="M48.8,10.2l-0.1-0.9h0c-0.4,0.5-1.1,1-2.1,1c-1.4,0-2.1-1-2.1-2c0-1.7,1.5-2.6,4.2-2.6V5.6
		C48.5,5,48.4,4,47,4c-0.6,0-1.3,0.2-1.8,0.5l-0.3-0.8c0.6-0.4,1.4-0.6,2.3-0.6c2.1,0,2.6,1.4,2.6,2.8v2.6c0,0.6,0,1.2,0.1,1.7H48.8
		z M48.6,6.6c-1.4,0-2.9,0.2-2.9,1.6c0,0.8,0.5,1.2,1.2,1.2c0.9,0,1.5-0.6,1.7-1.2c0-0.1,0.1-0.3,0.1-0.4V6.6z"/>
	<path fill="#5A86BA" d="M51.7,8.9c0.4,0.2,1,0.5,1.7,0.5c0.9,0,1.3-0.5,1.3-1c0-0.6-0.4-0.9-1.3-1.3c-1.2-0.4-1.8-1.1-1.8-2
		c0-1.1,0.9-2,2.4-2c0.7,0,1.3,0.2,1.7,0.4l-0.3,0.9C55,4.3,54.5,4,53.9,4c-0.7,0-1.2,0.4-1.2,0.9c0,0.6,0.4,0.8,1.3,1.2
		c1.2,0.5,1.8,1.1,1.8,2.1c0,1.2-0.9,2.1-2.6,2.1c-0.8,0-1.5-0.2-1.9-0.5L51.7,8.9z"/>
	<path fill="#5A86BA" d="M57.3,8.9c0.4,0.2,1,0.5,1.7,0.5c0.9,0,1.3-0.5,1.3-1c0-0.6-0.4-0.9-1.3-1.3c-1.2-0.4-1.8-1.1-1.8-2
		c0-1.1,0.9-2,2.4-2c0.7,0,1.3,0.2,1.7,0.4L61,4.4C60.7,4.3,60.2,4,59.6,4c-0.7,0-1.2,0.4-1.2,0.9c0,0.6,0.4,0.8,1.3,1.2
		c1.2,0.5,1.8,1.1,1.8,2.1c0,1.2-0.9,2.1-2.6,2.1c-0.8,0-1.5-0.2-1.9-0.5L57.3,8.9z"/>
	<path fill="#5A86BA" d="M63.7,3.2l0.9,3.5C64.8,7.5,65,8.3,65.1,9h0c0.2-0.7,0.4-1.4,0.6-2.2l1.1-3.5h1.1L69,6.7
		c0.3,0.8,0.5,1.6,0.6,2.3h0c0.1-0.7,0.3-1.4,0.5-2.2l1-3.5h1.2l-2.2,6.9h-1.1L68,6.9c-0.2-0.8-0.4-1.5-0.6-2.3h0
		c-0.2,0.8-0.4,1.5-0.6,2.3l-1.1,3.3h-1.1l-2.1-6.9H63.7z"/>
	<path fill="#5A86BA" d="M79.8,6.6c0,2.6-1.8,3.7-3.5,3.7c-1.9,0-3.3-1.4-3.3-3.6c0-2.3,1.5-3.7,3.4-3.7C78.5,3.1,79.8,4.5,79.8,6.6
		z M74.3,6.7c0,1.5,0.9,2.7,2.1,2.7c1.2,0,2.1-1.1,2.1-2.7C78.5,5.5,78,4,76.5,4S74.3,5.4,74.3,6.7z"/>
	<path fill="#5A86BA" d="M81.4,5.4c0-0.8,0-1.5-0.1-2.2h1.1l0,1.4h0.1c0.3-0.9,1.1-1.5,1.9-1.5c0.1,0,0.2,0,0.4,0v1.2
		c-0.1,0-0.3,0-0.4,0c-0.9,0-1.5,0.7-1.7,1.6c0,0.2-0.1,0.4-0.1,0.6v3.7h-1.2V5.4z"/>
	<path fill="#5A86BA" d="M91.9,0v8.4c0,0.6,0,1.3,0.1,1.8h-1.1L90.8,9h0c-0.4,0.8-1.2,1.4-2.4,1.4c-1.7,0-3-1.4-3-3.5
		c0-2.3,1.4-3.7,3.1-3.7c1.1,0,1.8,0.5,2.1,1.1h0V0H91.9z M90.7,6.1c0-0.2,0-0.4-0.1-0.5c-0.2-0.8-0.9-1.5-1.8-1.5
		c-1.3,0-2.1,1.1-2.1,2.7c0,1.4,0.7,2.6,2,2.6c0.8,0,1.6-0.6,1.8-1.5c0-0.2,0.1-0.3,0.1-0.5V6.1z"/>
</g>
</svg>
