<?xml version="1.0" encoding="UTF-8" standalone="no"?>
<svg width="24px" height="22px" viewBox="0 0 24 22" version="1.1" xmlns="http://www.w3.org/2000/svg" xmlns:xlink="http://www.w3.org/1999/xlink">
    <!-- Generator: Sketch 39.1 (31720) - http://www.bohemiancoding.com/sketch -->
    <title>list</title>
    <desc>Created with Sketch.</desc>
    <defs>
        <polygon id="path-1" points="0.00373056995 0.0296629213 0.00373056995 22 16.0562487 22 16.0562487 0.0296629213 0.00373056995 0.0296629213"></polygon>
    </defs>
    <g id="Page-1" stroke="none" stroke-width="1" fill="none" fill-rule="evenodd">
        <g id="dashboard-5" transform="translate(-51.000000, -563.000000)">
            <g id="left-menu">
                <g id="tasks" transform="translate(46.000000, 563.000000)">
                    <g id="list" transform="translate(5.000000, 0.000000)">
                        <path d="M23.895544,0.810848315 L8.16254922,0.810848315 C8.13270466,0.810848315 8.10279793,0.83544382 8.10279793,0.870235955 L8.10279793,2.26426966 C8.10279793,2.29399438 8.12760622,2.3236573 8.16254922,2.3236573 L23.895544,2.3236573 C23.9254508,2.3236573 23.9552953,2.29881461 23.9552953,2.26426966 L23.9552953,0.870235955 C23.9552953,0.83544382 23.9303005,0.810848315 23.895544,0.810848315 Z" id="Fill-1" fill="#FFFFFF"></path>
                        <path d="M8.16254922,4.84506742 L15.9967461,4.84506742 C16.0266528,4.84506742 16.0562487,4.82022472 16.0562487,4.78567978 L16.0562487,3.39133708 C16.0562487,3.36192135 16.0315026,3.33219663 15.9967461,3.33219663 L8.16254922,3.33219663 C8.13270466,3.33219663 8.10279793,3.35685393 8.10279793,3.39133708 L8.10279793,4.78567978 C8.10279793,4.82022472 8.12760622,4.84506742 8.16254922,4.84506742 Z" id="Fill-2" fill="#FFFFFF"></path>
                        <path d="M23.895544,8.99781461 L8.16254922,8.99781461 C8.13270466,8.99781461 8.10279793,9.02247191 8.10279793,9.05695506 L8.10279793,10.4512978 C8.10279793,10.4809607 8.12760622,10.5106854 8.16254922,10.5106854 L23.895544,10.5106854 C23.9254508,10.5106854 23.9552953,10.4857809 23.9552953,10.4512978 L23.9552953,9.05695506 C23.9552953,9.02247191 23.9303005,8.99781461 23.895544,8.99781461 Z" id="Fill-3" fill="#FFFFFF"></path>
                        <path d="M8.16254922,13.0317865 L15.9967461,13.0317865 C16.0266528,13.0317865 16.0562487,13.007191 16.0562487,12.9726461 L16.0562487,11.5783652 C16.0562487,11.5486404 16.0315026,11.5192247 15.9967461,11.5192247 L8.16254922,11.5192247 C8.13270466,11.5192247 8.10279793,11.5438202 8.10279793,11.5783652 L8.10279793,12.9726461 C8.10279793,13.007191 8.12760622,13.0317865 8.16254922,13.0317865 Z" id="Fill-4" fill="#FFFFFF"></path>
                        <path d="M23.895544,17.1848427 L8.16254922,17.1848427 C8.13270466,17.1848427 8.10279793,17.2094382 8.10279793,17.2439831 L8.10279793,18.638264 C8.10279793,18.6679888 8.12760622,18.6974045 8.16254922,18.6974045 L23.895544,18.6974045 C23.9254508,18.6974045 23.9552953,18.672809 23.9552953,18.638264 L23.9552953,17.2439831 C23.9552953,17.2094382 23.9303005,17.1848427 23.895544,17.1848427 Z" id="Fill-5" fill="#FFFFFF"></path>
                        <g id="Group-11">
                            <mask id="mask-2" fill="white">
                                <use xlink:href="#path-1"></use>
                            </mask>
                            <g id="Clip-7"></g>
                            <path d="M15.9967461,19.7110112 L8.16254922,19.7110112 C8.13270466,19.7110112 8.10279793,19.7356685 8.10279793,19.7703989 L8.10279793,21.1644944 C8.10279793,21.1941573 8.12760622,21.223882 8.16254922,21.223882 L15.9967461,21.223882 C16.0266528,21.223882 16.0562487,21.1990393 16.0562487,21.1644944 L16.0562487,19.7703989 C16.051399,19.7356685 16.0266528,19.7110112 15.9967461,19.7110112 Z" id="Fill-6" fill="#FFFFFF" mask="url(#mask-2)"></path>
                            <polygon id="Fill-8" fill="#FFFFFF" mask="url(#mask-2)" points="2.5815544 3.01573034 1.31807254 1.75011236 0 3.0553427 2.57664249 5.62600562 3.8947772 4.3258427 6.90907772 1.33971348 5.60070466 0.0296629213"></polygon>
                            <polygon id="Fill-9" fill="#FFFFFF" mask="url(#mask-2)" points="2.5815544 11.2027584 1.31807254 9.93707865 0 11.242309 2.57664249 13.8129719 3.8947772 12.512809 6.90907772 9.52674157 5.60070466 8.21662921"></polygon>
                            <polygon id="Fill-10" fill="#FFFFFF" mask="url(#mask-2)" points="2.5815544 19.3897247 1.31807254 18.1241067 0 19.4293371 2.57664249 22 3.8947772 20.6947079 6.90907772 17.7137079 5.60070466 16.4036573"></polygon>
                        </g>
                    </g>
                </g>
            </g>
        </g>
    </g>
</svg>