<?xml version="1.0" encoding="UTF-8" standalone="no"?>
<svg width="24px" height="23px" viewBox="0 0 24 23" version="1.1" xmlns="http://www.w3.org/2000/svg" xmlns:xlink="http://www.w3.org/1999/xlink">
    <!-- Generator: Sketch 39.1 (31720) - http://www.bohemiancoding.com/sketch -->
    <title>wallet-filled-money-tool</title>
    <desc>Created with Sketch.</desc>
    <defs></defs>
    <g id="Page-1" stroke="none" stroke-width="1" fill="none" fill-rule="evenodd">
        <g id="dashboard-5" transform="translate(-51.000000, -469.000000)" fill="#FFFFFF">
            <g id="left-menu">
                <g id="payroll" transform="translate(42.000000, 469.000000)">
                    <g id="wallet-filled-money-tool" transform="translate(9.000000, 0.000000)">
                        <path d="M5.60381487,4.38210526 L15.1634222,1.77547222 L14.6572006,0.753149123 C14.326014,0.0887719298 13.5181599,-0.185614035 12.8529593,0.145263158 L4.29515849,4.38210526 L5.60381487,4.38210526 Z" id="Fill-1"></path>
                        <path d="M18.1309734,1.85072661 C18.0124881,1.85072661 17.8940365,1.86686696 17.7754165,1.89918129 L15.5296157,2.51248099 L8.67103506,4.38210526 L19.8489762,4.38210526 L19.4288583,2.84332456 C19.2672539,2.24347515 18.7232987,1.85072661 18.1309734,1.85072661 Z" id="Fill-3"></path>
                        <path d="M21.2519158,5.32362573 L1.34904909,5.32362573 C0.923680224,5.32362573 0.543955119,5.52 0.296246844,5.8293231 C0.183147265,5.97196345 0.0969088359,6.13602339 0.0485049088,6.31625731 C0.0188162693,6.42920614 0,6.54756871 0,6.66865497 L0,21.6549708 C0,22.3974942 0.603265077,23 1.34642356,23 L21.2492903,23 C21.9924488,23 22.5957139,22.3974942 22.5957139,21.6549708 L22.5957139,17.9022719 L14.6060701,17.9022719 C13.3429902,17.9022719 12.3171501,16.8774942 12.3171501,15.6157222 L12.3171501,12.6244781 C12.3171501,12.0056974 12.5648583,11.4435088 12.9660252,11.0319971 C13.321582,10.6660482 13.798216,10.4185965 14.3313997,10.3567251 C14.420129,10.3459649 14.5117868,10.3405512 14.60331,10.3405512 L22.5957139,10.3405512 L22.5957139,6.66865497 C22.5983394,5.92613158 21.995209,5.32362573 21.2519158,5.32362573 Z" id="Fill-4"></path>
                        <path d="M23.5408359,11.6265 C23.4061935,11.5027573 23.2473829,11.4085716 23.0695877,11.3467003 C22.9323198,11.3010029 22.786906,11.2740687 22.6333128,11.2740687 L14.6060701,11.2740687 C13.862777,11.2740687 13.2596466,11.8765746 13.2596466,12.619098 L13.2596466,15.6130994 C13.2596466,16.3554883 13.862777,16.9581287 14.6060701,16.9581287 L22.6333128,16.9581287 C22.786906,16.9581287 22.9323198,16.9311944 23.0695877,16.8854971 C23.2473829,16.8262485 23.4061935,16.7294401 23.5408359,16.605731 C23.8101206,16.3608684 23.9797363,16.005848 23.9797363,15.6130994 L23.9797363,12.619098 C23.9797363,12.2263494 23.8101206,11.8711944 23.5408359,11.6265 Z M17.4173689,14.3838099 C17.4173689,14.7550044 17.1157363,15.0563246 16.7441571,15.0563246 L16.2971108,15.0563246 C15.9255316,15.0563246 15.623899,14.7550044 15.623899,14.3838099 L15.623899,13.937193 C15.623899,13.7220556 15.723568,13.5309269 15.8824123,13.4099751 C15.9982384,13.3211696 16.1409257,13.2646784 16.2971108,13.2646784 L16.7441571,13.2646784 C17.1157363,13.2646784 17.4173689,13.5659985 17.4173689,13.937193 L17.4173689,14.3838099 Z" id="Fill-5"></path>
                    </g>
                </g>
            </g>
        </g>
    </g>
</svg>