<?xml version="1.0" encoding="UTF-8" standalone="no"?>
<svg width="24px" height="22px" viewBox="0 0 24 22" version="1.1" xmlns="http://www.w3.org/2000/svg" xmlns:xlink="http://www.w3.org/1999/xlink">
    <!-- Generator: Sketch 39.1 (31720) - http://www.bohemiancoding.com/sketch -->
    <title>users</title>
    <desc>Created with Sketch.</desc>
    <defs></defs>
    <g id="Page-1" stroke="none" stroke-width="1" fill="none" fill-rule="evenodd">
        <g id="dashboard-5" transform="translate(-51.000000, -379.000000)" fill="#FFFFFF">
            <g id="left-menu">
                <g id="employee" transform="translate(33.000000, 379.000000)">
                    <g id="users" transform="translate(18.000000, 0.000000)">
                        <path d="M16.406,17.156 L12.584,15.246 C12.2245,15.0645 12,14.703 12,14.299 L12,12.9475 C12.092,12.834 12.1875,12.707 12.287,12.5665 C12.783,11.867 13.1795,11.088 13.469,10.246 C14.033,9.9885 14.4005,9.4295 14.4005,8.801 L14.4005,7.199 C14.4005,6.8145 14.256,6.4415 14,6.1505 L14,4.0215 C14.0215,3.8025 14.1115,2.492 13.164,1.412 C12.342,0.4745 11.008,0 9.199,0 C7.3905,0 6.0585,0.4745 5.2365,1.412 C4.289,2.492 4.377,3.8025 4.4005,4.0215 L4.4005,6.1505 C4.1445,6.4415 4,6.8145 4,7.199 L4,8.799 C4,9.287 4.2205,9.74 4.5995,10.043 C4.965,11.494 5.7325,12.588 6,12.9375 L6,14.2615 C6,14.6485 5.789,15.004 5.449,15.1895 L1.881,17.1365 C0.7205,17.7695 0,18.9825 0,20.3045 L0,22 L18.4005,22 L18.4005,20.383 C18.4005,19.008 17.635,17.7715 16.406,17.156 Z" id="Fill-1"></path>
                        <path d="M22.1875,17.6115 L18.297,15.926 C18.205,15.881 18.1035,15.7675 18.0155,15.617 L20.627,15.615 C20.627,15.615 20.7775,15.631 21.0115,15.631 C21.4395,15.631 22.0665,15.582 22.6115,15.3475 C22.9375,15.207 23.1815,14.9295 23.2795,14.586 C23.377,14.2385 23.3145,13.871 23.1075,13.576 C22.3615,12.5135 20.621,9.74 20.5665,6.9275 C20.5645,6.879 20.408,2.094 15.6815,2.0545 C15.207,2.0585 14.76,2.117 14.334,2.2205 C14.6505,3.0565 14.621,3.8065 14.5995,4.051 L14.5995,5.9435 C14.8595,6.3125 15,6.75 15,7.199 L15,8.801 C15,9.5625 14.5975,10.2695 13.957,10.664 C13.658,11.4725 13.2615,12.2285 12.7775,12.914 C12.717,12.998 12.658,13.078 12.5995,13.1545 L12.5995,14.299 C12.5995,14.4765 12.6955,14.629 12.8515,14.707 L16.674,16.617 C18.1095,17.336 19,18.7775 19,20.383 L19,22 L24,22 L24,20.5215 C24,19.285 23.3125,18.174 22.1875,17.6115 Z" id="Fill-2"></path>
                    </g>
                </g>
            </g>
        </g>
    </g>
</svg>