<?xml version="1.0" encoding="UTF-8" standalone="no"?>
<svg width="29px" height="19px" viewBox="0 0 29 19" version="1.1" xmlns="http://www.w3.org/2000/svg" xmlns:xlink="http://www.w3.org/1999/xlink">
    <!-- Generator: Sketch 39.1 (31720) - http://www.bohemiancoding.com/sketch -->
    <title>icon</title>
    <desc>Created with Sketch.</desc>
    <defs></defs>
    <g id="Page-1" stroke="none" stroke-width="1" fill="none" fill-rule="evenodd" fill-opacity="0.8">
        <g id="dashboard-5" transform="translate(-49.000000, -101.000000)" fill="#FFFFFF">
            <g id="left-menu">
                <g id="dashboard-active" transform="translate(29.000000, 101.000000)">
                    <path d="M43.719,3.528 C41.203,1.371 37.945,0.063 34.371,0.063 C26.434,0.063 20,6.496 20,14.438 C20,14.653 20.02,16.637 20.031,16.852 L20.031,19 L48.688,19 L48.688,17.008 L48.715,16.852 C48.723,16.637 48.746,14.653 48.746,14.438 C48.746,7.391 43.719,3.528 43.719,3.528 Z M23.496,16.852 C23.484,16.719 23.5,14.809 23.492,14.68 L26.441,14.68 L26.441,13.727 L23.699,13.727 C23.699,13.715 23.492,13.731 23.492,13.731 C23.609,11.262 24.547,8.797 26.324,6.856 L26.398,6.778 L26.531,6.891 L28.492,8.856 L29.109,8.239 L27.023,6.157 C28.91,4.43 31.305,3.442 33.859,3.328 L34.004,3.328 C34.004,3.328 34.066,3.325 34.062,3.364 L34.062,6.27 L34.848,6.27 L34.848,3.328 C35.234,3.344 35.621,3.391 36.004,3.45 C38.195,3.739 40.234,4.684 41.887,6.192 L39.805,8.274 L40.383,8.856 L42.383,6.856 L42.492,6.77 L42.586,6.895 C44.312,8.782 45.301,11.172 45.418,13.727 L42.473,13.727 L42.473,14.68 L45.43,14.676 C45.43,14.676 45.434,16.723 45.422,16.844 L23.496,16.852 Z M38.238,9.981 C38.238,9.981 33.566,11.414 32.668,12.309 C31.773,13.207 31.773,14.657 32.672,15.555 C33.566,16.45 35.016,16.45 35.914,15.555 C36.809,14.657 38.238,9.981 38.238,9.981 Z" id="icon"></path>
                </g>
            </g>
        </g>
    </g>
</svg>