<?xml version="1.0" encoding="UTF-8" standalone="no"?>
<svg width="24px" height="24px" viewBox="0 0 24 24" version="1.1" xmlns="http://www.w3.org/2000/svg" xmlns:xlink="http://www.w3.org/1999/xlink">
    <!-- Generator: Sketch 39.1 (31720) - http://www.bohemiancoding.com/sketch -->
    <title>settings-work-tool</title>
    <desc>Created with Sketch.</desc>
    <defs>
        <polygon id="path-1" points="23.8897 0.109777778 0 0.109777778 0 24 23.8897 24 23.8897 0.109777778"></polygon>
    </defs>
    <g id="Page-1" stroke="none" stroke-width="1" fill="none" fill-rule="evenodd">
        <g id="dashboard-5" transform="translate(-51.000000, -655.000000)">
            <g id="left-menu">
                <g id="settings" transform="translate(39.000000, 655.000000)">
                    <g id="settings-work-tool" transform="translate(12.000000, 0.000000)">
                        <mask id="mask-2" fill="white">
                            <use xlink:href="#path-1"></use>
                        </mask>
                        <g id="Clip-2"></g>
                        <path d="M23.8146667,10.7286667 C23.7768889,10.3927778 23.3854444,10.1402222 23.0468889,10.1402222 C21.9522222,10.1402222 20.9808889,9.49777778 20.5733333,8.50344444 C20.1575556,7.48522222 20.4257778,6.29811111 21.2413333,5.54988889 C21.4982222,5.31511111 21.5295556,4.92188889 21.3142222,4.64888889 C20.7538889,3.93744444 20.1172222,3.29466667 19.4218889,2.73777778 C19.1497778,2.51955556 18.75,2.54988889 18.5138889,2.81122222 C17.8021111,3.59977778 16.523,3.89277778 15.5346667,3.48044444 C14.5065556,3.04777778 13.8576667,2.00566667 13.9214444,0.887111111 C13.9422222,0.535555556 13.6853333,0.23 13.3351111,0.189222222 C12.4426667,0.0858888889 11.5425556,0.0828888889 10.6475556,0.182222222 C10.3016667,0.220444444 10.0446667,0.518666667 10.0564444,0.865888889 C10.095,1.97355556 9.43877778,2.99733333 8.42055556,3.41444444 C7.444,3.81333333 6.174,3.52255556 5.46355556,2.74088889 C5.22877778,2.48344444 4.83588889,2.45177778 4.56211111,2.66533333 C3.84633333,3.227 3.19533333,3.87022222 2.62977778,4.57588889 C2.40933333,4.85022222 2.44188889,5.24777778 2.701,5.48344444 C3.53255556,6.23655556 3.80077778,7.434 3.36888889,8.464 C2.95655556,9.44611111 1.93711111,10.0785556 0.77,10.0785556 C0.391111111,10.0664444 0.121555556,10.3207778 0.0798888889,10.6653333 C-0.0252222222,11.5624444 -0.0264444444,12.477 0.0746666667,13.3814444 C0.112444444,13.7187778 0.515666667,13.9692222 0.858111111,13.9692222 C1.89844444,13.9426667 2.89666667,14.5863333 3.316,15.6058889 C3.73355556,16.6241111 3.46488889,17.8107778 2.648,18.5598889 C2.39233333,18.7946667 2.35977778,19.187 2.57555556,19.4596667 C3.13022222,20.1666667 3.76733333,20.8098889 4.46488889,21.3715556 C4.73866667,21.592 5.13666667,21.5612222 5.37411111,21.2994444 C6.089,20.5091111 7.36766667,20.2165556 8.352,20.6297778 C9.38322222,21.0612222 10.0316667,22.1033333 9.96833333,23.2222222 C9.94744444,23.5737778 10.2053333,23.8802222 10.5542222,23.9201111 C11.0108889,23.9735556 11.47,24 11.9305556,24 C12.3676667,24 12.8046667,23.9761111 13.2417778,23.9275556 C13.5881111,23.8893333 13.8446667,23.5906667 13.8328889,23.2434444 C13.793,22.1362222 14.4505556,21.1124444 15.4674444,20.6961111 C16.4505556,20.2946667 17.7148889,20.5885556 18.4257778,21.3688889 C18.6618889,21.6258889 19.0521111,21.6571111 19.3272222,21.4444444 C20.0416667,20.8841111 20.6914444,20.2413333 21.2595556,19.5338889 C21.48,19.26 21.4487778,18.862 21.1883333,18.6258889 C20.3567778,17.8732222 20.0872222,16.6753333 20.5191111,15.6462222 C20.9248889,14.6775556 21.9066667,14.0268889 22.9626667,14.0268889 L23.1102222,14.0307778 C23.4531111,14.0585556 23.7682222,13.7946667 23.8094444,13.4448889 C23.9148889,12.5468889 23.9162222,11.6332222 23.8146667,10.7286667 Z M11.9635556,16.0646667 C9.76644444,16.0646667 7.97955556,14.2773333 7.97955556,12.0803333 C7.97955556,9.88322222 9.76644444,8.09588889 11.9635556,8.09588889 C14.161,8.09588889 15.9478889,9.88322222 15.9478889,12.0803333 C15.9478889,14.2773333 14.161,16.0646667 11.9635556,16.0646667 Z" id="Fill-1" fill="#FFFFFF" mask="url(#mask-2)"></path>
                    </g>
                </g>
            </g>
        </g>
    </g>
</svg>