<?xml version="1.0" encoding="UTF-8" standalone="no"?>
<svg width="24px" height="25px" viewBox="0 0 24 25" version="1.1" xmlns="http://www.w3.org/2000/svg" xmlns:xlink="http://www.w3.org/1999/xlink">
    <!-- Generator: Sketch 39.1 (31720) - http://www.bohemiancoding.com/sketch -->
    <title>Fill 1</title>
    <desc>Created with Sketch.</desc>
    <defs></defs>
    <g id="Page-1" stroke="none" stroke-width="1" fill="none" fill-rule="evenodd">
        <g id="dashboard-5-copy" transform="translate(-51.000000, -843.000000)" fill="#FFFFFF">
            <g id="left-menu">
                <g id="support" transform="translate(38.000000, 838.000000)">
                    <g id="help" transform="translate(25.000000, 17.000000) rotate(-45.000000) translate(-25.000000, -17.000000) translate(13.000000, 5.000000)">
                        <path d="M23.6925957,12.1526809 C23.6925957,11.0476596 23.5394043,9.98042553 23.2539574,8.9652766 C23.1441702,8.57208511 23.0185532,8.2013617 22.8771064,7.83829787 C22.8771064,7.83829787 22.3782128,6.72306383 22.2066383,6.41617021 C22.2786383,6.47591489 21.8737021,5.85548936 21.869617,5.8493617 C21.6025532,5.42655319 21.3130213,5.02161702 20.9979574,4.6386383 C20.9101277,4.52731915 20.826383,4.4292766 20.7426383,4.33582979 C20.3954043,3.94876596 20.0466383,3.60153191 19.6774468,3.27421277 C19.5676596,3.17055319 19.4701277,3.08885106 19.3725957,3.00919149 C18.9773617,2.688 18.5724255,2.39693617 18.149617,2.1293617 C18.1434894,2.1252766 17.531234,1.72646809 17.5930213,1.79846809 C17.2840851,1.62689362 16.637617,1.32153191 16.637617,1.32153191 C16.637617,1.32153191 15.4268936,0.856851064 15.048,0.749106383 C14.0205957,0.46212766 12.9513191,0.306382979 11.8462979,0.306382979 C10.7412766,0.306382979 9.672,0.46212766 8.65685106,0.74706383 C8.26621277,0.856851064 7.89497872,0.980425532 7.53191489,1.12442553 C7.53191489,1.12442553 7.10228392,1.29797975 6.81015209,1.43540426 C6.51802027,1.57282876 6.10774468,1.79438298 6.10774468,1.79438298 C6.10774468,1.79438298 5.54706383,2.1252766 5.54144681,2.13140426 C5.12017021,2.39693617 4.71319149,2.688 4.33021277,3.00306383 C4.22093617,3.09089362 4.12289362,3.17259574 4.02944681,3.25634043 C3.64442553,3.60357447 3.29514894,3.95285106 2.96782979,4.32153191 C2.96221277,4.32765957 2.78246809,4.5293617 2.70076596,4.62893617 C2.37957447,5.02365957 2.09055319,5.42859574 1.82297872,5.8493617 C1.81889362,5.85548936 1.49208511,6.40595745 1.49208511,6.40595745 L1.01514894,7.3613617 L0.818042553,7.83829787 C0.674042553,8.2013617 0.550468085,8.57208511 0.442723404,8.94944681 C0.155744681,9.98042553 -4.13891144e-13,11.0476596 -4.13891144e-13,12.1526809 C-4.13891144e-13,13.2577021 0.155744681,14.3269787 0.438638298,15.3400851 C0.550468085,15.7353191 0.674042553,16.1060426 0.818042553,16.4670638 L1.01514894,16.944 L1.488,17.891234 C1.488,17.891234 1.62382979,18.1547234 1.61974468,18.1307234 C1.6493617,18.1828085 2.33153258,19.2506026 2.69668085,19.668766 C2.78451064,19.7805957 2.86621277,19.8760851 2.94995745,19.9720851 C3.29719149,20.3571064 3.64646809,20.7058723 4.01514894,21.0311489 C4.12697872,21.1348085 4.22297872,21.2185532 4.32255319,21.2982128 C4.7172766,21.6194043 5.55319149,22.1882553 5.5613617,22.1918298 C5.6052766,22.2199149 6.09957447,22.5074043 6.09957447,22.5074043 C6.09957447,22.5074043 7.66870637,23.3336208 8.64510638,23.5562553 C9.67404255,23.8457872 10.7433191,23.9989787 11.8462979,23.9989787 C12.9513191,23.9989787 14.0185532,23.8457872 15.0337021,23.5603404 C15.4268936,23.4505532 15.7981277,23.3249362 16.1606809,23.1834894 L16.637617,22.9838298 L17.5853617,22.5130213 L17.8222979,22.3797447 C17.8222979,22.3797447 17.9182979,22.3215319 17.9662979,22.2939574 C18.0459574,22.2459574 18.0919149,22.2178723 18.1378723,22.1897872 C18.5744681,21.9089362 18.9794043,21.6194043 19.362383,21.3043404 C19.4721702,21.2165106 19.5697021,21.1348085 19.6657021,21.0490213 C20.0507234,20.7017872 20.3994894,20.3530213 20.7268085,19.9838298 C20.8284255,19.8740426 20.9121702,19.7765106 20.9918298,19.6784681 C21.3109787,19.2878298 21.5984681,18.8869787 21.8614468,18.4677447 C21.9155745,18.3942128 21.9436596,18.3462128 21.971234,18.2982128 C22.0110638,18.2323404 22.043234,18.180766 22.0748936,18.1286809 C22.0692766,18.1526809 22.2010213,17.8994043 22.2010213,17.8994043 L22.6774468,16.944 L22.8771064,16.4670638 C23.0185532,16.1060426 23.1421277,15.7373617 23.2498723,15.3584681 C23.5394043,14.3269787 23.6925957,13.2577021 23.6925957,12.1526809 Z M17.579234,21.5719149 C17.5669787,21.5795745 17.5531915,21.5877447 17.5414468,21.5954043 C16.8209362,22.0304681 16.0493617,22.3853617 15.2354043,22.6488511 L14.0961702,18.0908936 C15.792,17.4464681 17.1400851,16.098383 17.7845106,14.4010213 L22.3424681,15.5417872 C22.0769362,16.3577872 21.7220426,17.1354894 21.2834043,17.8575319 C20.3535319,19.3833191 19.0851064,20.6522553 17.579234,21.5719149 Z M6.14961702,21.5933617 L6.11744681,21.5754894 C4.61157447,20.6563404 3.34110638,19.3853617 2.42348936,17.8794894 C2.4173617,17.8713191 2.41378723,17.8636596 2.40970213,17.8554894 C1.97055319,17.1334468 1.61565957,16.3577872 1.35217021,15.5417872 L5.90808511,14.4010213 C6.55455319,16.098383 7.90110638,17.4464681 9.59846809,18.0908936 L8.45923404,22.6488511 C7.64374468,22.3833191 6.86961702,22.0304681 6.14961702,21.5933617 Z M6.11387234,2.73395745 C6.12765957,2.72578723 6.13940426,2.71812766 6.15165957,2.70995745 C6.87165957,2.27489362 7.64578723,1.92204255 8.45923404,1.65855319 L9.59846809,6.21446809 C7.90110638,6.86093617 6.55455319,8.20748936 5.90808511,9.90485106 L1.3506383,8.76561702 C1.61565957,7.94808511 1.97055319,7.16987234 2.40970213,6.44782979 C3.33906383,4.92204255 4.60953191,3.65361702 6.11387234,2.73395745 Z M6.30740426,12.1526809 C6.30740426,9.09906383 8.79268085,6.61378723 11.8462979,6.61378723 C14.9004255,6.61378723 17.3857021,9.09906383 17.3857021,12.1526809 C17.3857021,15.2068085 14.9004255,17.6920851 11.8462979,17.6920851 C8.79268085,17.6920851 6.30740426,15.2068085 6.30740426,12.1526809 Z M17.5450213,2.712 L17.5751489,2.73191489 C19.0789787,3.64953191 20.3479149,4.91795745 21.2670638,6.42229787 C21.2731915,6.43404255 21.2813617,6.44578723 21.2890213,6.45804255 C21.7240851,7.17804255 22.0769362,7.95012766 22.3424681,8.76561702 L17.7845106,9.90485106 C17.1400851,8.20748936 15.792,6.86093617 14.0946383,6.21446809 L15.2333617,1.65702128 C16.0493617,1.92204255 16.8250213,2.27693617 17.5450213,2.712 Z" id="Fill-1"></path>
                    </g>
                </g>
            </g>
        </g>
    </g>
</svg>