<?xml version="1.0" encoding="UTF-8" standalone="no"?>
<svg width="24px" height="25px" viewBox="0 0 24 25" version="1.1" xmlns="http://www.w3.org/2000/svg" xmlns:xlink="http://www.w3.org/1999/xlink">
    <!-- Generator: Sketch 39.1 (31720) - http://www.bohemiancoding.com/sketch -->
    <title>calendar</title>
    <desc>Created with Sketch.</desc>
    <defs>
        <polygon id="path-1" points="0.00376963351 0.0494763049 0.00376963351 21.7671973 23.9913927 21.7671973 23.9913927 0.0494763049 0.00376963351 0.0494763049"></polygon>
    </defs>
    <g id="Page-1" stroke="none" stroke-width="1" fill="none" fill-rule="evenodd">
        <g id="dashboard-5" transform="translate(-51.000000, -287.000000)">
            <g id="left-menu">
                <g id="schedule" transform="translate(36.000000, 287.000000)">
                    <g id="calendar" transform="translate(15.000000, 0.000000)">
                        <path d="M8.66720419,13.506093 C8.66720419,13.2001656 8.41809424,12.9521586 8.11036649,12.9521586 L6.16712042,12.9521586 C5.85989529,12.9521586 5.61053403,13.2001656 5.61053403,13.506093 L5.61053403,15.4404226 C5.61053403,15.7468505 5.85989529,15.9948575 6.16712042,15.9948575 L8.11036649,15.9948575 C8.41809424,15.9948575 8.66720419,15.7468505 8.66720419,15.4404226 L8.66720419,13.506093 Z" id="Fill-1" fill="#FFFFFF"></path>
                        <path d="M13.5240628,13.506093 C13.5240628,13.2001656 13.2747016,12.9521586 12.9676649,12.9521586 L11.0239791,12.9521586 C10.7166911,12.9521586 10.4673298,13.2001656 10.4673298,13.506093 L10.4673298,15.4404226 C10.4673298,15.7468505 10.7166911,15.9948575 11.0239791,15.9948575 L12.9676649,15.9948575 C13.2747016,15.9948575 13.5240628,15.7468505 13.5240628,15.4404226 L13.5240628,13.506093 Z" id="Fill-2" fill="#FFFFFF"></path>
                        <path d="M18.3811099,13.506093 C18.3811099,13.2001656 18.1318115,12.9521586 17.8245236,12.9521586 L15.8810262,12.9521586 C15.5735497,12.9521586 15.3241885,13.2001656 15.3241885,13.506093 L15.3241885,15.4404226 C15.3241885,15.7468505 15.5735497,15.9948575 15.8810262,15.9948575 L17.8245236,15.9948575 C18.1318115,15.9948575 18.3811099,15.7468505 18.3811099,15.4404226 L18.3811099,13.506093 Z" id="Fill-3" fill="#FFFFFF"></path>
                        <path d="M8.66720419,18.3418858 C8.66720419,18.0352703 8.41809424,17.7875135 8.11036649,17.7875135 L6.16712042,17.7875135 C5.85989529,17.7875135 5.61053403,18.0352703 5.61053403,18.3418858 L5.61053403,20.2760278 C5.61053403,20.5822054 5.85989529,20.8301499 6.16712042,20.8301499 L8.11036649,20.8301499 C8.41809424,20.8301499 8.66720419,20.5822054 8.66720419,20.2760278 L8.66720419,18.3418858 Z" id="Fill-4" fill="#FFFFFF"></path>
                        <path d="M13.5240628,18.3418858 C13.5240628,18.0352703 13.2747016,17.7875135 12.9676649,17.7875135 L11.0239791,17.7875135 C10.7166911,17.7875135 10.4673298,18.0352703 10.4673298,18.3418858 L10.4673298,20.2760278 C10.4673298,20.5822054 10.7166911,20.8301499 11.0239791,20.8301499 L12.9676649,20.8301499 C13.2747016,20.8301499 13.5240628,20.5822054 13.5240628,20.2760278 L13.5240628,18.3418858 Z" id="Fill-5" fill="#FFFFFF"></path>
                        <g id="Group-9" transform="translate(0.000000, 2.689609)">
                            <mask id="mask-2" fill="white">
                                <use xlink:href="#path-1"></use>
                            </mask>
                            <g id="Clip-7"></g>
                            <path d="M18.3811099,15.6522763 C18.3811099,15.3456608 18.1318115,15.097904 17.8247749,15.097904 L15.8810262,15.097904 C15.5735497,15.097904 15.3241885,15.3456608 15.3241885,15.6522763 L15.3241885,17.5864183 C15.3241885,17.8925959 15.5735497,18.1405404 15.8810262,18.1405404 L17.8247749,18.1405404 C18.1318115,18.1405404 18.3811099,17.8925959 18.3811099,17.5864183 L18.3811099,15.6522763 Z" id="Fill-6" fill="#FFFFFF" mask="url(#mask-2)"></path>
                            <path d="M21.8560209,0.0602347429 L21.8560209,3.01492715 C21.8560209,4.35047464 20.7676021,5.42675628 19.4263665,5.42675628 L17.8937592,5.42675628 C16.5522723,5.42675628 15.4495916,4.35047464 15.4495916,3.01492715 L15.4495916,0.0494763049 L8.54180105,0.0494763049 L8.54180105,3.01492715 C8.54180105,4.35047464 7.43912042,5.42675628 6.09794764,5.42675628 L4.56502618,5.42675628 C3.22379058,5.42675628 2.13562304,4.35047464 2.13562304,3.01492715 L2.13562304,0.0602347429 C0.963267016,0.0953873136 0,1.06101967 0,2.2479506 L0,19.5645322 C0,20.7739808 0.984628272,21.7671973 2.19920419,21.7671973 L21.7921885,21.7671973 C23.0050681,21.7671973 23.9913927,20.7717916 23.9913927,19.5645322 L23.9913927,2.2479506 C23.9913927,1.06101967 23.0281257,0.0953873136 21.8560209,0.0602347429 Z M21.1440628,18.4863116 C21.1440628,19.0089089 20.718534,19.4328665 20.1932984,19.4328665 L3.75612565,19.4328665 C3.23120419,19.4328665 2.80536126,19.0089089 2.80536126,18.4863116 L2.80536126,9.54154607 C2.80536126,9.01888614 3.23095288,8.59474097 3.75612565,8.59474097 L20.1932984,8.59474097 C20.718534,8.59474097 21.1440628,9.01888614 21.1440628,9.54154607 L21.1440628,18.4863116 Z" id="Fill-8" fill="#FFFFFF" mask="url(#mask-2)"></path>
                        </g>
                        <path d="M4.55962304,6.53231088 L6.07558115,6.53231088 C6.53572775,6.53231088 6.90879581,6.16145752 6.90879581,5.70334821 L6.90879581,0.859173862 C6.90879581,0.40106456 6.53572775,0.0298984498 6.07558115,0.0298984498 L4.55962304,0.0298984498 C4.09947644,0.0298984498 3.72640838,0.40106456 3.72640838,0.859173862 L3.72640838,5.70334821 C3.72640838,6.16145752 4.09947644,6.53231088 4.55962304,6.53231088 Z" id="Fill-10" fill="#FFFFFF"></path>
                        <path d="M17.8743455,6.53231088 L19.3903037,6.53231088 C19.850199,6.53231088 20.223267,6.16145752 20.223267,5.70334821 L20.223267,0.859173862 C20.223267,0.40106456 19.850199,0.0298984498 19.3903037,0.0298984498 L17.8743455,0.0298984498 C17.414199,0.0298984498 17.0411309,0.40106456 17.0411309,0.859173862 L17.0411309,5.70334821 C17.0411309,6.16145752 17.414199,6.53231088 17.8743455,6.53231088 Z" id="Fill-11" fill="#FFFFFF"></path>
                    </g>
                </g>
            </g>
        </g>
    </g>
</svg>