<?xml version="1.0" encoding="UTF-8" standalone="no"?>
<svg width="25px" height="25px" viewBox="0 0 25 25" version="1.1" xmlns="http://www.w3.org/2000/svg" xmlns:xlink="http://www.w3.org/1999/xlink">
    <!-- Generator: Sketch 39.1 (31720) - http://www.bohemiancoding.com/sketch -->
    <title>chronometer-outline</title>
    <desc>Created with Sketch.</desc>
    <defs></defs>
    <g id="Page-1" stroke="none" stroke-width="1" fill="none" fill-rule="evenodd">
        <g id="dashboard-5" transform="translate(-51.000000, -189.000000)" fill="#FFFFFF">
            <g id="left-menu">
                <g id="timesheet" transform="translate(31.000000, 189.000000)">
                    <g id="chronometer-outline" transform="translate(20.000000, 0.000000)">
                        <path d="M10.5658537,12.7804878 C10.5658537,13.847561 11.4329268,14.7146341 12.5,14.7146341 C13.25,14.7146341 13.8932927,14.2835366 14.2146341,13.6591463 L14.2195122,13.6640244 L17.7518293,7.29268293 L11.5518293,11.0939024 L11.5567073,11.1012195 C10.9682927,11.4323171 10.5658537,12.0560976 10.5658537,12.7804878 Z" id="Fill-1"></path>
                        <path d="M20.2932927,3.56036585 C18.3115854,1.82865854 15.7512195,0.720731707 12.8237805,0.556707317 L12.8237805,3.49573171 C15.2628049,3.65060976 16.6993902,4.42682927 18.1426829,5.6347561 L20.2932927,3.56036585 Z" id="Fill-2"></path>
                        <path d="M21.675,11.8634146 L24.6115854,11.8634146 C24.4140244,8.93597561 23.2707317,6.5304878 21.4914634,4.56036585 L19.4146341,6.62560976 C20.6676829,8.05914634 21.4890244,9.91280488 21.675,11.8634146 Z" id="Fill-3"></path>
                        <path d="M21.6890244,13.3256098 C21.3792683,18.2036585 17.3378049,22.0743902 12.4,22.0743902 C7.26219512,22.0743902 2.92743902,17.9060976 2.92743902,12.7658537 C2.92743902,7.87621951 6.9695122,3.87195122 11.3615854,3.49817073 L11.3615854,0.556707317 C5.01829268,0.937804878 0,6.27317073 0,12.7804878 C0,19.5329268 5.57134146,24.9993902 12.3237805,24.9993902 C18.8762195,24.9993902 24.3189024,19.6689024 24.6310976,13.3256098 L21.6890244,13.3256098 Z" id="Fill-4"></path>
                    </g>
                </g>
            </g>
        </g>
    </g>
</svg>