<?xml version="1.0" encoding="UTF-8" standalone="no"?>
<svg width="24px" height="24px" viewBox="0 0 24 24" version="1.1" xmlns="http://www.w3.org/2000/svg" xmlns:xlink="http://www.w3.org/1999/xlink">
    <!-- Generator: Sketch 39.1 (31720) - http://www.bohemiancoding.com/sketch -->
    <title>newspaper</title>
    <desc>Created with Sketch.</desc>
    <defs>
        <polygon id="path-1" points="0.0028125 24 24 24 24 0 0.0028125 0"></polygon>
    </defs>
    <g id="Page-1" stroke="none" stroke-width="1" fill="none" fill-rule="evenodd">
        <g id="dashboard-5" transform="translate(-51.000000, -749.000000)">
            <g id="left-menu">
                <g id="report" transform="translate(39.000000, 749.000000)">
                    <g id="newspaper" transform="translate(12.000000, 0.000000)">
                        <g id="Group-3">
                            <mask id="mask-2" fill="white">
                                <use xlink:href="#path-1"></use>
                            </mask>
                            <g id="Clip-2"></g>
                            <path d="M22.1538281,21.2307656 C22.1538281,21.7397344 21.7397344,22.1538281 21.2307656,22.1538281 C20.7217969,22.1538281 20.3077031,21.7397344 20.3077031,21.2307656 L20.3077031,5.53846875 L22.1538281,5.53846875 L22.1538281,21.2307656 Z M1.84617188,21.2307656 L1.84617188,1.84617187 L18.4615313,1.84617187 L18.4615313,21.2307656 C18.4615313,21.5543437 18.5178281,21.8649375 18.6202969,22.1538281 L2.76923438,22.1538281 C2.26026563,22.1538281 1.84617188,21.7397344 1.84617188,21.2307656 Z M20.3077031,3.69229688 L20.3077031,0 L0,0 L0,21.2307656 C0,22.7577187 1.24228125,24 2.76923437,24 L21.2307656,24 C22.7577187,24 24,22.7577187 24,21.2307656 L24,3.69229688 L20.3077031,3.69229688 L20.3077031,3.69229688 Z" id="Fill-1" fill="#FFFFFF" mask="url(#mask-2)"></path>
                        </g>
                        <path d="M12.9230625,11.0769375 L14.7692344,11.0769375 L14.7692344,5.53846875 L12.9230625,5.53846875 L12.9230625,11.0769375 Z M11.0769375,12.9230625 L16.6154062,12.9230625 L16.6154062,3.69229688 L11.0769375,3.69229688 L11.0769375,12.9230625 Z" id="Fill-4" fill="#FFFFFF"></path>
                        <polygon id="Fill-5" fill="#FFFFFF" points="3.69229688 5.53846875 9.23076563 5.53846875 9.23076563 3.69229688 3.69229688 3.69229688"></polygon>
                        <polygon id="Fill-6" fill="#FFFFFF" points="3.69229688 9.23076563 9.23076563 9.23076563 9.23076563 7.38459375 3.69229688 7.38459375"></polygon>
                        <polygon id="Fill-7" fill="#FFFFFF" points="3.69229688 12.9230625 9.23076563 12.9230625 9.23076563 11.0769375 3.69229688 11.0769375"></polygon>
                        <polygon id="Fill-8" fill="#FFFFFF" points="3.69229688 16.6154062 16.6154063 16.6154062 16.6154063 14.7692344 3.69229688 14.7692344"></polygon>
                        <polygon id="Fill-9" fill="#FFFFFF" points="3.69229688 20.3077031 16.6154063 20.3077031 16.6154063 18.4615313 3.69229688 18.4615313"></polygon>
                    </g>
                </g>
            </g>
        </g>
    </g>
</svg>