<svg id="SvgjsSvg1049" xmlns="http://www.w3.org/2000/svg" version="1.1" xmlns:xlink="http://www.w3.org/1999/xlink" xmlns:svgjs="http://svgjs.com/svgjs" width="41" height="22" viewBox="0 0 41 22"><title>Star</title><desc>Created with Avocode.</desc><defs id="SvgjsDefs1050"></defs><path id="SvgjsPath1051" d="M858.18 358.59L856.54 360.85999999999996L855.6999999999999 358.21L852.9999999999999 357.38L855.3099999999998 355.78L855.2799999999999 353L857.5399999999998 354.66L860.2199999999998 353.77000000000004L859.3199999999998 356.40000000000003L861.0099999999999 358.63000000000005 " fill="#f8d81c" fill-opacity="1" transform="matrix(1,0,0,1,-853,-351)"></path><path id="SvgjsPath1052" d="M870.47 358.49L868.51 359.11L869.2 357.21000000000004L868 355.57000000000005L870.06 355.63000000000005L871.27 354.00000000000006L871.85 355.94000000000005L873.8000000000001 356.57000000000005L872.1 357.71000000000004L872.09 359.73 " fill="#f8d81c" fill-opacity="1" transform="matrix(1,0,0,1,-853,-351)"></path><path id="SvgjsPath1053" d="M874.15 368.74L871.65 369.53000000000003L872.54 367.1L871 365L873.63 365.08L875.18 363L875.92 365.48L878.42 366.29L876.24 367.74L876.23 370.32 " fill="#f8d81c" fill-opacity="1" transform="matrix(1,0,0,1,-853,-351)"></path><path id="SvgjsPath1054" d="M888.67 370.69L885.75 371.61L886.79 368.78000000000003L885 366.33000000000004L888.06 366.43000000000006L889.8699999999999 364.00000000000006L890.7299999999999 366.89000000000004L893.6399999999999 367.83000000000004L891.1099999999999 369.52000000000004L891.0999999999999 372.53000000000003 " fill="#f8d81c" fill-opacity="1" transform="matrix(1,0,0,1,-853,-351)"></path><path id="SvgjsPath1055" d="M884.89 355.16L883.3 356.16L883.4599999999999 354.32000000000005L881.9999999999999 353.15000000000003L883.8299999999999 352.72L884.52 351L885.49 352.58L887.37 352.69L886.14 354.09L886.62 355.88 " fill="#f8d81c" fill-opacity="1" transform="matrix(1,0,0,1,-853,-351)"></path></svg>