<?xml version="1.0" encoding="utf-8"?>
<!-- Generator: Adobe Illustrator 18.0.0, SVG Export Plug-In . SVG Version: 6.00 Build 0)  -->
<!DOCTYPE svg PUBLIC "-//W3C//DTD SVG 1.1//EN" "http://www.w3.org/Graphics/SVG/1.1/DTD/svg11.dtd">
<svg version="1.1" id="Слой_1" xmlns="http://www.w3.org/2000/svg" xmlns:xlink="http://www.w3.org/1999/xlink" x="0px" y="0px"
	 viewBox="-57.5 5 136 11" enable-background="new -57.5 5 136 11" xml:space="preserve">
<g>
	<path fill="#9EADBC" d="M-56.7,15.9c-0.2,0-0.4-0.1-0.5-0.2c-0.1-0.1-0.3-0.3-0.3-0.6c0-0.2,0.1-0.4,0.2-0.5
		c0.2-0.1,0.3-0.2,0.6-0.2c0.2,0,0.4,0.1,0.5,0.2c0.2,0.2,0.2,0.3,0.2,0.5c0,0.2-0.1,0.4-0.2,0.5S-56.5,15.9-56.7,15.9z"/>
	<path fill="#9EADBC" d="M-50.5,15.7c-0.3,0.1-0.6,0.2-1,0.2c-1.3,0-1.9-0.7-1.9-2.2V9.5h-1.4v-1h1.3V6.8l1.1-0.4v2.2h1.9v1h-1.9v4
		c0,0.5,0.1,0.8,0.2,1c0.2,0.2,0.4,0.3,0.8,0.3c0.3,0,0.5-0.1,0.7-0.2v0.9H-50.5z"/>
	<path fill="#9EADBC" d="M-48.4,6.7c-0.2,0-0.4-0.1-0.5-0.2c-0.1-0.1-0.2-0.3-0.2-0.5s0.1-0.4,0.2-0.5s0.3-0.2,0.5-0.2
		c0.2,0,0.4,0.1,0.5,0.2c0.1,0.1,0.2,0.3,0.2,0.5s-0.1,0.4-0.2,0.5S-48.2,6.7-48.4,6.7z M-47.8,15.8H-49V8.5h1.1v7.3H-47.8z"/>
	<path fill="#9EADBC" d="M-35,15.8h-1.1v-4.2c0-0.8-0.1-1.3-0.4-1.8c-0.2-0.3-0.6-0.5-1.3-0.5c-0.5,0-0.9,0.2-1.3,0.7
		c-0.3,0.4-0.5,1-0.5,1.7v4.2h-1.1v-4.5c0-1.5-0.5-2.2-1.7-2.2c-0.5,0-0.9,0.2-1.3,0.6c-0.3,0.4-0.5,0.9-0.5,1.7v4.2h-1.1V8.4h1.1
		v1.1l0,0c0.5-0.8,1.3-1.3,2.3-1.3c0.5,0,0.9,0.1,1.4,0.4c0.4,0.3,0.6,0.6,0.7,1c0.5-1,1.4-1.5,2.4-1.5c1.6,0,2.4,1,2.4,3
		C-35,11.2-35,15.8-35,15.8z"/>
	<path fill="#9EADBC" d="M-27,12.4h-5.1c0,0.8,0.2,1.5,0.6,1.9c0.4,0.4,1,0.6,1.8,0.6c0.8,0,1.6-0.3,2.3-0.8v1.1
		c-0.6,0.4-1.5,0.7-2.5,0.7c-1,0-1.9-0.3-2.4-1s-1-1.6-1-2.7s0.3-2.1,0.9-2.8c0.6-0.7,1.5-1,2.4-1c0.9,0,1.7,0.3,2.2,0.9
		s0.8,1.5,0.8,2.6C-27,11.9-27,12.4-27,12.4z M-28.1,11.4c0-0.6-0.2-1.2-0.5-1.6C-29,9.5-29.4,9.4-30,9.4c-0.5,0-1,0.2-1.4,0.6
		c-0.3,0.4-0.6,0.9-0.7,1.6h4V11.4z"/>
	<path fill="#9EADBC" d="M-20.2,15.4c-0.5,0.3-1.3,0.5-2,0.5c-1,0-1.9-0.3-2.5-1c-0.6-0.6-0.9-1.6-0.9-2.6c0-1.2,0.3-2.2,1-2.9
		c0.7-0.7,1.6-1,2.7-1c0.6,0,1.3,0.1,1.7,0.3v1.1c-0.5-0.4-1.1-0.5-1.8-0.5c-0.7,0-1.4,0.3-1.9,0.8c-0.5,0.5-0.7,1.2-0.7,2.1
		c0,0.8,0.2,1.6,0.6,2c0.4,0.5,1,0.7,1.8,0.7c0.6,0,1.3-0.2,1.8-0.6v1.1H-20.2z"/>
	<path fill="#9EADBC" d="M-17.3,15.8h-1.1V5h1.1V15.8z"/>
	<path fill="#9EADBC" d="M-11.8,15.9c-1,0-2-0.3-2.6-1c-0.6-0.7-0.9-1.6-0.9-2.7c0-1.2,0.3-2.2,1-2.9c0.7-0.7,1.6-1,2.7-1
		c1,0,2,0.3,2.5,1c0.6,0.6,0.9,1.6,0.9,2.8c0,1.1-0.3,2.1-0.9,2.8C-9.8,15.6-10.7,15.9-11.8,15.9z M-11.7,9.3
		c-0.7,0-1.4,0.2-1.8,0.7c-0.4,0.5-0.6,1.2-0.6,2.1c0,0.8,0.2,1.6,0.6,2.1c0.4,0.5,1,0.7,1.8,0.7c0.7,0,1.4-0.2,1.8-0.7
		c0.4-0.5,0.6-1.1,0.6-2.1c0-0.9-0.2-1.6-0.6-2.1C-10.4,9.6-11,9.3-11.7,9.3z"/>
	<path fill="#9EADBC" d="M-1.3,15.4c-0.5,0.3-1.3,0.5-2,0.5c-1,0-1.9-0.3-2.5-1c-0.6-0.6-0.9-1.6-0.9-2.6c0-1.2,0.3-2.2,1-2.9
		c0.7-0.7,1.6-1,2.7-1c0.6,0,1.3,0.1,1.7,0.3v1.1C-1.8,9.4-2.4,9.3-3,9.3c-0.7,0-1.4,0.3-1.9,0.8c-0.5,0.5-0.7,1.2-0.7,2.1
		c0,0.8,0.2,1.6,0.6,2c0.4,0.5,1,0.7,1.8,0.7c0.6,0,1.3-0.2,1.8-0.6v1.1H-1.3z"/>
	<path fill="#9EADBC" d="M6.6,15.8H4.9l-3.2-3.5l0,0v3.5H0.5V5h1.1v6.8l0,0l3-3.3h1.6l-3.3,3.5L6.6,15.8z"/>
	<path fill="#9EADBC" d="M16.9,8.5l-2.2,7.3h-1.1l-1.5-5.2C12,10.4,12,10.2,12,10l0,0c0,0.2-0.1,0.4-0.1,0.6l-1.7,5.2H9.1L6.9,8.5
		h1.3L9.6,14c0,0.2,0.1,0.4,0.1,0.6h0.1c0-0.2,0.1-0.4,0.1-0.6l1.7-5.4h1l1.5,5.5c0,0.2,0.1,0.4,0.1,0.6h0.1c0-0.2,0-0.4,0.1-0.6
		l1.5-5.5h1V8.5z"/>
	<path fill="#9EADBC" d="M18.9,6.7c-0.2,0-0.4-0.1-0.5-0.2c-0.1-0.1-0.2-0.3-0.2-0.5c0-0.2,0.1-0.4,0.2-0.5c0.1-0.1,0.3-0.2,0.5-0.2
		c0.2,0,0.4,0.1,0.5,0.2c0.1,0.1,0.2,0.3,0.2,0.5s-0.1,0.4-0.2,0.5C19.3,6.6,19.1,6.7,18.9,6.7z M19.4,15.8h-1.1V8.5h1.1V15.8z"/>
	<path fill="#9EADBC" d="M27,8.8l-4.3,5.9H27v1h-6.1v-0.4l4.3-5.9h-4v-1h5.6v0.4H27z"/>
	<path fill="#9EADBC" d="M33.8,15.8h-1.1v-1.1l0,0c-0.5,0.8-1.3,1.3-2.3,1.3c-0.7,0-1.3-0.2-1.7-0.6C28.2,15,28,14.5,28,13.8
		c0-1.3,0.8-2.2,2.4-2.4l2.2-0.3c0-1.2-0.5-1.9-1.5-1.9c-0.8,0-1.7,0.3-2.4,0.9V9.1c0.7-0.4,1.6-0.7,2.5-0.7c1.7,0,2.6,0.9,2.6,2.7
		v4.8H33.8z M32.5,12.1l-1.8,0.2c-0.5,0.1-0.9,0.2-1.3,0.4c-0.3,0.2-0.4,0.5-0.4,1c0,0.3,0.1,0.6,0.4,0.8c0.2,0.2,0.6,0.3,1,0.3
		c0.6,0,1-0.2,1.5-0.6c0.4-0.4,0.5-0.9,0.5-1.6C32.5,12.7,32.5,12.1,32.5,12.1z"/>
	<path fill="#9EADBC" d="M39.7,9.7c-0.2-0.2-0.5-0.2-0.8-0.2c-0.5,0-0.9,0.2-1.3,0.7c-0.3,0.5-0.5,1.1-0.5,1.9v3.7H36V8.5h1.1V10
		l0,0c0.2-0.5,0.4-0.9,0.7-1.2c0.3-0.3,0.7-0.4,1.1-0.4c0.3,0,0.5,0,0.7,0.1C39.7,8.4,39.7,9.7,39.7,9.7z"/>
	<path fill="#9EADBC" d="M47.2,15.8h-1.1v-1.2l0,0c-0.5,0.9-1.4,1.5-2.5,1.5c-0.9,0-1.7-0.3-2.2-0.9c-0.6-0.7-0.8-1.7-0.8-2.8
		c0-1.2,0.3-2.2,0.9-2.9c0.6-0.7,1.5-1,2.4-1c1,0,1.8,0.4,2.2,1.1l0,0V5h1.1C47.2,5,47.2,15.8,47.2,15.8z M46.1,12.5v-1
		c0-0.6-0.2-1-0.6-1.5C45,9.6,44.6,9.4,44,9.4c-0.7,0-1.3,0.3-1.7,0.8c-0.4,0.5-0.6,1.1-0.6,2.1c0,0.8,0.2,1.5,0.6,2
		c0.4,0.5,0.9,0.7,1.6,0.7s1.1-0.2,1.6-0.7C45.9,13.8,46.1,13.2,46.1,12.5z"/>
	<path fill="#9EADBC" d="M50.1,15.9c-0.2,0-0.4-0.1-0.5-0.2c-0.1-0.2-0.2-0.3-0.2-0.5c0-0.2,0.1-0.4,0.2-0.5
		c0.1-0.2,0.3-0.2,0.5-0.2s0.4,0.1,0.5,0.2c0.2,0.2,0.2,0.3,0.2,0.5c0,0.2-0.1,0.4-0.2,0.5S50.3,15.9,50.1,15.9z"/>
	<path fill="#9EADBC" d="M57.8,15.4c-0.5,0.3-1.3,0.5-2,0.5c-1,0-1.9-0.3-2.5-1c-0.7-0.6-1-1.5-1-2.6c0-1.2,0.3-2.2,1-2.9
		c0.7-0.7,1.6-1,2.7-1c0.6,0,1.3,0.1,1.7,0.3v1.1c-0.5-0.4-1.1-0.5-1.8-0.5c-0.7,0-1.4,0.3-1.9,0.8c-0.5,0.5-0.7,1.2-0.7,2.1
		c0,0.8,0.2,1.6,0.6,2c0.4,0.5,1,0.7,1.8,0.7c0.6,0,1.3-0.2,1.8-0.6v1.1H57.8z"/>
	<path fill="#9EADBC" d="M62.6,15.9c-1,0-2-0.3-2.6-1s-0.9-1.6-0.9-2.7c0-1.2,0.3-2.2,1-2.9s1.6-1,2.7-1c1,0,2,0.3,2.5,1
		c0.6,0.6,0.9,1.6,0.9,2.8c0,1.1-0.3,2.1-0.9,2.8C64.6,15.6,63.8,15.9,62.6,15.9z M62.7,9.3c-0.7,0-1.4,0.2-1.8,0.7
		c-0.4,0.5-0.6,1.2-0.6,2.1c0,0.8,0.2,1.6,0.6,2.1c0.4,0.5,1,0.7,1.8,0.7c0.7,0,1.4-0.2,1.8-0.7c0.4-0.5,0.6-1.1,0.6-2.1
		c0-0.9-0.2-1.6-0.6-2.1C64.1,9.6,63.4,9.3,62.7,9.3z"/>
	<path fill="#9EADBC" d="M78.5,15.8h-1.1v-4.2c0-0.8-0.1-1.3-0.4-1.8c-0.2-0.3-0.6-0.5-1.3-0.5c-0.5,0-0.9,0.2-1.3,0.7
		c-0.3,0.4-0.5,1-0.5,1.7v4.2h-1.1v-4.5c0-1.5-0.5-2.2-1.7-2.2c-0.5,0-0.9,0.2-1.3,0.6s-0.5,0.9-0.5,1.7v4.2h-1.1V8.4h1.1v1.1l0,0
		c0.5-0.8,1.3-1.3,2.3-1.3c0.5,0,0.9,0.1,1.4,0.4c0.4,0.3,0.6,0.6,0.7,1c0.5-1,1.4-1.5,2.4-1.5c1.6,0,2.4,1,2.4,3
		C78.5,11.2,78.5,15.8,78.5,15.8z"/>
</g>
</svg>
