<?xml version="1.0" encoding="UTF-8" standalone="no"?>
<svg width="13px" height="11px" viewBox="0 0 13 11" version="1.1" xmlns="http://www.w3.org/2000/svg" xmlns:xlink="http://www.w3.org/1999/xlink">
    <!-- Generator: Sketch 39.1 (31720) - http://www.bohemiancoding.com/sketch -->
    <title>laptop-icon</title>
    <desc>Created with Sketch.</desc>
    <defs>
        <polygon id="path-1" points="12.987907 10.9997105 12.987907 0.100157895 0 0.100157895 0 5.54993421 0 10.9997105"></polygon>
    </defs>
    <g id="Page-1" stroke="none" stroke-width="1" fill="none" fill-rule="evenodd" opacity="0.7">
        <g id="dashboard-5-menu" transform="translate(-962.000000, -721.000000)">
            <g id="time-card" transform="translate(740.000000, 475.000000)">
                <g id="table" transform="translate(20.000000, 160.000000)">
                    <g id="Group-15" transform="translate(14.000000, 80.000000)">
                        <g id="laptop-icon" transform="translate(188.000000, 6.000000)">
                            <mask id="mask-2" fill="white">
                                <use xlink:href="#path-1"></use>
                            </mask>
                            <g id="Clip-2"></g>
                            <path d="M1.42183721,8.65671053 L11.5663721,8.65671053 C11.9678605,8.65671053 12.2913488,8.34697368 12.2913488,7.96342105 L12.2913488,1.02531579 C12.2913488,0.514105263 11.8593256,0.100157895 11.3254186,0.100157895 L1.664,0.100157895 C1.13009302,0.100157895 0.698069767,0.514105263 0.698069767,1.02531579 L0.698069767,7.96342105 C0.698069767,8.34697368 1.02276744,8.65671053 1.42183721,8.65671053 Z M1.90737209,7.49881579 L11.0820465,7.49881579 L11.0820465,1.25805263 L1.90737209,1.25805263 L1.90737209,7.49881579 Z" id="Fill-1" fill="#5986BA" mask="url(#mask-2)"></path>
                            <path d="M12.7472558,9.08194737 L0.242162791,9.08194737 C0.108534884,9.08194737 0,9.18586842 0,9.31381579 L0,10.1706579 C0,10.6286053 0.485232558,10.9997105 1.08534884,10.9997105 L11.9040698,10.9997105 C12.5038837,10.9997105 12.9894186,10.6286053 12.9894186,10.1706579 L12.9894186,9.31381579 C12.9894186,9.18586842 12.8805814,9.08194737 12.7472558,9.08194737 Z M8.00346512,10.2725526 L4.98595349,10.2725526 C4.85262791,10.2725526 4.7437907,10.1697895 4.7437907,10.0406842 C4.7437907,9.91302632 4.85262791,9.80997368 4.98595349,9.80997368 L8.00346512,9.80997368 C8.1367907,9.80997368 8.24532558,9.91302632 8.24532558,10.0406842 C8.24532558,10.1697895 8.1367907,10.2725526 8.00346512,10.2725526 Z" id="Fill-3" fill="#5986BA" mask="url(#mask-2)"></path>
                        </g>
                    </g>
                </g>
            </g>
        </g>
    </g>
</svg>