<?xml version="1.0" encoding="UTF-8" standalone="no"?>
<svg width="11px" height="11px" viewBox="0 0 11 11" version="1.1" xmlns="http://www.w3.org/2000/svg" xmlns:xlink="http://www.w3.org/1999/xlink">
    <!-- Generator: Sketch 39.1 (31720) - http://www.bohemiancoding.com/sketch -->
    <title>chronometer-outline</title>
    <desc>Created with Sketch.</desc>
    <defs></defs>
    <g id="Page-1" stroke="none" stroke-width="1" fill="none" fill-rule="evenodd" opacity="0.7">
        <g id="dashboard-5-menu" transform="translate(-774.000000, -781.000000)" fill="#5986BA">
            <g id="time-card" transform="translate(740.000000, 475.000000)">
                <g id="table" transform="translate(20.000000, 160.000000)">
                    <g id="Group-15-Copy" transform="translate(14.000000, 140.000000)">
                        <g id="chronometer-outline" transform="translate(0.000000, 6.000000)">
                            <path d="M4.64897561,5.62341463 C4.64897561,6.09292683 5.0304878,6.47443902 5.5,6.47443902 C5.83,6.47443902 6.11304878,6.2847561 6.25443902,6.01002439 L6.25658537,6.01217073 L7.81080488,3.20878049 L5.08280488,4.88131707 L5.08495122,4.88453659 C4.82604878,5.03021951 4.64897561,5.30468293 4.64897561,5.62341463 Z" id="Fill-1"></path>
                            <path d="M8.92904878,1.56656098 C8.05709756,0.804609756 6.93053659,0.317121951 5.64246341,0.24495122 L5.64246341,1.53812195 C6.71563415,1.60626829 7.34773171,1.94780488 7.98278049,2.47929268 L8.92904878,1.56656098 Z" id="Fill-2"></path>
                            <path d="M9.537,5.21990244 L10.8290976,5.21990244 C10.7421707,3.93182927 10.239122,2.87341463 9.4562439,2.00656098 L8.54243902,2.91526829 C9.09378049,3.54602439 9.45517073,4.36163415 9.537,5.21990244 Z" id="Fill-3"></path>
                            <path d="M9.54317073,5.86326829 C9.40687805,8.00960976 7.62863415,9.71273171 5.456,9.71273171 C3.19536585,9.71273171 1.28807317,7.87868293 1.28807317,5.61697561 C1.28807317,3.46553659 3.06658537,1.70365854 4.99909756,1.53919512 L4.99909756,0.24495122 C2.20804878,0.412634146 0,2.76019512 0,5.62341463 C0,8.5944878 2.45139024,10.9997317 5.42246341,10.9997317 C8.30553659,10.9997317 10.7003171,8.65431707 10.8376829,5.86326829 L9.54317073,5.86326829 Z" id="Fill-4"></path>
                        </g>
                    </g>
                </g>
            </g>
        </g>
    </g>
</svg>