<?xml version="1.0" encoding="UTF-8" standalone="no"?>
<svg width="12px" height="11px" viewBox="0 0 12 11" version="1.1" xmlns="http://www.w3.org/2000/svg" xmlns:xlink="http://www.w3.org/1999/xlink">
    <!-- Generator: Sketch 39.1 (31720) - http://www.bohemiancoding.com/sketch -->
    <title>warning</title>
    <desc>Created with Sketch.</desc>
    <defs></defs>
    <g id="Page-1" stroke="none" stroke-width="1" fill="none" fill-rule="evenodd" fill-opacity="0.7">
        <g id="dashboard-5-menu" transform="translate(-789.000000, -781.000000)" fill="#E25656">
            <g id="time-card" transform="translate(740.000000, 475.000000)">
                <g id="table" transform="translate(20.000000, 160.000000)">
                    <g id="Group-15-Copy" transform="translate(14.000000, 140.000000)">
                        <g id="warning" transform="translate(15.000000, 6.000000)">
                            <path d="M11.7494807,8.25431921 L7.54917224,0.925957627 C6.86313625,-0.284570621 5.12816452,-0.284570621 4.44456555,0.925957627 L0.2418509,8.25431921 C-0.444277635,9.46497175 0.409696658,10.9689887 1.79413882,10.9689887 L10.1823548,10.9689887 C11.5669203,10.9689887 12.4356093,9.45002542 11.7494807,8.25431921 Z M5.9944473,9.34322599 C5.62920308,9.34322599 5.32568638,9.03746328 5.32568638,8.66955367 C5.32568638,8.30151977 5.62920308,7.99575706 5.9944473,7.99575706 C6.35969152,7.99575706 6.66323907,8.30151977 6.64843188,8.68689266 C6.66564524,9.03746328 6.34488432,9.34322599 5.9944473,9.34322599 Z M6.60394859,4.98794068 C6.57442674,5.50988136 6.54225193,6.0295226 6.51273008,6.55158757 C6.49792288,6.7205339 6.49792288,6.87468927 6.49792288,7.04124294 C6.48308483,7.31711299 6.26834961,7.53099153 5.9944473,7.53099153 C5.72045244,7.53099153 5.50824679,7.33205932 5.49100257,7.05615819 C5.44655013,6.24327684 5.39966067,5.44531073 5.35520823,4.63242938 C5.34049357,4.41867514 5.32568638,4.20237288 5.30831877,3.98861864 C5.30831877,3.63565537 5.50580977,3.34471469 5.82660154,3.25283051 C6.14748586,3.17573729 6.46574807,3.32976836 6.60394859,3.63565537 C6.65083805,3.7424548 6.66564524,3.8494096 6.66564524,3.97370339 C6.65083805,4.31429944 6.61878663,4.65234746 6.60394859,4.98794068 Z" id="Fill-1"></path>
                        </g>
                    </g>
                </g>
            </g>
        </g>
    </g>
</svg>