<?xml version="1.0" encoding="UTF-8" standalone="no"?>
<svg width="11px" height="11px" viewBox="0 0 11 11" version="1.1" xmlns="http://www.w3.org/2000/svg" xmlns:xlink="http://www.w3.org/1999/xlink">
    <!-- Generator: Sketch 39.1 (31720) - http://www.bohemiancoding.com/sketch -->
    <title>verify-button-circle</title>
    <desc>Created with Sketch.</desc>
    <defs></defs>
    <g id="Page-1" stroke="none" stroke-width="1" fill="none" fill-rule="evenodd" opacity="0.7">
        <g id="dashboard-5-menu" transform="translate(-1201.000000, -781.000000)" fill="#E25656">
            <g id="time-card" transform="translate(740.000000, 475.000000)">
                <g id="table" transform="translate(20.000000, 160.000000)">
                    <g id="Group-15-Copy" transform="translate(14.000000, 140.000000)">
                        <g id="verify-button-circle" transform="translate(427.000000, 6.000000)">
                            <path d="M5.47229114,0.055 C2.45467089,0.055 0,2.4789875 0,5.4588875 C0,8.4382375 2.45467089,10.862775 5.47229114,10.862775 C8.48935443,10.862775 10.9445823,8.4382375 10.9445823,5.4588875 C10.9445823,2.4789875 8.48935443,0.055 5.47229114,0.055 Z M5.47229114,9.762775 C3.06872152,9.762775 1.11392405,7.8318625 1.11392405,5.4588875 C1.11392405,3.0853625 3.06872152,1.155 5.47229114,1.155 C7.8753038,1.155 9.83065823,3.0853625 9.83065823,5.4588875 C9.83065823,7.8318625 7.8753038,9.762775 5.47229114,9.762775 Z" id="Fill-1"></path>
                            <path d="M8.61007595,3.688025 L7.91108861,2.997225 C7.86165823,2.9489625 7.77463291,2.9489625 7.72506329,2.997225 L4.41865823,6.2624375 L3.21882278,5.0774625 C3.16994937,5.0292 3.08236709,5.0292 3.03335443,5.0774625 L2.33394937,5.7682625 C2.30944304,5.7924625 2.29579747,5.8257375 2.29579747,5.8601125 C2.29579747,5.8944875 2.30944304,5.9272125 2.33394937,5.9519625 L4.32620253,7.91835 C4.35182278,7.9435125 4.38496203,7.9564375 4.41865823,7.9564375 C4.45249367,7.9564375 4.48618987,7.9440625 4.51167089,7.91835 L8.61007595,3.871725 C8.63513924,3.846975 8.64864557,3.81425 8.64864557,3.779875 C8.64864557,3.7455 8.63513924,3.712225 8.61007595,3.688025 Z" id="Fill-2"></path>
                        </g>
                    </g>
                </g>
            </g>
        </g>
    </g>
</svg>