<svg id="SvgjsSvg1131" xmlns="http://www.w3.org/2000/svg" version="1.1" xmlns:xlink="http://www.w3.org/1999/xlink" xmlns:svgjs="http://svgjs.com/svgjs" width="16" height="16" viewBox="0 0 16 16"><title>Group 3</title><desc>Created with Avocode.</desc><defs id="SvgjsDefs1132"></defs><path id="SvgjsPath1133" d="M811 925C806.59 925 803 928.59 803 933C803 937.41 806.59 941 811 941C815.41 941 819 937.41 819 933C819 928.59 815.41 925 811 925ZM811 939.95C807.17 939.95 804.05 936.83 804.05 933C804.05 929.17 807.17 926.05 811 926.05C814.83 926.05 817.95 929.17 817.95 933C817.95 936.83 814.83 939.95 811 939.95Z " fill="#37bdbd" fill-opacity="1" transform="matrix(1,0,0,1,-803,-925)"></path><path id="SvgjsPath1134" d="M813.69 930.15L809.5600000000001 934.28L807.9000000000001 932.61C807.69 932.41 807.3600000000001 932.41 807.1500000000001 932.61C806.95 932.82 806.95 933.15 807.1500000000001 933.35L809.19 935.39C809.2900000000001 935.49 809.4300000000001 935.55 809.5600000000001 935.55C809.7 935.55 809.83 935.49 809.9300000000001 935.39C809.9300000000001 935.39 809.9300000000001 935.39 809.94 935.39L814.4300000000001 930.9C814.6400000000001 930.6899999999999 814.6400000000001 930.36 814.4300000000001 930.15C814.23 929.9499999999999 813.8900000000001 929.9499999999999 813.69 930.15Z " fill="#37bdbd" fill-opacity="1" transform="matrix(1,0,0,1,-803,-925)"></path></svg>