<svg id="SvgjsSvg1000" xmlns="http://www.w3.org/2000/svg" version="1.1" xmlns:xlink="http://www.w3.org/1999/xlink" xmlns:svgjs="http://svgjs.com/svgjs" width="99" height="118" viewBox="0 0 99 118"><title>Rectangle 13</title><desc>Created with Avocode.</desc><defs id="SvgjsDefs1001"><clipPath id="SvgjsClipPath1010"><path id="SvgjsPath1009" d="M826 431V315H925V431Z " fill="#ffffff"></path></clipPath></defs><path id="SvgjsPath1007" d="M826 431V315H925V431Z " fill="#fafbfc" fill-opacity="1" transform="matrix(1,0,0,1,-826,-315)"></path><path id="SvgjsPath1008" d="M826 431V315H925V431Z " fill-opacity="0" fill="#ffffff" stroke-dashoffset="0" stroke-linejoin="miter" stroke-linecap="butt" stroke-opacity="1" stroke="#fafbfc" stroke-miterlimit="50" stroke-width="2" clip-path="url(&quot;#SvgjsClipPath1010&quot;)" transform="matrix(1,0,0,1,-826,-315)"></path><path id="SvgjsPath1011" d="M841 400.17C843.24 405.79 862.3 407.95 850.04 377.01C835.73 340.9 862.68 328.65 875.5899999999999 334.32C891.05 329.18 909.9999999999999 345.34 901.42 377.01C892.7199999999999 409.13 909.63 405.31 911.87 399.69C895.91 440.8 857.28 441.28 841 400.17 " fill="#391e16" fill-opacity="1" transform="matrix(1,0,0,1,-826,-315)"></path><path id="SvgjsPath1012" d="M884.22 395C884.03 395.29 865.97 395.58 865.77 395.86C860.09 403.97 847.84 407.53000000000003 838.09 409.71000000000004C828.39 411.88000000000005 828.01 424.23 828 432.45000000000005H922.56C922.55 424.23 922.3599999999999 411.93000000000006 912.4699999999999 409.71000000000004C902.5699999999999 407.49 889.5999999999999 403.48 884.2199999999999 395.00000000000006 " fill="#fad9c4" fill-opacity="1" transform="matrix(1,0,0,1,-826,-315)"></path><path id="SvgjsPath1013" d="M884.95 377.42V400.68C879.74 407.54 871.21 407.3 866 400.68V377.42C866 364.86 884.95 364.86 884.95 377.42 " fill="#fad9c4" fill-opacity="1" transform="matrix(1,0,0,1,-826,-315)"></path><path id="SvgjsPath1014" d="M884.95 377.42V392.99C881.36 395.8 877.9100000000001 397.38 875.47 397.38C873.0400000000001 397.38 869.59 395.8 866 392.99V377.42C866 364.86 884.95 364.86 884.95 377.42 " fill="#f2c2a4" fill-opacity="1" transform="matrix(1,0,0,1,-826,-315)"></path><path id="SvgjsPath1015" d="M875.28 392.84C869.12 392.84 856.0799999999999 383.13 852.06 369.21C847.9899999999999 355.15999999999997 855.65 335 875.28 335C894.92 335 902.5799999999999 355.16 898.51 369.21C894.48 383.13 881.45 392.84 875.28 392.84 " fill="#fad9c4" fill-opacity="1" transform="matrix(1,0,0,1,-826,-315)"></path><path id="SvgjsPath1016" d="M868 379.59C871.14 376.53999999999996 873.59 378.82 875.43 378.82C877.27 378.82 879.7199999999999 376.54 882.8599999999999 379.59C881.1699999999998 387.63 870.2399999999999 387.86999999999995 867.9999999999999 379.59 " fill="#dc3c62" fill-opacity="1" transform="matrix(1,0,0,1,-826,-315)"></path><path id="SvgjsPath1017" d="M828.8 421C828.0699999999999 424.75 828.01 428.77 828 432.12H922.56C922.55 428.77 922.52 424.74 921.81 421H828.8 " fill="#dc3c62" fill-opacity="1" transform="matrix(1,0,0,1,-826,-315)"></path><path id="SvgjsPath1018" d="M868 379.59C871.14 376.53999999999996 873.59 378.82 875.43 378.82C877.27 378.82 879.7199999999999 376.54 882.8599999999999 379.59C878.05 381.96 871.2399999999999 380.84999999999997 867.9999999999999 379.59 " fill="#b72546" fill-opacity="1" transform="matrix(1,0,0,1,-826,-315)"></path><path id="SvgjsPath1019" d="M850 355.39C850.87 326.88 900.4 329.55 900.63 355.39C886.05 358.89 862.5699999999999 358.32 850 355.39 " fill="#391e16" fill-opacity="1" transform="matrix(1,0,0,1,-826,-315)"></path><path id="SvgjsPath1020" d="M847.81 361.19C849.79 360.34 852.5999999999999 362.43 854.0699999999999 365.87C855.54 369.31 855.1299999999999 372.79 853.14 373.64C851.16 374.5 848.36 372.4 846.88 368.96C845.41 365.52 845.82 362.03999999999996 847.81 361.19 " fill="#fad9c4" fill-opacity="1" transform="matrix(1,0,0,1,-826,-315)"></path><path id="SvgjsPath1021" d="M903.14 361.19C901.16 360.34 898.36 362.43 896.88 365.87C895.41 369.31 895.82 372.79 897.81 373.64C899.79 374.5 902.5899999999999 372.4 904.0699999999999 368.96C905.54 365.52 905.1299999999999 362.03999999999996 903.14 361.19 " fill="#fad9c4" fill-opacity="1" transform="matrix(1,0,0,1,-826,-315)"></path><path id="SvgjsPath1022" d="M888 349.5C897.97 355.87 898.56 364.43 898.97 371.04C903.45 365.44 903.84 345.61 888 349.5 " fill="#391e16" fill-opacity="1" transform="matrix(1,0,0,1,-826,-315)"></path><path id="SvgjsPath1023" d="M862.65 349.5C852.68 355.87 852.09 364.43 851.68 371.04C847.1999999999999 365.44 846.81 345.61 862.65 349.5 " fill="#391e16" fill-opacity="1" transform="matrix(1,0,0,1,-826,-315)"></path><path id="SvgjsPath1024" d="M845.17 431.84C845.2299999999999 429.97999999999996 845.4 427.72999999999996 845.8499999999999 425C845.0099999999999 427.67 844.42 429.9 843.9999999999999 431.84H845.1699999999998 " fill="#b02441" fill-opacity="1" transform="matrix(1,0,0,1,-826,-315)"></path><path id="SvgjsPath1025" d="M905.68 431.84C905.62 429.97999999999996 905.4499999999999 427.72999999999996 905 425C905.84 427.67 906.43 429.9 906.85 431.84H905.6800000000001 " fill="#b02441" fill-opacity="1" transform="matrix(1,0,0,1,-826,-315)"></path></svg>