<?xml version="1.0" encoding="UTF-8" standalone="no"?>
<svg width="13px" height="17px" viewBox="0 0 13 17" version="1.1" xmlns="http://www.w3.org/2000/svg" xmlns:xlink="http://www.w3.org/1999/xlink">
    <!-- Generator: Sketch 39.1 (31720) - http://www.bohemiancoding.com/sketch -->
    <title>locked-padlock-outline</title>
    <desc>Created with Sketch.</desc>
    <defs></defs>
    <g id="Page-1" stroke="none" stroke-width="1" fill="none" fill-rule="evenodd">
        <g id="dashboard-5-menu-with-messages" transform="translate(-1071.000000, -259.000000)" fill="#4C637B">
            <g id="menu-with-messages" transform="translate(810.000000, 90.000000)">
                <g id="change-password" transform="translate(261.000000, 168.000000)">
                    <path d="M11.199,6.801 L10.398,6.801 L10.398,5.199 C10.398,2.961 8.641,1.199 6.398,1.199 C4.16,1.199 2.398,2.961 2.398,5.199 L2.398,6.801 L1.602,6.801 C0.719,6.801 0,7.519 0,8.398 L0,16.398 C0,17.277 0.719,18 1.602,18 L11.199,18 C12.078,18 12.801,17.277 12.801,16.398 L12.801,8.398 C12.801,7.519 12.078,6.801 11.199,6.801 Z M6.398,2.719 C7.762,2.719 8.879,3.84 8.879,5.199 L8.879,6.801 L4,6.801 L4,5.199 L3.922,5.199 C3.922,3.84 5.039,2.719 6.398,2.719 Z M1.602,16.398 L11.199,16.398 L11.199,8.398 L1.602,8.398 L1.602,16.398 Z M6.398,14 C7.281,14 8,13.277 8,12.398 C8,11.519 7.281,10.801 6.398,10.801 C5.52,10.801 4.801,11.519 4.801,12.398 C4.801,13.277 5.52,14 6.398,14 Z" id="locked-padlock-outline"></path>
                </g>
            </g>
        </g>
    </g>
</svg>