<?xml version="1.0" encoding="UTF-8" standalone="no"?>
<svg width="13px" height="13px" viewBox="0 0 13 13" version="1.1" xmlns="http://www.w3.org/2000/svg" xmlns:xlink="http://www.w3.org/1999/xlink">
    <!-- Generator: Sketch 39.1 (31720) - http://www.bohemiancoding.com/sketch -->
    <title>settings-work-tool</title>
    <desc>Created with Sketch.</desc>
    <defs>
        <polygon id="path-1" points="12.9402542 0.059462963 0 0.059462963 0 13 12.9402542 13 12.9402542 0.059462963"></polygon>
    </defs>
    <g id="Page-1" stroke="none" stroke-width="1" fill="none" fill-rule="evenodd">
        <g id="dashboard-5-menu-with-messages" transform="translate(-1071.000000, -187.000000)">
            <g id="menu-with-messages" transform="translate(810.000000, 90.000000)">
                <g id="account-settings" transform="translate(261.000000, 94.000000)">
                    <g id="settings-work-tool" transform="translate(0.000000, 3.000000)">
                        <mask id="mask-2" fill="white">
                            <use xlink:href="#path-1"></use>
                        </mask>
                        <g id="Clip-2"></g>
                        <path d="M12.8996111,5.81136111 C12.8791481,5.6294213 12.6671157,5.49262037 12.4837315,5.49262037 C11.890787,5.49262037 11.3646481,5.14462963 11.1438889,4.60603241 C10.9186759,4.05449537 11.063963,3.41147685 11.5057222,3.00618981 C11.6448704,2.87901852 11.6618426,2.66602315 11.5452037,2.51814815 C11.2416898,2.13278241 10.8968287,1.78461111 10.5201898,1.48296296 C10.3727963,1.36475926 10.15625,1.38118981 10.0283565,1.52274537 C9.64281019,1.94987963 8.94995833,2.10858796 8.41461111,1.88524074 C7.85771759,1.65087963 7.50623611,1.08640278 7.54078241,0.480518519 C7.55203704,0.290092593 7.41288889,0.124583333 7.22318519,0.10249537 C6.73977778,0.0465231481 6.25221759,0.0448981481 5.76742593,0.0987037037 C5.58006944,0.119407407 5.44086111,0.280944444 5.44724074,0.469023148 C5.468125,1.06900926 5.1126713,1.62355556 4.56113426,1.84949074 C4.03216667,2.06555556 3.34425,1.90805093 2.95942593,1.48464815 C2.83225463,1.34519907 2.61943981,1.3280463 2.47114352,1.44372222 C2.08343056,1.74795833 1.73080556,2.09637037 1.42446296,2.47860648 C1.30505556,2.6272037 1.32268981,2.8425463 1.46304167,2.97019907 C1.91346759,3.37813426 2.05875463,4.02675 1.82481481,4.58466667 C1.60146759,5.11664352 1.04926852,5.45921759 0.417083333,5.45921759 C0.211851852,5.45265741 0.0658425926,5.5904213 0.0432731481,5.77705556 C-0.013662037,6.26299074 -0.0143240741,6.758375 0.0404444444,7.24828241 C0.0609074074,7.43100463 0.279319444,7.56666204 0.464810185,7.56666204 C1.02832407,7.55227778 1.56902778,7.90093056 1.79616667,8.45318981 C2.02234259,9.00472685 1.87681481,9.64750463 1.43433333,10.0532731 C1.29584722,10.1804444 1.27821296,10.3929583 1.39509259,10.5406528 C1.69553704,10.9236111 2.04063889,11.2720231 2.41848148,11.5762593 C2.56677778,11.6956667 2.78236111,11.6789954 2.91097685,11.5371991 C3.29820833,11.1091019 3.99081944,10.9506343 4.524,11.174463 C5.0825787,11.408162 5.43381944,11.9726389 5.39951389,12.5787037 C5.38819907,12.7691296 5.52788889,12.9351204 5.71687037,12.9567269 C5.96423148,12.9856759 6.21291667,13 6.46238426,13 C6.69915278,13 6.93586111,12.9870602 7.17262963,12.9607593 C7.36022685,12.9400556 7.49919444,12.7782778 7.49281481,12.5901991 C7.47120833,11.9904537 7.82738426,11.4359074 8.37819907,11.2103935 C8.91071759,10.9929444 9.59556481,11.1521343 9.98062963,11.5748148 C10.1085231,11.7140231 10.3198935,11.7309352 10.468912,11.6157407 C10.8559028,11.3122269 11.2078657,10.9640556 11.5155926,10.5808565 C11.635,10.4325 11.618088,10.2169167 11.4770139,10.0890231 C11.026588,9.6813287 10.8805787,9.03247222 11.1145185,8.47503704 C11.3343148,7.95034259 11.8661111,7.59789815 12.4381111,7.59789815 L12.518037,7.60000463 C12.7037685,7.61505093 12.8744537,7.47211111 12.8967824,7.28264815 C12.9538981,6.79623148 12.9546204,6.3013287 12.8996111,5.81136111 Z M6.48025926,8.70169444 C5.29015741,8.70169444 4.32225926,7.73355556 4.32225926,6.54351389 C4.32225926,5.35341204 5.29015741,4.38527315 6.48025926,4.38527315 C7.67054167,4.38527315 8.63843981,5.35341204 8.63843981,6.54351389 C8.63843981,7.73355556 7.67054167,8.70169444 6.48025926,8.70169444 Z" id="Fill-1" fill="#4C637B" mask="url(#mask-2)"></path>
                    </g>
                </g>
            </g>
        </g>
    </g>
</svg>