<svg id="SvgjsSvg1009" xmlns="http://www.w3.org/2000/svg" version="1.1" xmlns:xlink="http://www.w3.org/1999/xlink" xmlns:svgjs="http://svgjs.com/svgjs" width="26" height="31" viewBox="0 0 26 31"><title>add user</title><desc>Created with Avocode.</desc><defs id="SvgjsDefs1010"></defs><path id="SvgjsPath1011" d="M997.56 43.94L993.01 41.72C992.58 41.51 992.31 41.089999999999996 992.31 40.62L992.31 39.05C992.42 38.919999999999995 992.53 38.769999999999996 992.65 38.61C993.24 37.8 993.72 36.89 994.06 35.91C994.7299999999999 35.61 995.17 34.959999999999994 995.17 34.23L995.17 32.37C995.17 31.919999999999998 995 31.49 994.6899999999999 31.15L994.6899999999999 28.669999999999998C994.7199999999999 28.419999999999998 994.8299999999999 26.9 993.6999999999999 25.639999999999997C992.7199999999999 24.549999999999997 991.1299999999999 23.999999999999996 988.9699999999999 23.999999999999996C986.81 23.999999999999996 985.2199999999999 24.549999999999997 984.2399999999999 25.639999999999997C983.1099999999999 26.9 983.2199999999999 28.419999999999998 983.2499999999999 28.669999999999998L983.2499999999999 31.15C982.9399999999999 31.49 982.7699999999999 31.919999999999998 982.7699999999999 32.37L982.7699999999999 34.23C982.7699999999999 34.8 983.0299999999999 35.32 983.4799999999999 35.669999999999995C983.92 37.35999999999999 984.8399999999999 38.629999999999995 985.1499999999999 39.03999999999999L985.1499999999999 40.57999999999999C985.1499999999999 41.029999999999994 984.8999999999999 41.43999999999999 984.4999999999999 41.65999999999999L980.2399999999999 43.91999999999999C978.8599999999999 44.65999999999999 977.9999999999999 46.069999999999986 977.9999999999999 47.59999999999999L977.9999999999999 49.109999999999985C977.9999999999999 51.319999999999986 985.1799999999998 51.899999999999984 988.9699999999999 51.899999999999984C992.7699999999999 51.899999999999984 999.9399999999999 51.319999999999986 999.9399999999999 49.109999999999985L999.9399999999999 47.69999999999999C999.9399999999999 46.09999999999999 999.03 44.65999999999999 997.56 43.93999999999999ZM998.99 49.11C998.99 49.74 995.45 50.97 988.97 50.97C982.49 50.97 978.96 49.74 978.96 49.11L978.96 47.6C978.96 46.410000000000004 979.62 45.31 980.7 44.74L984.95 42.480000000000004C985.6700000000001 42.1 986.11 41.370000000000005 986.11 40.580000000000005L986.11 38.71000000000001L986 38.580000000000005C985.99 38.57000000000001 984.82 37.190000000000005 984.37 35.300000000000004L984.33 35.11000000000001L984.1700000000001 35.010000000000005C983.8900000000001 34.84 983.73 34.540000000000006 983.73 34.230000000000004L983.73 32.370000000000005C983.73 32.11000000000001 983.84 31.860000000000003 984.04 31.680000000000003L984.1999999999999 31.540000000000003L984.1999999999999 28.590000000000003C984.1999999999999 28.580000000000002 984.03 27.290000000000003 984.9599999999999 26.250000000000004C985.7499999999999 25.380000000000003 987.0999999999999 24.930000000000003 988.9699999999999 24.930000000000003C990.8299999999999 24.930000000000003 992.18 25.370000000000005 992.9699999999999 26.250000000000004C993.8999999999999 27.270000000000003 993.7499999999999 28.580000000000005 993.7399999999999 28.590000000000003L993.7399999999999 31.540000000000003L993.8999999999999 31.69C994.0999999999999 31.860000000000003 994.2199999999999 32.11 994.2199999999999 32.370000000000005L994.2199999999999 34.230000000000004C994.2199999999999 34.64 993.9399999999999 34.99 993.54 35.11000000000001L993.3 35.18000000000001L993.2199999999999 35.410000000000004C992.91 36.38 992.4499999999999 37.28 991.8699999999999 38.07000000000001C991.7299999999999 38.27000000000001 991.5899999999999 38.440000000000005 991.4699999999999 38.57000000000001L991.3499999999999 38.70000000000001L991.3499999999999 40.62000000000001C991.3499999999999 41.45000000000001 991.8299999999999 42.19000000000001 992.5799999999999 42.55000000000001L997.1399999999999 44.78000000000001C998.2799999999999 45.330000000000005 998.9899999999999 46.45000000000001 998.9899999999999 47.70000000000001Z " fill="#1e3550" fill-opacity="1" transform="matrix(1,0,0,1,-978,-24)"></path><path id="SvgjsPath1012" d="M989 47.5C989 43.35786 992.35786 40 996.5 40C1000.64214 40 1004 43.35786 1004 47.5C1004 51.64214 1000.64214 55 996.5 55C992.35786 55 989 51.64214 989 47.5Z " fill="#ffffff" fill-opacity="1" transform="matrix(1,0,0,1,-978,-24)"></path><path id="SvgjsPath1013" d="M996.66 54.09C992.99 54.09 990 51.160000000000004 990 47.550000000000004C990 43.940000000000005 992.99 41.00000000000001 996.66 41.00000000000001C1000.3299999999999 41.00000000000001 1003.31 43.940000000000005 1003.31 47.550000000000004C1003.31 51.160000000000004 1000.3299999999999 54.09 996.66 54.09ZM996.66 41.75C993.4 41.75 990.76 44.35 990.76 47.55C990.76 50.75 993.4 53.349999999999994 996.66 53.349999999999994C999.91 53.349999999999994 1002.55 50.74999999999999 1002.55 47.55C1002.55 44.349999999999994 999.91 41.75 996.66 41.75Z " fill="#1e3550" fill-opacity="1" transform="matrix(1,0,0,1,-978,-24)"></path><path id="SvgjsPath1014" d="M998.63 47.75L993.38 47.75C993.17 47.75 993 47.58 993 47.37C993 47.169999999999995 993.17 47 993.38 47L998.63 47C998.84 47 999.01 47.17 999.01 47.37C999.01 47.58 998.84 47.75 998.63 47.75Z " fill="#1e3550" fill-opacity="1" transform="matrix(1,0,0,1,-978,-24)"></path><path id="SvgjsPath1015" d="M996.38 50.91C996.17 50.91 996 50.75 996 50.54L996 45.37C996 45.169999999999995 996.17 45 996.38 45C996.59 45 996.76 45.17 996.76 45.37L996.76 50.54C996.76 50.75 996.59 50.91 996.38 50.91Z " fill="#1e3550" fill-opacity="1" transform="matrix(1,0,0,1,-978,-24)"></path></svg>