<?xml version="1.0" encoding="UTF-8" standalone="no"?>
<svg width="13px" height="15px" viewBox="0 0 13 15" version="1.1" xmlns="http://www.w3.org/2000/svg" xmlns:xlink="http://www.w3.org/1999/xlink">
    <!-- Generator: Sketch 39.1 (31720) - http://www.bohemiancoding.com/sketch -->
    <title>notifications-bell-button</title>
    <desc>Created with Sketch.</desc>
    <defs>
        <polygon id="path-1" points="6.34307143 15 0.0557142857 15 0.0557142857 0.0375 12.6304286 0.0375 12.6304286 15 6.34307143 15"></polygon>
    </defs>
    <g id="Page-1" stroke="none" stroke-width="1" fill="none" fill-rule="evenodd">
        <g id="dashboard-5-menu-with-messages" transform="translate(-1071.000000, -224.000000)">
            <g id="menu-with-messages" transform="translate(810.000000, 90.000000)">
                <g id="massages" transform="translate(261.000000, 131.000000)">
                    <g id="notifications-bell-button" transform="translate(0.000000, 3.000000)">
                        <mask id="mask-2" fill="white">
                            <use xlink:href="#path-1"></use>
                        </mask>
                        <g id="Clip-2"></g>
                        <path d="M6.31521429,15 C7.13142857,15 7.79814286,14.3259375 7.79814286,13.498125 L4.82764286,13.498125 C4.82764286,14.3259375 5.499,15 6.31521429,15 Z M11.1428571,10.4990625 L11.1428571,6.3759375 C11.1428571,4.05 9.58285714,2.175 7.42857143,1.651875 L7.42857143,1.1240625 C7.42857143,0.5240625 6.9095,0 6.31521429,0 C5.72,0 5.20185714,0.5240625 5.20185714,1.1240625 L5.20185714,1.651875 C3.04664286,2.175 1.48757143,4.05 1.48757143,6.3759375 L1.48757143,10.4990625 L0,12.0009375 L0,12.751875 L12.6304286,12.751875 L12.6304286,12.0009375 L11.1428571,10.4990625 Z M9.65528571,11.25 L2.9705,11.25 L2.9705,6.3759375 C2.9705,4.5009375 4.45807143,2.9990625 6.31521429,2.9990625 C8.17235714,2.9990625 9.65528571,4.5009375 9.65528571,6.3759375 L9.65528571,11.25 Z" id="Fill-1" fill="#4C637B" mask="url(#mask-2)"></path>
                    </g>
                </g>
            </g>
        </g>
    </g>
</svg>