<svg id="SvgjsSvg1026" xmlns="http://www.w3.org/2000/svg" version="1.1" xmlns:xlink="http://www.w3.org/1999/xlink" xmlns:svgjs="http://svgjs.com/svgjs" width="99" height="116" viewBox="0 0 99 116"><title>Rectangle 13</title><desc>Created with Avocode.</desc><defs id="SvgjsDefs1027"><clipPath id="SvgjsClipPath1031"><path id="SvgjsPath1030" d="M942 431V315H1041V431Z " fill="#ffffff"></path></clipPath></defs><path id="SvgjsPath1028" d="M942 431V315H1041V431Z " fill="#fafbfc" fill-opacity="1" transform="matrix(1,0,0,1,-942,-315)"></path><path id="SvgjsPath1029" d="M942 431V315H1041V431Z " fill-opacity="0" fill="#ffffff" stroke-dashoffset="0" stroke-linejoin="miter" stroke-linecap="butt" stroke-opacity="1" stroke="#fafbfc" stroke-miterlimit="50" stroke-width="2" clip-path="url(&quot;#SvgjsClipPath1031&quot;)" transform="matrix(1,0,0,1,-942,-315)"></path><path id="SvgjsPath1032" d="M982.29 387C961.6899999999999 396.08 955.51 400.92 953.0699999999999 403.09C949.3 406.44 947.2199999999999 418.92999999999995 944.9999999999999 429.53H1038.2099999999998C1035.9899999999998 418.92999999999995 1033.8999999999999 406.44 1030.1399999999999 403.09C1027.6999999999998 400.91999999999996 1021.7399999999999 396.2 1001.1499999999999 387.11999999999995L982.2899999999998 386.99999999999994 " fill="#fad9c4" fill-opacity="1" transform="matrix(1,0,0,1,-942,-315)"></path><path id="SvgjsPath1033" d="M1003 369.3V392.26C996.95 399.03 987.05 398.8 981 392.26V369.3C981 356.90000000000003 1003 356.90000000000003 1003 369.3 " fill="#fad9c4" fill-opacity="1" transform="matrix(1,0,0,1,-942,-315)"></path><path id="SvgjsPath1034" d="M1003 369.3V384.67C998.84 387.44 994.83 389 992 389C989.18 389 985.16 387.44 981 384.67V369.3C981 356.90000000000003 1003 356.90000000000003 1003 369.3 " fill="#f2c2a4" fill-opacity="1" transform="matrix(1,0,0,1,-942,-315)"></path><path id="SvgjsPath1035" d="M965.86 350.1C967.62 349.52000000000004 969.86 351.53000000000003 970.86 354.59000000000003C971.87 357.65000000000003 971.25 360.61 969.49 361.19000000000005C967.73 361.78000000000003 965.48 359.77000000000004 964.48 356.70000000000005C963.48 353.64000000000004 964.09 350.68000000000006 965.86 350.1 " fill="#fad9c4" fill-opacity="1" transform="matrix(1,0,0,1,-942,-315)"></path><path id="SvgjsPath1036" d="M1017.49 350.1C1015.73 349.52000000000004 1013.48 351.53000000000003 1012.48 354.59000000000003C1011.48 357.65000000000003 1012.09 360.61 1013.85 361.19000000000005C1015.62 361.78000000000003 1017.86 359.77000000000004 1018.86 356.70000000000005C1019.86 353.64000000000004 1019.25 350.68000000000006 1017.49 350.1 " fill="#fad9c4" fill-opacity="1" transform="matrix(1,0,0,1,-942,-315)"></path><path id="SvgjsPath1037" d="M980 369C983.1 371.22 1000.58 371.1 1003.68 369C1000.9899999999999 380.69 983.5699999999999 381.05 980 369 " fill="#f2c2a4" fill-opacity="1" transform="matrix(1,0,0,1,-942,-315)"></path><path id="SvgjsPath1038" d="M974.53 391C960.05 397.84 955.17 401.69 953.0699999999999 403.56C949.3 406.91 947.2199999999999 419.4 944.9999999999999 430H1038.2099999999998C1035.9899999999998 419.4 1033.8999999999999 406.91 1030.1399999999999 403.56C1028.11 401.75 1023.6399999999999 398.18 1010.3099999999998 391.79C1010.2099999999998 391.89000000000004 1010.1199999999998 391.99 1010.0199999999999 392.09000000000003C997.5099999999999 405.70000000000005 979.7799999999999 399.01000000000005 974.9899999999999 391.63000000000005C974.8399999999999 391.41 974.6899999999999 391.21000000000004 974.5299999999999 391.00000000000006 " fill="#86b3d5" fill-opacity="1" transform="matrix(1,0,0,1,-942,-315)"></path><path id="SvgjsPath1039" d="M950.7 407C948.33 412.37 946.71 421.63 945 429.78H963.92C963.5 416.48999999999995 963.4699999999999 409.40999999999997 950.6999999999999 407 " fill="#b8d6e6" fill-opacity="1" transform="matrix(1,0,0,1,-942,-315)"></path><path id="SvgjsPath1040" d="M1032.22 407C1034.59 412.37 1036.21 421.63 1037.92 429.78H1019.0000000000001C1019.4200000000001 416.48999999999995 1019.4500000000002 409.40999999999997 1032.22 407 " fill="#b8d6e6" fill-opacity="1" transform="matrix(1,0,0,1,-942,-315)"></path><path id="SvgjsPath1041" d="M974.73 391C973.78 391.45 972.87 391.88 972 392.31C978.59 401.68 998.78 410.85 1012.64 392.79C1011.97 392.47 1011.29 392.13 1010.58 391.79C1010.48 391.89000000000004 1010.38 391.99 1010.2900000000001 392.09000000000003C997.7500000000001 405.70000000000005 979.9900000000001 399.01000000000005 975.19 391.63000000000005C975.0400000000001 391.41 974.8800000000001 391.21000000000004 974.73 391.00000000000006 " fill="#b8d6e6" fill-opacity="1" transform="matrix(1,0,0,1,-942,-315)"></path><path id="SvgjsPath1042" d="M991.21 328C957.64 328 969.71 368.78 971.9000000000001 372.03C974.32 375.60999999999996 985.7800000000001 385.09999999999997 991.21 385.09999999999997C996.63 385.09999999999997 1008.09 375.60999999999996 1010.51 372.03C1012.7 368.78 1024.77 328 991.21 328 " fill="#fad9c4" fill-opacity="1" transform="matrix(1,0,0,1,-942,-315)"></path><path id="SvgjsPath1043" d="M984 371C986.13 372.17 998.19 372.1 1000.32 371C998.46 377.14 986.46 377.32 984 371 " fill="#fffffe" fill-opacity="1" transform="matrix(1,0,0,1,-942,-315)"></path><path id="SvgjsPath1044" d="M1029.53 363.64C1024.17 361.68 1016.51 350.88 1014.23 341.4C1009.7 322.52 977.62 322.10999999999996 972.71 334.14C961.83 343.8 969.84 369.43 969.84 362.91999999999996C969.84 356.40999999999997 971.87 350.80999999999995 974.73 345.94999999999993C978.28 353.37999999999994 986.26 360.0999999999999 994.65 359.35999999999996C988.9 354.50999999999993 985.7099999999999 352.41999999999996 984.37 344.60999999999996C988.49 356.38999999999993 1010.33 368.21 1029.53 363.64 " fill="#e26129" fill-opacity="1" transform="matrix(1,0,0,1,-942,-315)"></path></svg>