<?xml version="1.0" encoding="UTF-8" standalone="no"?>
<svg width="26px" height="31px" viewBox="0 0 26 31" version="1.1" xmlns="http://www.w3.org/2000/svg" xmlns:xlink="http://www.w3.org/1999/xlink">
    <!-- Generator: Sketch 39.1 (31720) - http://www.bohemiancoding.com/sketch -->
    <title>add user hover</title>
    <desc>Created with Sketch.</desc>
    <defs></defs>
    <g id="Page-1" stroke="none" stroke-width="1" fill="none" fill-rule="evenodd">
        <g id="buttons" transform="translate(-964.000000, -163.000000)">
            <g id="add-user-hover" transform="translate(964.000000, 163.000000)">
                <g id="user">
                    <path d="M19.5635839,19.94385 L15.005982,17.723475 C14.5772907,17.5124813 14.3095823,17.0922375 14.3095823,16.6225875 L14.3095823,15.0514687 C14.4192891,14.919525 14.5331695,14.7718875 14.6518198,14.6085563 C15.2432826,13.7953875 15.716095,12.8898 16.0613137,11.910975 C16.733864,11.6116313 17.172095,10.9617938 17.172095,10.2311625 L17.172095,8.3688375 C17.172095,7.92185625 16.9997838,7.48824375 16.6945127,7.14995625 L16.6945127,4.67499375 C16.7201507,4.42040625 16.8274726,2.89695 15.6976118,1.64145 C14.7174054,0.55160625 13.1266568,0 10.9694873,0 C8.812914,0 7.22455037,0.55160625 6.24434398,1.64145 C5.11448321,2.89695 5.21942015,4.42040625 5.24744308,4.67499375 L5.24744308,7.14995625 C4.94217199,7.48824375 4.76986077,7.92185625 4.76986077,8.3688375 L4.76986077,10.2311625 C4.76986077,10.7961375 5.03279934,11.32275 5.48474365,11.6749875 C5.92058968,13.361775 6.83580672,14.63355 7.15479115,15.0398438 L7.15479115,16.5789938 C7.15479115,17.0288813 6.903181,17.44215 6.49774283,17.6577937 L2.24302703,19.9211812 C0.859171171,20.6570438 0,22.0671563 0,23.6039813 L0,25.1094188 C0,27.316425 7.1756593,27.9 10.9694873,27.9 C14.7662965,27.9 21.9419558,27.316425 21.9419558,25.1094188 L21.9419558,23.6952375 C21.9419558,22.0968 21.0291237,20.6593688 19.5635839,19.94385 Z M20.9867912,25.1094188 C20.9867912,25.7406563 17.4517281,26.9688375 10.9694873,26.9688375 C4.49022768,26.9688375 0.955164619,25.7406563 0.955164619,25.1094188 L0.955164619,23.6039813 C0.955164619,22.4100938 1.62354136,21.31095 2.69914496,20.739 L6.954457,18.4750313 C7.66695495,18.0960563 8.10995577,17.3694938 8.10995577,16.5789938 L8.10995577,14.7108563 L7.99786405,14.5812375 C7.98653563,14.5672875 6.81732351,13.1891438 6.37253399,11.2960125 L6.32781654,11.1117563 L6.16504505,11.0094563 C5.88779689,10.8350813 5.72502539,10.5444563 5.72502539,10.2311625 L5.72502539,8.3688375 C5.72502539,8.11018125 5.83652088,7.86489375 6.04400983,7.68354375 L6.19962654,7.544625 L6.19962654,4.65 L6.19783784,4.58896875 C6.19545291,4.57734375 6.03208518,3.28755 6.96161179,2.25466875 C7.75340868,1.37581875 9.10208681,0.9311625 10.9694873,0.9311625 C12.8327142,0.9311625 14.1790074,1.37116875 14.9708043,2.24536875 C15.9003309,3.26953125 15.7465029,4.57734375 15.7441179,4.58896875 L15.7393481,7.544625 L15.8979459,7.68586875 C16.10305,7.86489375 16.2169304,8.11018125 16.2169304,8.3688375 L16.2169304,10.2311625 C16.2169304,10.6351313 15.9444521,10.9914375 15.5390139,11.1140813 L15.3017133,11.1844125 L15.2247993,11.4140063 C14.9058149,12.3812063 14.4514857,13.27575 13.8743325,14.0703188 C13.7318329,14.2656188 13.5946994,14.440575 13.4736642,14.5719375 L13.3544177,14.7038813 L13.3544177,16.6225875 C13.3544177,17.4468 13.8254414,18.1867313 14.5796757,18.5546625 L19.1354889,20.7750375 C20.2790631,21.3312938 20.9867912,22.4507813 20.9867912,23.6952375 L20.9867912,25.1094188 Z" id="Fill-1" fill="#4C637B"></path>
                    <ellipse id="Oval-3" fill="#FFFFFF" cx="18.5151515" cy="23.6375" rx="7.48484848" ry="7.3625"></ellipse>
                </g>
                <g id="plus-button" transform="translate(11.818182, 17.050000)" fill="#4C637B">
                    <path d="M6.65518061,13.175 C2.98631273,13.175 0,10.237502 0,6.627025 C0,3.018129 2.98631273,0.080631 6.65518061,0.080631 C10.3256558,0.080631 13.3125042,3.018129 13.3125042,6.627025 C13.3125042,10.237502 10.3256558,13.175 6.65518061,13.175 Z M6.65518061,0.827917 C3.40473939,0.827917 0.759704242,3.429716 0.759704242,6.627025 C0.759704242,9.825915 3.40473939,12.426133 6.65518061,12.426133 C9.90722909,12.426133 12.550657,9.825915 12.550657,6.627025 C12.550657,3.429716 9.90722909,0.827917 6.65518061,0.827917 Z" id="Fill-1"></path>
                    <path d="M9.27932121,7.001722 L4.03050424,7.001722 C3.82155879,7.001722 3.64958061,6.834663 3.64958061,6.627025 C3.64958061,6.420968 3.82155879,6.252328 4.03050424,6.252328 L9.27932121,6.252328 C9.49094545,6.252328 9.66024485,6.420968 9.66024485,6.627025 C9.66024485,6.834663 9.49094545,7.001722 9.27932121,7.001722 Z" id="Fill-2"></path>
                    <path d="M6.65518061,9.582968 C6.44569939,9.582968 6.27425697,9.416436 6.27425697,9.208271 L6.27425697,4.045252 C6.27425697,3.839722 6.44569939,3.670555 6.65518061,3.670555 C6.86626909,3.670555 7.03610424,3.839722 7.03610424,4.045252 L7.03610424,9.208271 C7.03610424,9.416436 6.86626909,9.582968 6.65518061,9.582968 Z" id="Fill-3"></path>
                </g>
            </g>
        </g>
    </g>
</svg>