<?xml version="1.0" encoding="UTF-8" standalone="no"?>
<svg width="13px" height="14px" viewBox="0 0 13 14" version="1.1" xmlns="http://www.w3.org/2000/svg" xmlns:xlink="http://www.w3.org/1999/xlink">
    <!-- Generator: Sketch 39.1 (31720) - http://www.bohemiancoding.com/sketch -->
    <title>change-power-options</title>
    <desc>Created with Sketch.</desc>
    <defs></defs>
    <g id="Page-1" stroke="none" stroke-width="1" fill="none" fill-rule="evenodd">
        <g id="dashboard-5-menu-with-messages" transform="translate(-1071.000000, -317.000000)" fill="#4C637B">
            <g id="menu-with-messages" transform="translate(810.000000, 90.000000)">
                <g id="logout" transform="translate(51.000000, 222.000000)">
                    <path d="M215.602,13 L217.199,13 L217.199,5 L215.602,5 L215.602,13 Z M220.078,6.922 L218.961,8.039 C220.238,8.922 221.199,10.441 221.199,12.199 C221.199,14.84 219.039,17 216.398,17 C213.762,17 211.602,14.84 211.602,12.199 C211.602,10.441 212.559,8.922 213.922,8.121 L212.719,6.922 C211.121,8.121 210,10.039 210,12.199 C210,15.719 212.879,18.602 216.398,18.602 C219.922,18.602 222.801,15.719 222.801,12.199 C222.801,10.039 221.68,8.121 220.078,6.922 Z" id="change-power-options"></path>
                </g>
            </g>
        </g>
    </g>
</svg>