<svg id="SvgjsSvg1045" xmlns="http://www.w3.org/2000/svg" version="1.1" xmlns:xlink="http://www.w3.org/1999/xlink" xmlns:svgjs="http://svgjs.com/svgjs" width="99" height="117" viewBox="0 0 99 117"><title>Rectangle 13</title><desc>Created with Avocode.</desc><defs id="SvgjsDefs1046"><clipPath id="SvgjsClipPath1050"><path id="SvgjsPath1049" d="M1057 431V315H1156V431Z " fill="#ffffff"></path></clipPath></defs><path id="SvgjsPath1047" d="M1057 431V315H1156V431Z " fill="#fafbfc" fill-opacity="1" transform="matrix(1,0,0,1,-1057,-315)"></path><path id="SvgjsPath1048" d="M1057 431V315H1156V431Z " fill-opacity="0" fill="#ffffff" stroke-dashoffset="0" stroke-linejoin="miter" stroke-linecap="butt" stroke-opacity="1" stroke="#fafbfc" stroke-miterlimit="50" stroke-width="2" clip-path="url(&quot;#SvgjsClipPath1050&quot;)" transform="matrix(1,0,0,1,-1057,-315)"></path><path id="SvgjsPath1051" d="M1114.27 395C1114.09 395.28 1096.65 395.56 1096.46 395.83C1090.98 403.64 1079.15 407.06 1069.74 409.15999999999997C1060.38 411.26 1060.01 423.15 1060 431.05999999999995H1151.28C1151.27 423.1499999999999 1151.09 411.29999999999995 1141.54 409.15999999999997C1131.99 407.03 1119.46 403.15999999999997 1114.27 394.99999999999994 " fill="#e8b485" fill-opacity="1" transform="matrix(1,0,0,1,-1057,-315)"></path><path id="SvgjsPath1052" d="M1066.08 411.02C1060.28 415.03999999999996 1060.01 424.62 1060 431.34H1151.28C1151.27 424.59999999999997 1151.1399999999999 415.02 1145.22 411C1131.32 429.94 1080 429.92 1066.08 411.02 " fill="#dc3c62" fill-opacity="1" transform="matrix(1,0,0,1,-1057,-315)"></path><path id="SvgjsPath1053" d="M1080.92 342.34C1084.17 335.46999999999997 1090.5 331.16999999999996 1099.3400000000001 332.78999999999996C1106.41 324.14 1125.18 331.96999999999997 1129.0100000000002 339.55999999999995C1143.8100000000002 368.8399999999999 1117.6800000000003 385.28 1105.3300000000002 385.28C1094.2500000000002 385.28 1069.5600000000002 366.40999999999997 1080.92 342.34 " fill="#bf7552" fill-opacity="1" transform="matrix(1,0,0,1,-1057,-315)"></path><path id="SvgjsPath1054" d="M1114.29 378.07V400.46999999999997C1109.26 407.08 1101.03 406.84999999999997 1096 400.46999999999997V378.07C1096 365.98 1114.29 365.98 1114.29 378.07 " fill="#e8b485" fill-opacity="1" transform="matrix(1,0,0,1,-1057,-315)"></path><path id="SvgjsPath1055" d="M1114.29 378.07V393.07C1110.83 395.77 1107.49 397.29 1105.1499999999999 397.29C1102.8 397.29 1099.4599999999998 395.77000000000004 1095.9999999999998 393.07V378.07C1095.9999999999998 365.98 1114.2899999999997 365.98 1114.2899999999997 378.07 " fill="#c08e63" fill-opacity="1" transform="matrix(1,0,0,1,-1057,-315)"></path><path id="SvgjsPath1056" d="M1131.88 363.23C1146.13 366.68 1144.97 387.18 1136.6100000000001 394.55C1123.5200000000002 406.1 1138.15 416.13 1133.6100000000001 415.19C1122.8200000000002 412.96999999999997 1115.41 397.19 1126.48 384.94C1137.54 372.68 1123.69 361.24 1131.88 363.23 " fill="#bf7552" fill-opacity="1" transform="matrix(1,0,0,1,-1057,-315)"></path><path id="SvgjsPath1057" d="M1130.03 362.15C1127.11 364.17999999999995 1125.3899999999999 366.77 1126.2 367.91999999999996C1127 369.06999999999994 1130.02 368.35999999999996 1132.94 366.31999999999994C1135.8600000000001 364.28999999999996 1137.5700000000002 361.69999999999993 1136.76 360.54999999999995C1135.96 359.4 1132.94 360.10999999999996 1130.03 362.15 " fill="#86b3d5" fill-opacity="1" transform="matrix(1,0,0,1,-1057,-315)"></path><path id="SvgjsPath1058" d="M1079.9 363.23C1065.64 366.68 1066.8100000000002 387.18 1075.17 394.55C1088.26 406.1 1073.6200000000001 416.13 1078.17 415.19C1088.96 412.96999999999997 1096.3600000000001 397.19 1085.3000000000002 384.94C1074.2400000000002 372.68 1088.0900000000001 361.24 1079.9 363.23 " fill="#bf7552" fill-opacity="1" transform="matrix(1,0,0,1,-1057,-315)"></path><path id="SvgjsPath1059" d="M1081.94 362.15C1084.8500000000001 364.17999999999995 1086.5700000000002 366.77 1085.76 367.91999999999996C1084.96 369.06999999999994 1081.94 368.35999999999996 1079.02 366.31999999999994C1076.11 364.28999999999996 1074.3899999999999 361.69999999999993 1075.2 360.54999999999995C1076 359.4 1079.02 360.10999999999996 1081.94 362.15 " fill="#86b3d5" fill-opacity="1" transform="matrix(1,0,0,1,-1057,-315)"></path><path id="SvgjsPath1060" d="M1105.44 393.7C1099.49 393.7 1086.91 384.34999999999997 1083.02 370.94C1079.09 357.41 1086.49 338 1105.44 338C1124.4 338 1131.79 357.41 1127.8600000000001 370.94C1123.97 384.35 1111.4 393.7 1105.44 393.7 " fill="#e8b485" fill-opacity="1" transform="matrix(1,0,0,1,-1057,-315)"></path><path id="SvgjsPath1061" d="M1096 377.71C1100.01 374.77 1104.21 376.51 1105.61 376.51C1107.01 376.51 1110.9699999999998 374.77 1114.9799999999998 377.71C1112.9899999999998 385.78 1099.0199999999998 385.98999999999995 1095.9999999999998 377.71 " fill="#dc3c62" fill-opacity="1" transform="matrix(1,0,0,1,-1057,-315)"></path><path id="SvgjsPath1062" d="M1096 377.67C1099.73 376.36 1103.02 378.93 1105.37 378.93C1107.7099999999998 378.93 1111.02 375.48 1114.7399999999998 377.81C1110.3799999999999 382.26 1100.3999999999999 382.02 1095.9999999999998 377.67 " fill="#91233d" fill-opacity="1" transform="matrix(1,0,0,1,-1057,-315)"></path><path id="SvgjsPath1063" d="M1096 377.87C1100.02 376.22 1102.97 377.42 1105.32 377.42C1107.6599999999999 377.42 1110.97 376.22 1114.98 377.87C1110.6200000000001 380.37 1100.4 380.29 1096 377.87 " fill="#fffffe" fill-opacity="1" transform="matrix(1,0,0,1,-1057,-315)"></path><path id="SvgjsPath1064" d="M1096 377.57C1100 374.67 1103.43 376.68 1105.77 376.68C1108.11 376.68 1110.93 374.66 1114.95 377.59000000000003C1114.93 377.64000000000004 1114.91 377.68 1114.9 377.71000000000004C1109.7800000000002 377.62000000000006 1101.4 377.57000000000005 1096 377.57000000000005 " fill="#dc3c62" fill-opacity="1" transform="matrix(1,0,0,1,-1057,-315)"></path><path id="SvgjsPath1065" d="M1078.74 363.18C1080.66 362.36 1083.3700000000001 364.38 1084.79 367.69C1086.21 371 1085.81 374.35 1083.8999999999999 375.17C1081.9799999999998 376 1079.2699999999998 373.98 1077.85 370.67C1076.4299999999998 367.36 1076.83 364.01 1078.74 363.18 " fill="#e8b485" fill-opacity="1" transform="matrix(1,0,0,1,-1057,-315)"></path><path id="SvgjsPath1066" d="M1130.9 363.18C1128.98 362.36 1126.27 364.38 1124.8500000000001 367.69C1123.43 371 1123.8300000000002 374.35 1125.7500000000002 375.17C1127.6600000000003 376 1130.3700000000001 373.98 1131.7900000000002 370.67C1133.2100000000003 367.36 1132.8100000000002 364.01 1130.9 363.18 " fill="#e8b485" fill-opacity="1" transform="matrix(1,0,0,1,-1057,-315)"></path><path id="SvgjsPath1067" d="M1127.43 367.45C1138.6000000000001 336 1117.05 334 1104.3700000000001 334C1090.1000000000001 334 1073.43 341.28 1082.65 367.81C1096.26 367.14 1108.22 359.56 1120.24 343.63C1122.29 351.71999999999997 1123.67 362.24 1127.43 367.45 " fill="#bf7552" fill-opacity="1" transform="matrix(1,0,0,1,-1057,-315)"></path><path id="SvgjsPath1068" d="M1076.13 430.59C1076.19 428.78999999999996 1076.3500000000001 426.63 1076.7900000000002 424C1075.9800000000002 426.57 1075.4 428.72 1075.0000000000002 430.59H1076.1300000000003 " fill="#b02441" fill-opacity="1" transform="matrix(1,0,0,1,-1057,-315)"></path><path id="SvgjsPath1069" d="M1134.65 430.59C1134.6000000000001 428.78999999999996 1134.43 426.63 1134 424C1134.81 426.57 1135.38 428.72 1135.79 430.59H1134.6499999999999 " fill="#b02441" fill-opacity="1" transform="matrix(1,0,0,1,-1057,-315)"></path><path id="SvgjsPath1070" d="M1075.99 422.05C1076.49 423.91 1078.19 425.28000000000003 1080.21 425.28000000000003C1082.08 425.28000000000003 1083.68 424.11 1084.3 422.45000000000005C1084.32 422.41 1084.33 422.36000000000007 1084.35 422.31000000000006L1084.3 422.30000000000007C1081.4099999999999 421.44000000000005 1078.69 420.39000000000004 1076.21 419.1500000000001C1076.1200000000001 419.3500000000001 1076.05 419.5600000000001 1075.99 419.7800000000001C1075.89 420.1400000000001 1075.84 420.5200000000001 1075.84 420.9100000000001C1075.84 421.31000000000006 1075.8899999999999 421.69000000000005 1075.99 422.05000000000007ZM1075.99 419.36C1076.04 419.28000000000003 1076.09 419.2 1076.14 419.12L1075.99 419.04C1073.29851 417.67494 1070.90553 416.07769 1068.90717 414.25361000000004C1068.32889 414.99302000000006 1067.99 415.92164 1067.99 416.93000000000006C1067.99 419.3500000000001 1069.95 421.30000000000007 1072.36 421.30000000000007C1073.87 421.30000000000007 1075.2099999999998 420.5300000000001 1075.99 419.36000000000007ZM1068.91 414.25C1068.90887 414.25103 1068.9077300000001 414.25206 1068.9066 414.25309C1068.90679 414.25326 1068.90698 414.25344 1068.90717 414.25361C1068.9081099999999 414.25241 1068.90905 414.2512 1068.9099999999999 414.25ZM1068.9066 414.25309C1067.80166 413.24445 1066.81738 412.16645 1065.97 411.02C1064.75 411.87 1063.78 412.96 1063 414.21999999999997C1063.78 414.94 1064.83 415.39 1065.97 415.39C1067.09836 415.39 1068.12701 414.96125 1068.9066 414.25309ZM1084.3 424.08V422.75C1084.27 422.97 1084.25 423.19 1084.25 423.42C1084.25 423.64000000000004 1084.27 423.86 1084.3 424.08000000000004ZM1118.7 424.14C1115.8700000000001 424.61 1112.96 424.93 1110.01 425.08C1110.19 427.33 1112.07 429.09999999999997 1114.37 429.09999999999997C1116.78 429.09999999999997 1118.7399999999998 427.15 1118.7399999999998 424.73999999999995C1118.7399999999998 424.53999999999996 1118.7199999999998 424.34 1118.6999999999998 424.13999999999993ZM1088.62 427.78C1090.6999999999998 427.78 1092.4499999999998 426.32 1092.8799999999999 424.36999999999995C1092.87 424.50999999999993 1092.86 424.6499999999999 1092.86 424.78999999999996C1092.86 427.2 1094.82 429.15 1097.2299999999998 429.15C1099.0999999999997 429.15 1100.6999999999998 427.96999999999997 1101.3199999999997 426.31C1101.8199999999997 428.19 1103.5199999999998 429.57 1105.5499999999997 429.57C1107.9599999999998 429.57 1109.9199999999996 427.61 1109.9199999999996 425.2V425.09C1101.1599999999996 425.53999999999996 1092.1599999999996 424.61999999999995 1084.3899999999996 422.33C1084.3499999999997 422.46999999999997 1084.3199999999997 422.60999999999996 1084.2999999999997 422.75V424.08C1084.6199999999997 426.18 1086.4299999999998 427.78 1088.6199999999997 427.78ZM1145.11 415.37C1144.33 415.37 1143.6 415.16 1142.9699999999998 414.81C1143.2499999999998 415.38 1143.4099999999999 416.03000000000003 1143.4099999999999 416.72C1143.4099999999999 419.13000000000005 1141.4499999999998 421.09000000000003 1139.04 421.09000000000003C1137.6499999999999 421.09000000000003 1136.42 420.44000000000005 1135.61 419.43C1135.74 419.83 1135.8 420.26 1135.8 420.7C1135.8 423.11 1133.85 425.07 1131.43 425.07C1129.71 425.07 1128.22 424.07 1127.51 422.62C1127.54 422.83 1127.56 423.04 1127.56 423.26C1127.56 425.67 1125.6 427.62 1123.19 427.62C1121.0700000000002 427.62 1119.3 426.11 1118.9 424.11C1130.17 422.22 1140.0900000000001 417.85 1145.1100000000001 411C1146.3500000000001 411.84 1147.3300000000002 412.92 1148.1100000000001 414.17C1147.3300000000002 414.91 1146.2800000000002 415.37 1145.1100000000001 415.37Z " fill="#fffffe" fill-opacity="1" transform="matrix(1,0,0,1,-1057,-315)"></path></svg>