<?xml version="1.0" encoding="UTF-8" standalone="no"?>
<svg width="13px" height="14px" viewBox="0 0 13 14" version="1.1" xmlns="http://www.w3.org/2000/svg" xmlns:xlink="http://www.w3.org/1999/xlink">
    <!-- Generator: Sketch 39.1 (31720) - http://www.bohemiancoding.com/sketch -->
    <title>calendar</title>
    <desc>Created with Sketch.</desc>
    <defs>
        <polygon id="path-1" points="0.00204188482 0.0277067308 0.00204188482 12.1896305 12.9953377 12.1896305 12.9953377 0.0277067308 0.00204188482 0.0277067308"></polygon>
    </defs>
    <g id="Page-1" stroke="none" stroke-width="1" fill="none" fill-rule="evenodd">
        <g id="dashboard-5-menu-with-messages" transform="translate(-1071.000000, -150.000000)">
            <g id="menu-with-messages" transform="translate(810.000000, 90.000000)">
                <g id="my-calendar" transform="translate(261.000000, 57.000000)">
                    <g id="calendar" transform="translate(0.000000, 3.000000)">
                        <path d="M4.6947356,7.56341209 C4.6947356,7.39209272 4.55980105,7.25320879 4.39311518,7.25320879 L3.34052356,7.25320879 C3.17410995,7.25320879 3.03903927,7.39209272 3.03903927,7.56341209 L3.03903927,8.64663668 C3.03903927,8.81823626 3.17410995,8.95712019 3.34052356,8.95712019 L4.39311518,8.95712019 C4.55980105,8.95712019 4.6947356,8.81823626 4.6947356,8.64663668 L4.6947356,7.56341209 Z" id="Fill-1" fill="#4C637B"></path>
                        <path d="M7.32553403,7.56341209 C7.32553403,7.39209272 7.19046335,7.25320879 7.02415183,7.25320879 L5.97132199,7.25320879 C5.80487435,7.25320879 5.66980366,7.39209272 5.66980366,7.56341209 L5.66980366,8.64663668 C5.66980366,8.81823626 5.80487435,8.95712019 5.97132199,8.95712019 L7.02415183,8.95712019 C7.19046335,8.95712019 7.32553403,8.81823626 7.32553403,8.64663668 L7.32553403,7.56341209 Z" id="Fill-2" fill="#4C637B"></path>
                        <path d="M9.95643455,7.56341209 C9.95643455,7.39209272 9.82139791,7.25320879 9.65495026,7.25320879 L8.60222251,7.25320879 C8.43567277,7.25320879 8.30060209,7.39209272 8.30060209,7.56341209 L8.30060209,8.64663668 C8.30060209,8.81823626 8.43567277,8.95712019 8.60222251,8.95712019 L9.65495026,8.95712019 C9.82139791,8.95712019 9.95643455,8.81823626 9.95643455,8.64663668 L9.95643455,7.56341209 Z" id="Fill-3" fill="#4C637B"></path>
                        <path d="M4.6947356,10.271456 C4.6947356,10.0997514 4.55980105,9.96100755 4.39311518,9.96100755 L3.34052356,9.96100755 C3.17410995,9.96100755 3.03903927,10.0997514 3.03903927,10.271456 L3.03903927,11.3545755 C3.03903927,11.526035 3.17410995,11.6648839 3.34052356,11.6648839 L4.39311518,11.6648839 C4.55980105,11.6648839 4.6947356,11.526035 4.6947356,11.3545755 L4.6947356,10.271456 Z" id="Fill-4" fill="#4C637B"></path>
                        <path d="M7.32553403,10.271456 C7.32553403,10.0997514 7.19046335,9.96100755 7.02415183,9.96100755 L5.97132199,9.96100755 C5.80487435,9.96100755 5.66980366,10.0997514 5.66980366,10.271456 L5.66980366,11.3545755 C5.66980366,11.526035 5.80487435,11.6648839 5.97132199,11.6648839 L7.02415183,11.6648839 C7.19046335,11.6648839 7.32553403,11.526035 7.32553403,11.3545755 L7.32553403,10.271456 Z" id="Fill-5" fill="#4C637B"></path>
                        <g id="Group-9" transform="translate(0.000000, 1.506181)">
                            <mask id="mask-2" fill="white">
                                <use xlink:href="#path-1"></use>
                            </mask>
                            <g id="Clip-7"></g>
                            <path d="M9.95643455,8.76527473 C9.95643455,8.59357005 9.82139791,8.45482624 9.65508639,8.45482624 L8.60222251,8.45482624 C8.43567277,8.45482624 8.30060209,8.59357005 8.30060209,8.76527473 L8.30060209,9.84839423 C8.30060209,10.0198537 8.43567277,10.1587026 8.60222251,10.1587026 L9.65508639,10.1587026 C9.82139791,10.1587026 9.95643455,10.0198537 9.95643455,9.84839423 L9.95643455,8.76527473 Z" id="Fill-6" fill="#4C637B" mask="url(#mask-2)"></path>
                            <path d="M11.838678,0.033731456 L11.838678,1.6883592 C11.838678,2.4362658 11.2491178,3.03898352 10.5226152,3.03898352 L9.69245288,3.03898352 C8.96581414,3.03898352 8.3685288,2.4362658 8.3685288,1.6883592 L8.3685288,0.0277067308 L4.6268089,0.0277067308 L4.6268089,1.6883592 C4.6268089,2.4362658 4.02952356,3.03898352 3.30305497,3.03898352 L2.47272251,3.03898352 C1.7462199,3.03898352 1.15679581,2.4362658 1.15679581,1.6883592 L1.15679581,0.033731456 C0.521769634,0.0534168956 0,0.594171016 0,1.25885234 L0,10.956138 C0,11.6334293 0.533340314,12.1896305 1.1912356,12.1896305 L11.8041021,12.1896305 C12.4610785,12.1896305 12.9953377,11.6322033 12.9953377,10.956138 L12.9953377,1.25885234 C12.9953377,0.594171016 12.4735681,0.0534168956 11.838678,0.033731456 Z M11.453034,10.3523345 C11.453034,10.644989 11.2225393,10.8824052 10.9380366,10.8824052 L2.03456806,10.8824052 C1.7502356,10.8824052 1.51957068,10.644989 1.51957068,10.3523345 L1.51957068,5.3432658 C1.51957068,5.05057624 1.75009948,4.81305495 2.03456806,4.81305495 L10.9380366,4.81305495 C11.2225393,4.81305495 11.453034,5.05057624 11.453034,5.3432658 L11.453034,10.3523345 Z" id="Fill-8" fill="#4C637B" mask="url(#mask-2)"></path>
                        </g>
                        <path d="M2.46979581,3.65809409 L3.29093979,3.65809409 C3.54018586,3.65809409 3.7422644,3.45041621 3.7422644,3.193875 L3.7422644,0.481137363 C3.7422644,0.224596154 3.54018586,0.0167431319 3.29093979,0.0167431319 L2.46979581,0.0167431319 C2.22054974,0.0167431319 2.0184712,0.224596154 2.0184712,0.481137363 L2.0184712,3.193875 C2.0184712,3.45041621 2.22054974,3.65809409 2.46979581,3.65809409 Z" id="Fill-10" fill="#4C637B"></path>
                        <path d="M9.68193717,3.65809409 L10.5030812,3.65809409 C10.7521911,3.65809409 10.9542696,3.45041621 10.9542696,3.193875 L10.9542696,0.481137363 C10.9542696,0.224596154 10.7521911,0.0167431319 10.5030812,0.0167431319 L9.68193717,0.0167431319 C9.4326911,0.0167431319 9.23061257,0.224596154 9.23061257,0.481137363 L9.23061257,3.193875 C9.23061257,3.45041621 9.4326911,3.65809409 9.68193717,3.65809409 Z" id="Fill-11" fill="#4C637B"></path>
                    </g>
                </g>
            </g>
        </g>
    </g>
</svg>