<svg id="SvgjsSvg1093" xmlns="http://www.w3.org/2000/svg" version="1.1" xmlns:xlink="http://www.w3.org/1999/xlink" xmlns:svgjs="http://svgjs.com/svgjs" width="99" height="117" viewBox="0 0 99 117"><title>Rectangle 13</title><desc>Created with Avocode.</desc><defs id="SvgjsDefs1094"><clipPath id="SvgjsClipPath1098"><path id="SvgjsPath1097" d="M1172 431V315H1271V431Z " fill="#ffffff"></path></clipPath></defs><path id="SvgjsPath1095" d="M1172 431V315H1271V431Z " fill="#fafbfc" fill-opacity="1" transform="matrix(1,0,0,1,-1172,-315)"></path><path id="SvgjsPath1096" d="M1172 431V315H1271V431Z " fill-opacity="0" fill="#ffffff" stroke-dashoffset="0" stroke-linejoin="miter" stroke-linecap="butt" stroke-opacity="1" stroke="#fafbfc" stroke-miterlimit="50" stroke-width="2" clip-path="url(&quot;#SvgjsClipPath1098&quot;)" transform="matrix(1,0,0,1,-1172,-315)"></path><path id="SvgjsPath1099" d="M1238.1 334.5C1242.99 335.28 1245.6999999999998 338.62 1246.85 343.15C1249.87 354.95 1243.56 380.54999999999995 1221.7199999999998 380.85999999999996C1210.4699999999998 381.00999999999993 1202.35 378.15999999999997 1199.3999999999999 369.08C1196.4499999999998 359.99 1195.2299999999998 345.34999999999997 1201.6499999999999 337.15C1209.7299999999998 326.83 1226.6899999999998 326.72999999999996 1238.1 334.5 " fill="#6b2b1f" fill-opacity="1" transform="matrix(1,0,0,1,-1172,-315)"></path><path id="SvgjsPath1100" d="M1211.99 394C1191.55 402.93 1185.43 407.69 1183 409.83C1179.27 413.12 1177.2 420.31 1175 430.74H1267.46C1265.26 420.31 1263.2 413.12 1259.46 409.83C1257.04 407.69 1251.13 403.05 1230.7 394.12L1211.99 394 " fill="#f9cc6e" fill-opacity="1" transform="matrix(1,0,0,1,-1172,-315)"></path><path id="SvgjsPath1101" d="M1230.84 376.14V398.71999999999997C1225.3899999999999 405.38 1216.4599999999998 405.15 1211 398.71999999999997V376.14C1211 363.95 1230.84 363.95 1230.84 376.14 " fill="#fad9c4" fill-opacity="1" transform="matrix(1,0,0,1,-1172,-315)"></path><path id="SvgjsPath1102" d="M1230.84 376.14V391.26C1227.09 393.99 1223.47 395.52 1220.9199999999998 395.52C1218.37 395.52 1214.7499999999998 393.99 1210.9999999999998 391.26V376.14C1210.9999999999998 363.95 1230.8399999999997 363.95 1230.8399999999997 376.14 " fill="#f2c2a4" fill-opacity="1" transform="matrix(1,0,0,1,-1172,-315)"></path><path id="SvgjsPath1103" d="M1221.02 336C1187.72 336 1199.7 376.11 1201.87 379.3C1204.27 382.82 1215.6399999999999 392.15000000000003 1221.02 392.15000000000003C1226.4 392.15000000000003 1237.77 382.82000000000005 1240.17 379.3C1242.3500000000001 376.11 1254.3200000000002 336 1221.02 336 " fill="#fad9c4" fill-opacity="1" transform="matrix(1,0,0,1,-1172,-315)"></path><path id="SvgjsPath1104" d="M1230.25 379.76C1222.44 380.12 1214.72 377.25 1210 373C1210.29 379.44 1225.17 384.46 1230.25 379.76 " fill="#f2c2a4" fill-opacity="1" transform="matrix(1,0,0,1,-1172,-315)"></path><path id="SvgjsPath1105" d="M1211.56 372.21C1209.9299999999998 372.84 1208.62 374.13 1208.04 375.41999999999996C1207.6599999999999 373.65999999999997 1210.25 371.27 1211.56 372.21 " fill="#f2c2a4" fill-opacity="1" transform="matrix(1,0,0,1,-1172,-315)"></path><path id="SvgjsPath1106" d="M1195.84 358.1C1197.59 357.53000000000003 1199.81 359.5 1200.81 362.51000000000005C1201.8 365.53000000000003 1201.19 368.43000000000006 1199.44 369.01000000000005C1197.7 369.58000000000004 1195.47 367.61000000000007 1194.48 364.59000000000003C1193.48 361.58000000000004 1194.09 358.67 1195.84 358.1 " fill="#fad9c4" fill-opacity="1" transform="matrix(1,0,0,1,-1172,-315)"></path><path id="SvgjsPath1107" d="M1246.44 358.1C1244.7 357.53000000000003 1242.47 359.5 1241.48 362.51000000000005C1240.48 365.53000000000003 1241.09 368.43000000000006 1242.84 369.01000000000005C1244.59 369.58000000000004 1246.81 367.6 1247.81 364.59000000000003C1248.8 361.58000000000004 1248.19 358.67 1246.44 358.1 " fill="#fad9c4" fill-opacity="1" transform="matrix(1,0,0,1,-1172,-315)"></path><path id="SvgjsPath1108" d="M1237.63 346.34C1231.7800000000002 349.92999999999995 1224.8200000000002 348.66999999999996 1227.5200000000002 345.53C1230.2200000000003 342.39 1227.2500000000002 344.58 1221.9700000000003 346.86999999999995C1216.6900000000003 349.16999999999996 1210.6100000000004 348.78999999999996 1214.2100000000003 346.84999999999997C1218.5800000000002 344.48999999999995 1201.5300000000002 342.93999999999994 1198.4100000000003 367.21C1193.4100000000003 349.60999999999996 1201.8600000000004 334.87 1220.9200000000003 334.03999999999996C1241.2800000000002 333.14 1249.5300000000002 349.21 1243.9000000000003 366.68999999999994C1244.2700000000002 357.2199999999999 1241.9700000000003 351.0199999999999 1237.6300000000003 346.3399999999999 " fill="#6b2b1f" fill-opacity="1" transform="matrix(1,0,0,1,-1172,-315)"></path><path id="SvgjsPath1109" d="M1210.04 394L1203 397.8L1213.2 411.89L1220.95 404.57L1210.04 394 " fill="#fffffe" fill-opacity="1" transform="matrix(1,0,0,1,-1172,-315)"></path><path id="SvgjsPath1110" d="M1231.91 394L1238.95 397.8L1228.74 411.89L1221 404.57L1231.91 394 " fill="#fffffe" fill-opacity="1" transform="matrix(1,0,0,1,-1172,-315)"></path><path id="SvgjsPath1111" d="M1217 408.04L1219.4 411.75C1220.64 411.75 1221.89 411.75 1223.13 411.75L1225.5300000000002 408.04L1221.3100000000002 404L1217.0000000000002 408.04 " fill="#dc3c62" fill-opacity="1" transform="matrix(1,0,0,1,-1172,-315)"></path><path id="SvgjsPath1112" d="M1219.42 412L1216 430.76H1226.57L1223.1499999999999 412H1219.4199999999998 " fill="#dc3c62" fill-opacity="1" transform="matrix(1,0,0,1,-1172,-315)"></path><path id="SvgjsPath1113" d="M1194 430.99H1195.58C1195.51 423.97 1195.51 424 1195.51 424C1195.51 424 1194.81 424.17 1194 430.99 " fill="#af873d" fill-opacity="1" transform="matrix(1,0,0,1,-1172,-315)"></path><path id="SvgjsPath1114" d="M1248.58 430.99H1247C1247.07 423.97 1247.07 424 1247.07 424C1247.07 424 1247.77 424.17 1248.58 430.99 " fill="#af873d" fill-opacity="1" transform="matrix(1,0,0,1,-1172,-315)"></path></svg>