<svg id="SvgjsSvg1000" xmlns="http://www.w3.org/2000/svg" version="1.1" xmlns:xlink="http://www.w3.org/1999/xlink" xmlns:svgjs="http://svgjs.com/svgjs" width="18" height="18" viewBox="0 0 18 18"><title>zoom_out - material</title><desc>Created with Avocode.</desc><defs id="SvgjsDefs1001"></defs><path id="SvgjsPath1007" d="M494.98 314.78C495.85 314.78 496.66 314.55999999999995 497.39000000000004 314.11999999999995C498.13000000000005 313.68999999999994 498.71000000000004 313.09999999999997 499.14000000000004 312.36999999999995C499.57000000000005 311.62999999999994 499.78000000000003 310.8299999999999 499.78000000000003 309.94999999999993C499.78000000000003 309.0799999999999 499.57000000000005 308.2799999999999 499.14000000000004 307.5399999999999C498.71000000000004 306.8099999999999 498.13000000000005 306.2199999999999 497.39000000000004 305.7999999999999C496.66 305.3699999999999 495.85 305.1599999999999 494.98 305.1599999999999C494.11 305.1599999999999 493.3 305.3699999999999 492.57 305.7999999999999C491.83 306.2199999999999 491.25 306.8099999999999 490.81 307.5399999999999C490.37 308.2799999999999 490.16 309.0799999999999 490.16 309.94999999999993C490.16 310.8299999999999 490.37 311.62999999999994 490.81 312.36999999999995C491.25 313.09999999999997 491.83 313.68999999999994 492.57 314.11999999999995C493.3 314.55999999999995 494.11 314.78 494.98 314.78ZM501.4 314.78L505.40999999999997 318.64L503.78999999999996 320.25L499.78 316.37V315.52L499.46999999999997 315.24C498.86999999999995 315.77 498.17999999999995 316.18 497.40999999999997 316.46000000000004C496.63 316.74 495.82 316.88000000000005 494.97999999999996 316.88000000000005C493.71 316.88000000000005 492.54999999999995 316.58000000000004 491.47999999999996 315.96000000000004C490.40999999999997 315.34000000000003 489.56999999999994 314.51000000000005 488.95 313.47C488.32 312.39000000000004 488 311.22 488 309.95000000000005C488 308.69000000000005 488.31 307.52000000000004 488.94 306.45000000000005C489.56 305.38000000000005 490.41 304.54 491.48 303.9200000000001C492.55 303.31000000000006 493.71000000000004 303.00000000000006 494.98 303.00000000000006C496.25 303.00000000000006 497.42 303.32000000000005 498.5 303.95000000000005C499.54 304.57000000000005 500.37 305.40000000000003 500.97 306.46000000000004C501.58000000000004 307.53000000000003 501.88000000000005 308.69000000000005 501.88000000000005 309.95000000000005C501.88000000000005 310.81000000000006 501.74000000000007 311.63000000000005 501.46000000000004 312.41C501.18000000000006 313.18 500.77000000000004 313.87 500.24 314.47L500.52 314.78000000000003Z " fill="#ffffff" fill-opacity="1" transform="matrix(1,0,0,1,-488,-303)"></path></svg>